<mxfile host="65bd71144e">
    <diagram id="t5XKcK9e-DYXa3YVi1NW" name="Page-1">
        <mxGraphModel dx="1964" dy="1359" grid="1" gridSize="10" guides="1" tooltips="1" connect="1" arrows="1" fold="1" page="1" pageScale="1" pageWidth="850" pageHeight="1100" math="0" shadow="0">
            <root>
                <mxCell id="0"/>
                <mxCell id="1" parent="0"/>
                <mxCell id="6" value="" style="group" vertex="1" connectable="0" parent="1">
                    <mxGeometry x="270" y="78" width="89" height="86" as="geometry"/>
                </mxCell>
                <mxCell id="2" value="" style="verticalLabelPosition=bottom;html=1;verticalAlign=top;align=center;strokeColor=none;fillColor=#00BEF2;shape=mxgraph.azure.user;" vertex="1" parent="6">
                    <mxGeometry width="47.5" height="50" as="geometry"/>
                </mxCell>
                <mxCell id="3" value="" style="verticalLabelPosition=bottom;html=1;verticalAlign=top;align=center;strokeColor=none;fillColor=#00BEF2;shape=mxgraph.azure.mobile;pointerEvents=1;" vertex="1" parent="6">
                    <mxGeometry x="54" y="3" width="35" height="50" as="geometry"/>
                </mxCell>
                <mxCell id="5" value="Customer" style="text;html=1;align=center;verticalAlign=middle;whiteSpace=wrap;rounded=0;" vertex="1" parent="6">
                    <mxGeometry x="14" y="56" width="60" height="30" as="geometry"/>
                </mxCell>
                <mxCell id="7" value="Azure Communication&lt;br&gt;Services" style="image;aspect=fixed;html=1;points=[];align=center;fontSize=12;image=img/lib/azure2/other/Azure_Communication_Services.svg;" vertex="1" parent="1">
                    <mxGeometry x="531" y="88" width="68" height="50" as="geometry"/>
                </mxCell>
                <mxCell id="8" style="edgeStyle=none;html=1;entryX=0.032;entryY=0.356;entryDx=0;entryDy=0;entryPerimeter=0;" edge="1" parent="1" source="3" target="7">
                    <mxGeometry relative="1" as="geometry"/>
                </mxCell>
                <mxCell id="12" value="&lt;font style=&quot;font-size: 16px;&quot;&gt;ET Vnet&lt;/font&gt;" style="verticalLabelPosition=bottom;verticalAlign=top;html=1;shape=mxgraph.basic.rect;fillColor2=none;strokeWidth=1;size=20;indent=5;opacity=25;fillColor=#F5F5F5;container=0;" vertex="1" parent="1">
                    <mxGeometry x="860" y="268.5" width="693" height="603" as="geometry"/>
                </mxCell>
                <mxCell id="13" value="" style="aspect=fixed;html=1;points=[];align=center;image;fontSize=12;image=img/lib/azure2/networking/Virtual_Networks.svg;" vertex="1" parent="1">
                    <mxGeometry x="1486" y="851.5" width="67" height="40" as="geometry"/>
                </mxCell>
                <mxCell id="20" value="" style="group" vertex="1" connectable="0" parent="1">
                    <mxGeometry x="1040" y="300" width="279.53" height="190" as="geometry"/>
                </mxCell>
                <mxCell id="21" value="&lt;div style=&quot;text-align: left;&quot;&gt;&lt;font face=&quot;Söhne, ui-sans-serif, system-ui, -apple-system, Segoe UI, Roboto, Ubuntu, Cantarell, Noto Sans, sans-serif, Helvetica Neue, Arial, Apple Color Emoji, Segoe UI Emoji, Segoe UI Symbol, Noto Color Emoji&quot; color=&quot;#374151&quot;&gt;&lt;span style=&quot;font-size: 17px;&quot;&gt;&lt;br&gt;&lt;/span&gt;&lt;/font&gt;&lt;/div&gt;" style="rounded=0;whiteSpace=wrap;html=1;fillColor=#66CC00;opacity=15;strokeColor=#0000CC;strokeWidth=3;perimeterSpacing=0;" vertex="1" parent="20">
                    <mxGeometry width="278" height="160" as="geometry"/>
                </mxCell>
                <mxCell id="22" value="" style="shape=image;verticalLabelPosition=bottom;labelBackgroundColor=default;verticalAlign=top;aspect=fixed;imageAspect=0;image=data:image/svg+xml,PHN2ZyB4bWxucz0iaHR0cDovL3d3dy53My5vcmcvMjAwMC9zdmciIHZpZXdCb3g9IjAgMCAxOCAxOCIgaGVpZ2h0PSIxOCIgd2lkdGg9IjE4Ij4KICA8ZGVmcz4KICAgIDxsaW5lYXJHcmFkaWVudCBncmFkaWVudFVuaXRzPSJ1c2VyU3BhY2VPblVzZSIgeTI9IjcuNjk1IiB4Mj0iOS4wMzMiIHkxPSIxMC4zMDUiIHgxPSI5LjAzMyIgaWQ9ImJjZWI2MGRkLThiOGMtNDA5OC05NGY4LWFlYjRkYjJlZGFlZiI+CiAgICAgIDxzdG9wIHN0b3AtY29sb3I9IiM1ZTk2MjQiIG9mZnNldD0iMCIvPgogICAgICA8c3RvcCBzdG9wLWNvbG9yPSIjNmZiMDJhIiBvZmZzZXQ9IjAuMjQxIi8+CiAgICAgIDxzdG9wIHN0b3AtY29sb3I9IiM3Y2M1MmYiIG9mZnNldD0iMC41MDEiLz4KICAgICAgPHN0b3Agc3RvcC1jb2xvcj0iIzgzZDIzMiIgb2Zmc2V0PSIwLjc1NiIvPgogICAgICA8c3RvcCBzdG9wLWNvbG9yPSIjODZkNjMzIiBvZmZzZXQ9IjEiLz4KICAgIDwvbGluZWFyR3JhZGllbnQ+CiAgPC9kZWZzPgogIDxnIGlkPSJhYzc1YzIxZS0yYTkzLTQ2NGYtODA0OC1mMTUxOGRhYjhiNzUiPgogICAgPGc+CiAgICAgIDxwYXRoIGZpbGw9InVybCgjYmNlYjYwZGQtOGI4Yy00MDk4LTk0ZjgtYWViNGRiMmVkYWVmKSIgZD0iTTkuMDMxLDcuN0ExLjMwNSwxLjMwNSwwLDEsMCwxMC4zMzgsOSwxLjMwNSwxLjMwNSwwLDAsMCw5LjAzMSw3LjdaIi8+CiAgICAgIDxnPgogICAgICAgIDxwYXRoIGZpbGw9IiM1MGU2ZmYiIHRyYW5zZm9ybT0idHJhbnNsYXRlKDEzLjY1MyAxNi40ODUpIHJvdGF0ZSgxMzQuOTE5KSIgZD0iTTIuOTYxLDcuMzc0aC44ODhhLjI4NC4yODQsMCwwLDEsLjI4NC4yODR2Ni41NTFhLjU2OC41NjgsMCwwLDEtLjU2OC41NjhIMi42NzdhMCwwLDAsMCwxLDAsMFY3LjY1OUEuMjg0LjI4NCwwLDAsMSwyLjk2MSw3LjM3NFoiLz4KICAgICAgICA8cGF0aCBmaWxsPSIjMTQ5MGRmIiB0cmFuc2Zvcm09InRyYW5zbGF0ZSg1Ljg0NyAtMC4zNTgpIHJvdGF0ZSg0NC45MTkpIiBkPSJNMi45MTMsMy4yNDRIMy44YS4yODQuMjg0LDAsMCwxLC4yODQuMjg0djcuMDE1YTAsMCwwLDAsMSwwLDBIMy4yYS41NjguNTY4LDAsMCwxLS41NjgtLjU2OFYzLjUyOGEuMjg0LjI4NCwwLDAsMSwuMjg0LS4yODRaIi8+CiAgICAgICAgPHBhdGggZmlsbD0iIzUwZTZmZiIgdHJhbnNmb3JtPSJ0cmFuc2xhdGUoMTIuMTMyIC03LjA3OSkgcm90YXRlKDQ1LjA4MSkiIGQ9Ik0xMy44NjcsNy4zNzRoLjg4OGEuNTY4LjU2OCwwLDAsMSwuNTY4LjU2OHY2LjU1MWEuMjg0LjI4NCwwLDAsMS0uMjg0LjI4NGgtLjg4OGEuMjg0LjI4NCwwLDAsMS0uMjg0LS4yODRWNy4zNzRhMCwwLDAsMCwxLDAsMFoiLz4KICAgICAgICA8cGF0aCBmaWxsPSIjMTQ5MGRmIiB0cmFuc2Zvcm09InRyYW5zbGF0ZSgyOS44NzkgMS40MzUpIHJvdGF0ZSgxMzUuMDgxKSIgZD0iTTE0LjQ4MywzLjI0NGguODg4YTAsMCwwLDAsMSwwLDB2Ny4wMTVhLjI4NC4yODQsMCwwLDEtLjI4NC4yODRIMTQuMmEuMjg0LjI4NCwwLDAsMS0uMjg0LS4yODRWMy44MTJhLjU2OC41NjgsMCwwLDEsLjU2OC0uNTY4WiIvPgogICAgICA8L2c+CiAgICA8L2c+CiAgPC9nPgo8L3N2Zz4=;direction=south;rotation=-90;" vertex="1" parent="20">
                    <mxGeometry x="229.52999999999997" y="136" width="50" height="50" as="geometry"/>
                </mxCell>
                <mxCell id="23" value="" style="aspect=fixed;html=1;points=[];align=center;image;fontSize=12;image=img/lib/azure2/networking/Network_Security_Groups.svg;fillColor=#66CC00;" vertex="1" parent="20">
                    <mxGeometry x="238.05999999999995" y="5" width="32.94" height="40" as="geometry"/>
                </mxCell>
                <mxCell id="24" value="Private Endpoints Subnet" style="text;html=1;strokeColor=none;fillColor=none;align=center;verticalAlign=middle;whiteSpace=wrap;rounded=0;" vertex="1" parent="20">
                    <mxGeometry x="76.41999999999996" y="169" width="110" height="30" as="geometry"/>
                </mxCell>
                <mxCell id="25" value="Event Grid&lt;br&gt;Endppoint" style="aspect=fixed;html=1;points=[];align=center;image;fontSize=12;image=img/lib/azure2/networking/Private_Endpoint.svg;" vertex="1" parent="20">
                    <mxGeometry x="44.00000000000004" y="51" width="65.45" height="60" as="geometry"/>
                </mxCell>
                <mxCell id="26" value="Realtime API&lt;br&gt;Endpoint" style="aspect=fixed;html=1;points=[];align=center;image;fontSize=12;image=img/lib/azure2/networking/Private_Endpoint.svg;" vertex="1" parent="20">
                    <mxGeometry x="162.00000000000009" y="54" width="65.45" height="60" as="geometry"/>
                </mxCell>
                <mxCell id="34" value="Incoming Call&lt;br&gt;Event Grid&lt;br&gt;Subscription" style="image;aspect=fixed;html=1;points=[];align=center;fontSize=12;image=img/lib/azure2/integration/Event_Grid_Subscriptions.svg;" vertex="1" parent="1">
                    <mxGeometry x="740" y="87" width="67" height="60" as="geometry"/>
                </mxCell>
                <mxCell id="35" style="edgeStyle=none;html=1;entryX=0.077;entryY=0.443;entryDx=0;entryDy=0;entryPerimeter=0;" edge="1" parent="1" source="7" target="34">
                    <mxGeometry relative="1" as="geometry"/>
                </mxCell>
                <mxCell id="37" value="" style="group" vertex="1" connectable="0" parent="1">
                    <mxGeometry x="1040" y="610" width="279.53" height="190" as="geometry"/>
                </mxCell>
                <mxCell id="38" value="&lt;div style=&quot;text-align: left;&quot;&gt;&lt;font face=&quot;Söhne, ui-sans-serif, system-ui, -apple-system, Segoe UI, Roboto, Ubuntu, Cantarell, Noto Sans, sans-serif, Helvetica Neue, Arial, Apple Color Emoji, Segoe UI Emoji, Segoe UI Symbol, Noto Color Emoji&quot; color=&quot;#374151&quot;&gt;&lt;span style=&quot;font-size: 17px;&quot;&gt;&lt;br&gt;&lt;/span&gt;&lt;/font&gt;&lt;/div&gt;" style="rounded=0;whiteSpace=wrap;html=1;fillColor=#66CC00;opacity=15;strokeColor=#0000CC;strokeWidth=3;perimeterSpacing=0;" vertex="1" parent="37">
                    <mxGeometry width="278" height="160" as="geometry"/>
                </mxCell>
                <mxCell id="39" value="" style="shape=image;verticalLabelPosition=bottom;labelBackgroundColor=default;verticalAlign=top;aspect=fixed;imageAspect=0;image=data:image/svg+xml,PHN2ZyB4bWxucz0iaHR0cDovL3d3dy53My5vcmcvMjAwMC9zdmciIHZpZXdCb3g9IjAgMCAxOCAxOCIgaGVpZ2h0PSIxOCIgd2lkdGg9IjE4Ij4KICA8ZGVmcz4KICAgIDxsaW5lYXJHcmFkaWVudCBncmFkaWVudFVuaXRzPSJ1c2VyU3BhY2VPblVzZSIgeTI9IjcuNjk1IiB4Mj0iOS4wMzMiIHkxPSIxMC4zMDUiIHgxPSI5LjAzMyIgaWQ9ImJjZWI2MGRkLThiOGMtNDA5OC05NGY4LWFlYjRkYjJlZGFlZiI+CiAgICAgIDxzdG9wIHN0b3AtY29sb3I9IiM1ZTk2MjQiIG9mZnNldD0iMCIvPgogICAgICA8c3RvcCBzdG9wLWNvbG9yPSIjNmZiMDJhIiBvZmZzZXQ9IjAuMjQxIi8+CiAgICAgIDxzdG9wIHN0b3AtY29sb3I9IiM3Y2M1MmYiIG9mZnNldD0iMC41MDEiLz4KICAgICAgPHN0b3Agc3RvcC1jb2xvcj0iIzgzZDIzMiIgb2Zmc2V0PSIwLjc1NiIvPgogICAgICA8c3RvcCBzdG9wLWNvbG9yPSIjODZkNjMzIiBvZmZzZXQ9IjEiLz4KICAgIDwvbGluZWFyR3JhZGllbnQ+CiAgPC9kZWZzPgogIDxnIGlkPSJhYzc1YzIxZS0yYTkzLTQ2NGYtODA0OC1mMTUxOGRhYjhiNzUiPgogICAgPGc+CiAgICAgIDxwYXRoIGZpbGw9InVybCgjYmNlYjYwZGQtOGI4Yy00MDk4LTk0ZjgtYWViNGRiMmVkYWVmKSIgZD0iTTkuMDMxLDcuN0ExLjMwNSwxLjMwNSwwLDEsMCwxMC4zMzgsOSwxLjMwNSwxLjMwNSwwLDAsMCw5LjAzMSw3LjdaIi8+CiAgICAgIDxnPgogICAgICAgIDxwYXRoIGZpbGw9IiM1MGU2ZmYiIHRyYW5zZm9ybT0idHJhbnNsYXRlKDEzLjY1MyAxNi40ODUpIHJvdGF0ZSgxMzQuOTE5KSIgZD0iTTIuOTYxLDcuMzc0aC44ODhhLjI4NC4yODQsMCwwLDEsLjI4NC4yODR2Ni41NTFhLjU2OC41NjgsMCwwLDEtLjU2OC41NjhIMi42NzdhMCwwLDAsMCwxLDAsMFY3LjY1OUEuMjg0LjI4NCwwLDAsMSwyLjk2MSw3LjM3NFoiLz4KICAgICAgICA8cGF0aCBmaWxsPSIjMTQ5MGRmIiB0cmFuc2Zvcm09InRyYW5zbGF0ZSg1Ljg0NyAtMC4zNTgpIHJvdGF0ZSg0NC45MTkpIiBkPSJNMi45MTMsMy4yNDRIMy44YS4yODQuMjg0LDAsMCwxLC4yODQuMjg0djcuMDE1YTAsMCwwLDAsMSwwLDBIMy4yYS41NjguNTY4LDAsMCwxLS41NjgtLjU2OFYzLjUyOGEuMjg0LjI4NCwwLDAsMSwuMjg0LS4yODRaIi8+CiAgICAgICAgPHBhdGggZmlsbD0iIzUwZTZmZiIgdHJhbnNmb3JtPSJ0cmFuc2xhdGUoMTIuMTMyIC03LjA3OSkgcm90YXRlKDQ1LjA4MSkiIGQ9Ik0xMy44NjcsNy4zNzRoLjg4OGEuNTY4LjU2OCwwLDAsMSwuNTY4LjU2OHY2LjU1MWEuMjg0LjI4NCwwLDAsMS0uMjg0LjI4NGgtLjg4OGEuMjg0LjI4NCwwLDAsMS0uMjg0LS4yODRWNy4zNzRhMCwwLDAsMCwxLDAsMFoiLz4KICAgICAgICA8cGF0aCBmaWxsPSIjMTQ5MGRmIiB0cmFuc2Zvcm09InRyYW5zbGF0ZSgyOS44NzkgMS40MzUpIHJvdGF0ZSgxMzUuMDgxKSIgZD0iTTE0LjQ4MywzLjI0NGguODg4YTAsMCwwLDAsMSwwLDB2Ny4wMTVhLjI4NC4yODQsMCwwLDEtLjI4NC4yODRIMTQuMmEuMjg0LjI4NCwwLDAsMS0uMjg0LS4yODRWMy44MTJhLjU2OC41NjgsMCwwLDEsLjU2OC0uNTY4WiIvPgogICAgICA8L2c+CiAgICA8L2c+CiAgPC9nPgo8L3N2Zz4=;direction=south;rotation=-90;" vertex="1" parent="37">
                    <mxGeometry x="229.52999999999997" y="136" width="50" height="50" as="geometry"/>
                </mxCell>
                <mxCell id="40" value="" style="aspect=fixed;html=1;points=[];align=center;image;fontSize=12;image=img/lib/azure2/networking/Network_Security_Groups.svg;fillColor=#66CC00;" vertex="1" parent="37">
                    <mxGeometry x="238.05999999999995" y="5" width="32.94" height="40" as="geometry"/>
                </mxCell>
                <mxCell id="42" value="App Service&lt;br&gt;Subnet" style="text;html=1;strokeColor=none;fillColor=none;align=center;verticalAlign=middle;whiteSpace=wrap;rounded=0;" vertex="1" parent="37">
                    <mxGeometry x="76.41999999999996" y="160" width="110" height="30" as="geometry"/>
                </mxCell>
                <mxCell id="36" value="Call Orchestration&lt;br&gt;App" style="image;aspect=fixed;html=1;points=[];align=center;fontSize=12;image=img/lib/azure2/app_services/App_Services.svg;" vertex="1" parent="37">
                    <mxGeometry x="107.76999999999998" y="30" width="64" height="64" as="geometry"/>
                </mxCell>
                <mxCell id="43" style="edgeStyle=none;html=1;entryX=0.437;entryY=-0.084;entryDx=0;entryDy=0;entryPerimeter=0;" edge="1" parent="1" source="34" target="25">
                    <mxGeometry relative="1" as="geometry">
                        <Array as="points">
                            <mxPoint x="1110" y="117"/>
                            <mxPoint x="1110" y="200"/>
                        </Array>
                    </mxGeometry>
                </mxCell>
                <mxCell id="46" style="edgeStyle=orthogonalEdgeStyle;html=1;entryX=-0.101;entryY=0.501;entryDx=0;entryDy=0;entryPerimeter=0;" edge="1" parent="1" source="25" target="36">
                    <mxGeometry relative="1" as="geometry">
                        <Array as="points">
                            <mxPoint x="960" y="381"/>
                            <mxPoint x="960" y="672"/>
                        </Array>
                    </mxGeometry>
                </mxCell>
                <mxCell id="47" value="Bi Directional&lt;br&gt;websocket" style="edgeLabel;html=1;align=center;verticalAlign=middle;resizable=0;points=[];" vertex="1" connectable="0" parent="46">
                    <mxGeometry x="-0.0021" y="1" relative="1" as="geometry">
                        <mxPoint as="offset"/>
                    </mxGeometry>
                </mxCell>
                <mxCell id="50" style="edgeStyle=orthogonalEdgeStyle;html=1;entryX=0.473;entryY=1.11;entryDx=0;entryDy=0;entryPerimeter=0;" edge="1" parent="1" source="36" target="26">
                    <mxGeometry relative="1" as="geometry">
                        <Array as="points">
                            <mxPoint x="1420" y="672"/>
                            <mxPoint x="1420" y="527"/>
                            <mxPoint x="1233" y="527"/>
                        </Array>
                    </mxGeometry>
                </mxCell>
                <mxCell id="51" style="edgeStyle=none;html=1;" edge="1" parent="1" source="26">
                    <mxGeometry relative="1" as="geometry">
                        <mxPoint x="1640" y="384" as="targetPoint"/>
                    </mxGeometry>
                </mxCell>
                <mxCell id="56" value="" style="shape=image;verticalLabelPosition=bottom;labelBackgroundColor=default;verticalAlign=top;aspect=fixed;imageAspect=0;image=data:image/png,iVBORw0KGgoAAAANSUhEUgAABFoAAANbCAYAAAByxfu4AAAAAXNSR0IArs4c6QAAAARnQU1BAACxjwv8YQUAAAAJcEhZcwAAEnQAABJ0Ad5mH3gAAP+lSURBVHhe7N17fM71/8fxx4RRToksyuQ8YWpMyabMcTSHzCFzyGEJEzOHbdgk5w0ZpTnEKIeJTObQ6MukrOQQ5pRMmWnyGyY2a/v9sZnr+jjksLHD8367fW63rvf79fnsc32u75ddT++DRVpaWhoiIiIiIiIiIvLQChgbRERERERERETkwShoERERERERERHJIgpaRERERERERESyiIIWEREREREREZEsoqBFRERERERERCSLKGgREREREREREckiClpERERERERERLKIghYRERERERERkSyioEVEREREREREJIsoaBERERERERERySIWaWlpacZGERERkbzis7khpKT8a2wWEREReSBNWzTGxqaasTmTghYRERHJ0+raNCUpNcXYLCIiIvJApkwZTYcOzsbmTJo6JCIiIiIiIiKSRTSiRURERPK0GyNa+r7blaGe7sZuERERkf8UeyaOlq3eAY1oERERERERERF5dBS0iIiIiIiIiIjco+vXr3Pt2jWz499/by68r6BFREREREREROQepaT8S1JSktmhoEVEREREREREJBsoaBERERERyYviNlPHshCW/3l0Z7Px3AexuTuWloVwe+CLJXA0xJPmdcrcvLcSz9PALZjdCcba3OYap8L64hZ8ythxB9sZXKIQlpbFGLzd2Pc4JbA7qA3DH/gzFskfFLSIiIiIiORFRcrRs0dPemQejlgDWDuatPWkR48WWBnPfeQS2OxWlbr9g9hxrhItMu6tRY1rHAgdhGO51wk6ajwnN9nOGNcQ9icZ2+9g+0pCkkpSsmQS84NWcs3Y/7icCqGf1xbOGdtFxIyCFhERERGRvKhUPUYsWMiCzGMk9gD2I03aFrJgQS9sjec+aken4RF6kZKu33Dur59Zn3Fv6386z8UDE6lOFF6+OShwyFbXWBU0n6Ry7gT0t4b1swmJM9aISE6moEVEREREJJ+7dmod/RrcnLLzbIPuBN9mvk5cmCfNqxfLqCtG9eaehBlDgKQjhLjVp0TmtfreWmN0KoYYoEWPlpQydBWpMYSxLYAt29kNwGbcLAtRJ8g4DcfQvrk7lpa1Cdq9m6BOz2fccxka9FvHKZPE5lRQbSwtuxMWt45+DTLeW4mqdArajfEJJOwOxu2uzynjHqavI8gh/VolarajumVbQoFjXtXS78l466aurWPperB0aUfPnp2xJoqAoCPGKrjxeVS8Mc2qPv3C4ghzK4RlndmY/oiE3bPpdLfPzexZVb39Z7e5O5Y1hnMMCHVJn3L2Xx+rSH6loEVEREREJB+7trkv1Wt0Yum1lgQsXU3o0kBaXFuFh2NV3DbfDBGOBtXH2jWIHZbtCFi6mqUB7bDcEYRr3b5sNgkuQl3rMCbGkYDQ1Sz1akGRAyG4Ovpw15k/tk2wB7bMX2IWgqQrQuf110m69AlNjF3/6RQT3mqM19GWBIWuJmhwDWKWdqKGg3kQAZvpV7cTW6yGsDR0GQEtYL1XY6r325w5iiZhc3eqOw4i9GKT9OcU5EGNc7c+J4BjYzoxocgQlobOxcPjXeaHemAPlHOdS2joXFrcZa5WXMhstmBJzx4NoYY7HtUhJmg2xqVaEjZ3p65rEDtKdiZg6WqC+luyxbU2/baY150Kfp1yjsOJKudOUOhqQoPcKXc0CFfr+obpWOnPavo5FwJCVxM02N78s7MdQWhQZ8oB9oNXExo64pZQTETSKWgREREREcm3jjDBI4RzLRZw7tcv8OjcDpfOQ1j2azxLW1wk1GNa+pfsayvx9doPLZZl1nX2+IJfo0ZgfXEdS8NMgoYWyzgQOQN3l3Z0nriBb72sISaMsLslLVbuLJjvCOv7UaNkIZ5t0IbhQSvZvD/uIacLJXHROpADvy7E3aUd7oHfc2xpCzgwHK9Vple+CC2+4cD6SXR26YLH6hNEeVlzcekgJhwlY42VVVysPpEDx75Kf07uM4g8tpPB1ibP6YZyHqz/dhKdXdyZOKg9TVxaYg2UbNgCF5cm1ChiWmzqFKFBUVBuCP0bAlTiLfcakBRCqFnSknE/dQM5kPF5uAd+z4GwlnDRpOzaSrw8orAevJNjGZ+Ji/sMIk//hJf1fsN0rCSutVid+dm5B37PjoAaEBPGllOAVT1cWjSkJGDdoh0uLvW449sQyecUtIiIiIiI5FdHwwiLgerlYEfYOsIyj+0klCx380v29i2sB1wHdzEfxWA7iWNJ51nW+Wara3/zmhqODYGj7L/bdBmgRs+tnI75ifleLbA+t505Xm642L9ASctit0z3uR+uHw2hhsnrUp2H4Aqs32KaXNRg7Efm05Zs+w+hOjFs2XIKdq8kJAlajDW/FkUaMsLLHmJCCNlv0u7YkoYmL+/Z0WCCjoF1j56Z6+ZUch2CPYZFcW/czwh38/fWciwjqps0bAljPVDDKo4tZp9vDNfKAevDzEbKuHRuZ/YMKlW3BY6y+24hmYjcQkGLiIiIiEh+dWo/x4BjS/vh6trJ7PAIPZcekByFU8f2AzVoaJYy3IGlseHeFbGqR8+JG/jpdCJJF+M5GrWaANdKHMiY7nP/3/dvd881aFgd2H3UZPqQLdUrmRVBpRrYAgd2H4WEiyRRjrq3GYpiZV0JOEdMFixYsj1oNjFY49qz5s1GKxd62GO+KO65iyRRA0db4/3UpK7JysanYtLTny1jzD9bV9dOzIkCOMox0wDsIT47EblJQYuIiIiISD7nGnadpKTbHwtaAg85geeBFClFJdt2eCw7yNEAezgwnOmbjUUPwZhR3Mm91j207YSGJAExBNTNWODWshCWli/gEQWYLIp77Zpxmd67qUHA0Vs/1/TjZzyMAZOIPDQFLSIiIiIi+ZWVNeWAHTv2GXvMVKqePv3n1ikkm+lnWYw60+9+/t2dItihEJYVfTCdfWOqUsYwDdO4J+boOZNXwKmjtxnxcgpjGRxl9zGwbNiQmxlDHOeMI1JOHWU/4OhoC6VKYsk5Dhy9NXCKizkF1MD2IQOLa6tmMz8JrF3nEhq62nCMwJGbi+IWsbbGkqPs2G+8n1McM3mIVuWsgaNsiTLWiUh2UtAiIiIiIpJf2fakhzWcC5qO6Xq2kECYWzEsS7zNqgSgSQveAkLnrDTb8jghLIRVJGFbt55J6/2qRBNHazg3nX6+t26pDHGEBIQA9jjaApSilCUk7d9vtr3w0dBgDpi8TpdESNA6s2ueCp5GKJb0dDVdRWUH05eabqF8je0BH3IMe1xbWEHDLvS0hC0TDNOXru1mekAUlGyB4y1TlO7HNcKWhgH2eAW44+LSznBMYkx/S0iaT9CqazfvZ3qw+f3sT1/j5YYiLj15i9vcN0eYXqcQltWn3THcEpEHp6BFRERERCTfqsmIoM6UTFqFa7na9AteR9iq2fRzqI1raBJ1J06kcymgSBcmBtjCFjeqO3gSHLaOVb5tqOu6iqS6gXzU0njd+1Nj4jcE1IUDAY0pZ1mGBm/1pV+/vvR7qz7PWr5A/y1J1A1YiLsVQEN69CwJUYNw7DSbVWErCXKrTd3pRahbznhlSArtRN2Mew7uV5saHjso6foVHxn2ij42pg513NKv5/tWVVrMv2jyM5vwUWhnSh7zpW71twlatY6wYE8cqjdmTkxJXJeO+4/Fb9PDoWNBvgSHbeeWgTFxIQRtAd4aQs87bP3cxGMI1sD6oBDiaMJHC1zgwHDq1ulO0Kr0z6Oi/XRiTE+68bkd86VuxTb4rlpHWLAPb9Wpw5hjJXENcs9cdPeeFCmJFRAW4MOqsH2PY0KZSK6goEVEREREJB8r1fILju2Yi2vdOJZ6dMK1x3BWxVjRI/Q4kR43F2Wt4fEzMaEe2J4LxsO1Ez0CdlOux2pifhpiMgXnQdXE46d4dgT1xLF6EY5uCWHp0hCWbjlCkbqdCdoRz08m99JwzkFCe9iSsH44PVzdmHC0IaEHltGzpNlFAXCdH4HrtRA8XDvhseoabwXs5Ngy8x2GoAYfhS6gRpQPPVzdCNh96/vPfE4lt+PVoxOuHkEcLdeT+QdOsKyl+dVu1RCPOS6Ui1mFh2szpptt1QxHg6YRhSX9PbrceUmYGkPwsgeilhAWB6U6f0VMaE/qnluFV49O9Ag6R4vQCD4y3XXI5HNzLLKdgB6dcPWYzm5cCNhxL/dtYNWOMYNtYcd0erj2I0ZJi8htWaSlpaUZG0VERETyiro2TUlKTaHvu10Z6ulu7BaRvGpzdyxdVuEadp1ldxlxcyqoNjW8IODowTywMOwRptepwxjb1SQta2fsFJGHEHsmjpat3gHAz28obdo4mfUXLVqUwoULg0a0iIiIiIiI5DJxS2huWYbmwaZ7MwNHwwg5BtUb3teEIBHJYgpaREREREREchOrlvRwvMgOj8Y4DA8mLGwdq4K6U6euL8dKdiagR64fmiOSqyloERERERERyVWs6Ln+OKE9rIiZPwhX10708NpMEde57Dj2Bfe79IqIZC0FLSIiIiIikve0/IKkpLuvzwJQyeMgSUm5cH2WIpVwWfAzpy9dJynpOklJ5/lpmTsNFbKIPHYKWkREREREREREsoiCFhERERERERGRLKKgRUREREREREQkiyhoERERERERERHJIgpaRERERERERESyiIIWEREREREREZEsoqBFRERERERERCSLKGgREREREREREckiClpERERERERERLKIghYRERERERERkSyioEVEREREREREJIsoaBERERERERERySIKWkREREREREREsoiCFhERERERERGRLKKgRUREREREREQkiyhoERERERERERHJIgpaRERERERERESyiIIWEREREREREZEsYpGWlpZmbBQRERHJK+raNCUpNYW+73ZlqKe7sVtE5IHs23eQ2TMWGptF5BGZPH0s5cqVNjZnm9gzcbRs9Q4Afn5DadPGyay/aNGiFC5cGBS0iIiISF6noEVEskPkd7sYOGSMsVlEHpEt33zBc9bPGZuzjYIWERERkQwKWkQkO5gGLXVsqvPkU0WNJSKSxc7/ncBvv8eAghYRERGRx0dBi4hkB9Og5avVwdSuU9NYIiJZ7Os1GxnlPRlyeNCixXBFRERERERERLKIghYRERERERERyVWu/nOVK1eumB05ZcKOghYRERERERERyVX+/fdfUlJSzA4FLSIiIiIiIiIieYyCFhERERERERGRLKKgRUREREREREQkiyhoERERERERERHJIgpaRERERERERESyiIIWEREREREREZEsoqBFRERERERERCSLKGgREREREREREckiClpERERERERERLKIghYRERERERERkSxikZaWlmZsFBERkcfv4sWLnDx5kt9//53ff/+dy5cvG0vyjKeeeopSpUplHiVLlsz872effdZYfl/q2jQlKTWFvu92Zainu7FbROSBRH63i4FDxgDw1epgatepaSwRkSz29ZqNjPKeDMCa5Z/x7AvmvyMUL16cAgWyZzxJ7Jk4WrZ6BwA/v6G0aeNk1l+0aFEKFy4MClpERERyjri4OD755BM2bNjAyZMnSUhIMJbkW0WKFMkMXsqUKcMLL7yAnZ0dL7/8MnZ2dpQsWdJ4SiYFLSKSHRS0iDx6uSVoyZ47EBERkXu2fft2OnfuzAsvvMCECRP45ZdfFLIYXLt2jbi4OI4cOcLOnTtZvnw5Xl5eODk5UapUKSpXrkynTp2YNGkSmzZt4q+//jJeQkREROSR0IgWERGRx+Tq1av07NmT1atXm7V3796dBg0a8Nxzz2UeFSpUoGjRomZ1ecnly5dJSEggISGBixcv8n//93+Zr03/+8brgwcPcv78eeNlzDz33HO88sorRP14kEKWT9HTrSvjJ3gby0REHohGtIg8erllRIuCFhERkcfgzz//pFWrVhw6dAgy/nLu06cPo0eP5vnnnzeWy22cOXOGvXv3snfvXn755Rf27t1LTEyMscxMlSpV6dGjB25uPXjhhReM3SKSjyQmJlKsWDFj8z1T0CLy6OWWoCV77kBERETu6H//+x+2traZIcvQoUP5448/mDNnjkKW+1ChQgXatm3L2LFjWbt2LadOneLChQtEREQwffp03nnnHWrWNP/i89tvJ/D396NatSq0bNmcpUtDuHLlilmNiOQP9erVJTx8g7FZROShKWgRERF5hGbNmkXz5s25cOEChQoVYsmSJcycOZNnnnnGWCoP4Omnn8bJyQkvLy+++OILoqOjqVWtMeXKVaVqlRo88cQTAKSlpfG///2Pfv368sILFejbtw/fffcdGugrkn/88ccfdOjQng4d2vPHH38Yux+rM4v7YFPd8fZHbWec3WYT8WeS8bQMf7PCNb226/K/jZ23uBS9kclubtjXvvEzmmHfagjeyw9xyVicRe76/kyPobuNp2aL9Pvpw5I/jT2mzrLEJZvuaYc/NtUd8dxh7MheSX9G4j90HWduNDym+8iLFLSIiIg8IsuXL2fYsGGkpKRQsmRJtm3bRs+ePY1lksWeeKIQJUs+R/9+Q/jzz1hmz55DkyZNMocWX7lyhWXLltKqVQvq1KlNSMgSUlJSjJcRkTwqPHwDtrZ1mDEjMIf9f9+K1uMnEjTX9PBjdJuqXI5ajUfTEayNN54DxO/k6/3FKFMG9geHEm3sz3SZiFHtadhuMivOlKZx7+HpP2PmeziViSPc730atgogKhvSlsKVnWjfodXNw94KgPL2Jm0dWtHesbTxVMlCUQG+rDyZbGyWLKCgRURE5BFITEzEw8MDgIoVKxIVFUXjxo2NZZLNSpcuzXvvvceWLRHExPzBzJkf8/rrr2NhYQHA8ePH6N+/HzY2Nfj000+5du2a8RIikgdduXIFb+/R1K9vxw8//GDsfkyKYevgQLPmpocTvabOZsPcphRnH3OWHDeeRPSSL9hPPQZ5NYYzYay8wwCM6IC+eKy9QE33T4n8bjYzvNql/4w2rkxetorIBU0pczKM4QHp01yzUlnH7kye6nPzcK8FgK27SdtUHyZ3rGY8VbKToz/Rx3Yww9HYIfdLQYuIiMgjMHLkSP7++28sLCzYvHkz1atXN5bII/bss88ycOBAtm37H6dOnSYgIJCGDRtiYWHB6dOnGTp0CNWqVSEgYDqXL182ni4ieVB09GHefLMJ773nzt9///e0m8elRHMnGgOxf14w9BwnfEMc2Dvg1KY1TiSyckkkt0wyit/I5OA4sPcm2OslShj7gRKO3vg5F6P4mROcNHY+Mjem62wkclxnbKs7YmvnT3jGKJtL+9bh6eqM7Y0pT67+rNhn8uf1Dv/bTwm6Q3vymUj8XZzTpy3ZuTF48X9Pn0r6MxL/u90DQHwk/q7tsc+YEmXfaAD+35699XNJimHt0D4Zdc2wdw0gwjhq6dIhVgwdkDnVy9ZuAJ63meZ192eT/lzdw4EjQTSr7kiHxWdvnTp04zntO8SSgW53v6/4SCa7pX9GNtWd6TAukvhv089fYXz++YCCFhERkWy2Z88e5s2bB8D7779/ywKt8vhZWVnh4TGEHTt2cuDAr3Tt2o0nnniCv/76C19fH6pWrcz48f5cuGD8UiMieU1aWhqLF39OnTovsWTJ4py5dlP0IfYDxUsYdk3avY6VZ6BBR3vKWjrQxRmI+OKWKUbxkRv5CWjt3pqy5l0mLGk2K5zwhe2obOx61MInMziqHt5z/fD0aE2DEnBphz9tOgey8bI9njMnEjTehZpntjG+cw88dzxIOH6CGT182VrWhcC5fox2gK2T3qfNqN23BiIZknYE0KypL2tv3MPM92h8eaf5PSTtxrOVLysvV6XL+IkEzR1OhwpxrBzUheHfml9546C+zDhfD8+5Ewl0r4fl/jA8Os+7Of3r0m48W73P+PBEGnv5ETR3OF1t4tjo9z5thu7ODFv++9mUxsF3Ij1tgQpN8Zs7EW+HO03TimPBwA9YcMkez7kT8etV6/b31c6XkH2FcfLxI2h8K4pH+NLRb5/5pfIRBS0iIiLZrH///qSlpVGqVCk++ugjY7fkMNWr12DJkhAOHYrm3Xf7UKhQIRISEpg0aSJVq1Zm5MgRnD171niaiOQwp0+f5n//+x8bNnxDaOgqQkKWMG/ePGbOnMGkSRON5bf4+++/cXfvz5tvNiE6+rCx+zFJ4tJvkXgP+5JYrOjS7SWz3sjlYVymMV3bpC+w7tCxKXCYryPMR+cc2b0PqIrtY09Q7pU9/qt86NrciV69G1KWvcwYto3zNd9jwyZ/erVxoFm3IYR89yk9K1xgo98Xd1mb5s7Kuy8kcuEAnJs70WvWMta4W3F+7Wd3GJFxnDl+YZxv5k3kjXto48qMTWsJbGZyD7s3svFyRTznBjC8mwPNmrfDO3QiPSsUJipin3mI08ybDcuG0LW5A85eAQS7W8GZnez8Lb07KmA8G89XxXPjMmb0dkq/1rKVLO9lxfnwQOZHA/f0bCyp3NCBxhWA4i/h0NwB+yqWpndiIpEke7/M++rqO5sVPlXhTBRRGc/lxn2NXpdxX92GELJpOg3Iv/84oaBFREQkG3311Vfs3bsXgIkTJ/L0008bSySHevHFF5k37zOio4/y3nvvQcY6Dh9/PItKlSri7t6fU6dOGU8TkUcsLS2N48ePERq6Ch8fb9q0aU2FCs9lbuPesWMH3Ny6079/Pz74wIPRo0cxfry/8TJ39MMPP1C/vh0ffzzL2JXNTjClqXEnnuY0bO3L1/FV6blgIcNtTMqTIlkZDjRrjdON78yO7ehS/DaL4iYBVKTy86aNwJ+hdDDu/HObKTaPXM2G2JvOb9q3lfDL4PReJ/PRNpYv0c+9FpzZRvh9Jy216N/LfE0Ymw7teJETfB1xm3D9tyi2noEXi0PUt5FEZB77uFTY6mYQUdaK8pwmZNI8In+7nBGsvIT3dxFETW2IabzRuoOT2TQuG/tawGmizwAcInxDIjTrTs8qJkVYUs+9O7bEEb7heLY8m8ZtHMzuq0LlisAJ9p/E7L66mt5XiYYM7lXRpCF/UdAiIiKSjfz903+ZL1++PP369TN2Sy7wwgsvMHv2HE6f/hNPz+EUK5Y+VH/JksXUqfMSo0eP4uLFi8bTRCQb/fXXXyxZshg3t+5UqPActWu/hJtbdwIDA4iIiOD8+fPGUx6YhYUF3bq9Q5cuXY1d2cx01yE/RjtXpDCFqdl1Ojv2LMLbsbhZdfyaL9gKOHWwN/ny/jLObYrdYVHc05w0BiiWFXE22fXHqaZhalJOcSmRy1jxYuVbR2GUrWAFxHHGuIbIf7KignEeVZWq1ATOnLzNyIwzx/kd+H3tZDwG+Zod48PjgBMcOQnYdGdyr4pcivwS99ZtqJexPfeK3bdZo+XWt2MikUuXoXzlireWlbWi/I01e7Lj2dx6KRMXuHQZXrStektZZZuqhpb8Q0GLiIhINtm4cSMHDx4EwMvLi8KFCxtLJBcpV64ckydP4fjx3/Dx8aVkyZIkJyczc+YMbGxq8NlnnxlPEZEstH37dkaNGkn9+na88EIF3N37Exq66pZFa6tUqUrnzl2YOnUa4eGb2LlzF7/8spfo6KPExPxBfPzfJCVdNzvnTl5++RW++247CxYsxMoqfQviR8d016H0qSxrfSpyZMUIOpqsx5Hub7auSZ/etHVQc7MRKb1WJIJhUdyajvVMRiSYKNuQ/ia7/nh3vMt7vu3ol9scLqGcMZ6byxQvcee/v1sv2EH0sdsfkx0BimPvu4z9vy5lyfh3cLIpzPmo1Yzv0YVmt3yOuVBSMtog+lYKWkRERLLJjfVYSpUqxYABA4zdkkuVLl0aPz9/Dh8+Qv/+/XniiSf4+++/GTJkMHXr1mHjxnDjKSLygC5cuMCMGYHUrFmdFi2aMWvWTH799UBmf8mSJXF2bsOkSZPZtGkL589f4PDhaJYuXcbQocNwcnKiQYMGvPRSbSpXroyVlRUlStxujx1zzzzzDHPnfsKuXT/w2muvGbsfm8q9PybYuTTnw0fQa3HMzY7oUObvB+zfyRgBY3oMp30F80Vxyzo4YQtsXLH1wb/oP+/Cku/XsuO/jmUuVDCe+7BKFKM4cfx+8pYxIcSfiQMqYpP5Q+P43TDA6czJ0+YNAFzgvHGkx28nOAJUqHybhWIzRpHsj7p1i+3bsrTGvtsA5oR+TdSvawl0Lsb58C/YavyZd1SMEsUh9uTpW0fCxMcRC7xoY3WfzyYLWFpRpjj8vv/ELfd1++ecPyhoERERyQaRkZHs2rULAE9PT4oWLWoskVyuTJkyzJnzCT//vIemTZsCcPToEdq3b0fr1i05fPiQ8RQRuUfff/89vXv3olKlinh7j+b3338H4Omnn6Zt27eYNm06P/64m7i4v1i79muGD/fizTffpHhx8+k098vCwoIePXry66+H6NevPwUK5LSvS8Vx+NCb1mXgyKTxmWunRG/YRizF6OIxIGMEjOnRDk/3WsBh5i/JCAXKtmOST1WIGE+vgFu3BgZI+nMjgcEnjM0mLClR9hnK/tdRwjihJAvUc8K5OGz9bLX51tNJh1gQfBjK2NOgyo1AJpEj0aajnmIIX3O797WPkDUm4RWXiQwK5Xdq4eyQvriwGRsnnCtA7PIviDB7gJeJGOqMjZ0P4Zfg5OIh2NcewArTQMXyGcqXvd9pWS+lTwOL+IKQjMVx0yWxL/gL9lMah4bW9/5ssszN+1phdl/HWbHkds85f8hpf3KIiIjkCZMmTQKgWLFieHh4GLslD6lV6yU2btzMmjVrqVatOgDbtm3Dzu4V3n9/AH/99ZfxFBG5g2XLlvLKKy/TtOkbLF/+JUlJ6f9G7uDgwIoVK4mL+4uvvlrDBx8M5eWXX8nSIMR0mtAzz9zmi3VOUaIh/uObUpwTTBkYyhn2snJ5HFRwoUtDY3G6sh274wTELl9HVEZb5d4fs6RrRY4Ev09Duz4MnhhK+LeRRCyfh6dbe+o1nczG86Vp7DOcDsZFcx+7l/Gc2ZQyRz6jTSt/lmyIJGL5bHq++T4hZ0rTesq71AOo1xrnMrDf7wM8F28lYkMonq36EkJVyhsvSWnOL+mL89BQwr9dx2S3HriHX6CmjzddjWu3AFCN/uObUubyNjwaueG/PJKIDaF4u/XAIzyRmh7v4VwCKjdzoELyYca3G4L34q1EfLuVJaMG4LEkjjIduuN822vfnr2XH63LnGBGa7f09/PtOia7daHbkjjKOHszqB73/mxubA9+JJTA5ZFE/WYcj3Lv7L28cSp8gintMu5rwzz6N+rLgtw+Z+whZN2fTCIiIgLAwYMH2bRpEwDvv/8+pUqVMpZIHtSmTVv27dtPQEAgTz/9NKmpqSxatBAbmxpMmTKZa9euGU8RESApKYng4GBq1qxO3759OHQofW2rJ598kr59+7Fv334iIrbRoUNH46lZIqdOE7qbEs2HM8m5GBwJYtSEL1h5GWzdXTHdhMiMpQM9uxaDy9sIz1wUtzj2Hy5j38bpjHYozP41QQwf5IuH35fsPGmFk7s3a37+mvm9XzLbcSanKOHoz4ZVw2ldPIoZw3zx8AvjSAUXJm1cyozMhYJfwn/dRLrYXmDrpPF4jPqcWHs/1sxsfZv3VA+/pcOpfORzhg8KJCS6NK2nLGVFb2tjYabMe7C5wFo/XzyGBbH1pBVd5q68ed7zrqzY6E3rCqfT72HQeKZEJGLr8ykbDLsO/acSDZmx6VP8nIuxM2A8HoMCWRFtRZcpS9kwq2Hme7q3ZwP1enngVOECG/186RW8L7P9vpVwYM53E+lik/Gch4VxvtlElgzPv4vhWqSlpaUZG0VEROTBubq6snr1agoXLsyff/5J2bL38c9VkuXq2jQlKTWFvu92Zainu7E7W1y4cIEJE8YTHBxMSkoKZOxeNGHCR3Tt2g0LCwvjKSL5zpUrV5g/P5jAwACzkV/PPvssQ4cOo2/fftkaVBctakn//v3x8xv/QCNYIr/bxcAhYwD4anUwtevUNJaI5GsnP3OjTWBVgo7508zY+YC+XrORUd6TAViz/DOefeFZs/7ixYtn6Ug3U7Fn4mjZ6h0A/PyG0qaNk1l/0aJFMzc+yJ47EBERyaeOHz/OV199BUDfvn0VsuRTpUuXZubMj/nll720bNkKgD/++IPevXvRqNGrmev3iORHCQkJTJjwIVWrVmbUqJGZIUvlypWZM+cTTpw4yfDhXtkasgDs3LmL2bPnPFDIIiI3/M1at2bYu60z7C4Vw9YNp6HmS3ceaZWHKWgRERHJQpMmTSItLY2CBQsyatQoY7fkMzVq1CQsbD0bN26mRo30f+3+5ZdfePPNJnTr1pWTJ417q4rkXefOnWPUqJFUqfIiH300gQsXLgDw0ku1Wbx4CYcORdO/f38sLe9rMsUDs7OzMzaJyH17hsYda3E5KpCubrNZ8W36WjWerfoy40hpWnu1yvpdp3IBBS0iIiJZJDY2lmXLlgHQrVs3rK3vPK9b8pemTZuyd+8+Zs2anfmv52vWfIWtbR1Gjx7FxYsXjaeI5Bm///47gwcPpFq1KsyaNZPExEQAGjRowOrVX/HLL3vp1u2dbBvuLyLZq2zH6UTMdaHCyU2MH+SLx7DP2Fm8MX6rzNeEyU/0p5mIiEgWmTx5MikpKVhYWDB27Fhjt+RzTzzxBO+//z7R0Ufx8BhCoUKFSE5OZubMGdSqVZNPP/2Uf//913iaSK4VHX2Y3r178dJLNsyfPz9zB6E333yTjRs3s3PnLt56y8V4mojkOpZUaO7Fil3hRB/bQfSxCKJC/elaL3+GLChoERERyRrx8fEEBwcD0L59e6pVq2YsEQGgZMmSBAQEsm/fftq0aQvA+fPnGTp0CC+/XI+NG8ONp4jkKnv27KFTp7d5+eV6LF/+Jf/++y8WFha0bfsWu3b9yKZNW2jatKnxNBGRPENBi4iISBaYMWMGycnJAPj6+hq7RW5RtWo11qxZy7ffbqVWrZcAOHr0CO3bt6N165YcPnzIeIpIjvbdd9/RunVLGjV6lfXrw0hLS+OJJ56gW7d32Lt3H199tUbroohIvqCgRURE5CElJiYyZ84cAJo3b64vEnJfHB0d2bPnF+bM+SRzl6pt27ZhZ/cK778/wGzbW5Gc6Jtv1uPg8DqtWrVg27ZtAFhapm+dfOhQNIsXL8HGppbxNBGRPEtBi4iIyEP6+OOPMxd39PHxMXaL/KcCBQrQv39/oqOP4uk5nMKFC5OamsqiRQuxsanBlCmTuXbtmvE0kccmNTWV5cu/5JVXXubttzsSFRUFQLFixRg6dBjHj//GnDmf8OKLLxpPFRHJ8xS0iIiIPISrV68SEBAAGVuFvvHGG8YSkXtWvHhxJk+ewv79v9K+fQfIGDHl5zeO2rVrsXz5l6SlpRlPu6vt27cbm0QeWFJSEvPnz+ell2zo3bsXhw4dBKB06dKMGTOW3377nalTp1GuXDnjqSIi+YaCFhERkYcQHBxMQkICAH5+fsZukQdSuXJlVq5cxXffbaduXVsA/vjjD3r37kWjRq+ya9cu4ym3Va+eLePGjTE2i9y3K1euMGvWTGrWrM7gwQM5efIkAM899xxTpkzlxImTjB07jlKlShlPFRHJdxS0iIiIPKCUlBSmTZsGQO3atWnbNn0HGZGs0qhRI6KifuKzz4KxsrIC4JdffuHNN5vQrVvXzC+7dxIdfZgff/yRVatWGrtE7klCQgIffTSBqlUrM2rUSGJjYwF48cUXCQqay9Gjxxk2zJOnnnrKeKqISL6loEVEROQBLVmyJPNLh4+PDxYWFsYSkYdmYWFB797vcvjwEUaOHEWRIkUAWLPmK2xt6zB69CguXrxoPI3nny+f+d9jx47RGi9yX86dO8fo0aOoUuVFJkz4kAsXLgBQq9ZLfP75Yg4disbd3R1LS0vjqSIi+Z6CFhERkQeQmprKhAkTALC2tqZLly7GEpEs9dRTTzFhwkccOHCQTp1cAUhOTmbmzBnUqlWTTz/9lH///RcAX18f4uPjM889deoUQUGzM1+L3Mnp06fx8BhEtWpVmDlzRuZC3w0aNCA0dDW//LKXd97pzhNPPGE8VUREMihoEREReQChoaHExMQA4OvrS4EC+itVHg1ra2u++OJLIiO/55VXXgHg/PnzDB06hJdfrsfGjeG3DVWmTZuqraLljo4dO8q77/bGxqYGwcHBJCUlAfDGG28QHr6JnTt34eLSTiP3RETugX4rFBEReQAfffQRAOXLl6dXr17GbpFsZ29vzw8/7GbRos957rnnADh69Ajt27fL/JJs6tKlS3z4ob+xWfK5PXv24Oraibp16/Dll1+QkpKChYUFbdu+xa5dP7J587c4OTkZTxMRkbtQ0CIiInKfNmzYwMGD6Vuaenl5UbhwYWOJyCPTvbsbhw8fwdd3DEWLFjV2m1m0aBGnTp0yNks+9L///Q9n51Y0avQqYWHrSEtL44knnqBr127s3buPr75ag52dnfE0ERG5BwpaRERE7tONbZxLlSrFgAEDjN0ij9yTTz7JuHF+1KxZ09hl5t9//2XMGF9js+Qj33yzHkfHxrRs2ZytW7cCULhwYfr168ehQ9EsWRKCjU0t42kiInIfFLSIiIjch+3bt7Nnzx4APD09/3MEgcijtHfvXmPTLUJDV/Hjjz8amyUPS01NZcWK5djZvcLbb3dk9+7dkLHA8gcfDOXYsRPMnfspL774ovFUERF5AApaRERE7sOkSZMAKFasGB4eHsZukcemevWqxqY7GjVqhLFJ8qDr16+zYMF8ateuRa9ePTl48FcAnn76aXx9x3Dy5CmmTZueucaPiIhkDYu0tLQ0Y6OIiIjcas+ePdSvXx+AkSNHMnXqVGOJ5EB1bZqSlJpC33e7MtTT3didJ0yfPu2+pwQtXbqMzp21LXledOXKFRYsmM+sWTOJjY3NbLeysuKDD4by3nsDeOqpp8zOkfsX+d0uBg4ZA0DXzm/x7LNljCUiksUORx8nYutOANYs/4xnX3jWrL948eLZthNk7Jk4WrZ6BwA/v6G0aWO+UHjRokUz1+1T0CIiInKP3n77bdasWUPhwoX5888/KVu2rLFEcqD8ELSULfsMly5dMjbfVaVKldi//1eKFCli7JJcKiEhgblz5zB37hz+/vvvzPZKlSrh6elF7969sbS0NDtHHpxp0CIij15ODlqy5w5ERETymOPHj7N27VoA+vbtq5BFcoxBg94nJSWF0qVLU6FCBapUqUKtWi9hZ2fH66+/jpOTE23atOXttzvRvbsb/fr1Y9Cgwbz9dieFLHnEuXPn8PYeTdWqlfnww/GZIYuNTS0WLfqcw4eP8N577ylkERF5RDSiRURE5B706tWLkJAQChYsyIkTJ7C2tjaWSA71OEe0fP/9z5w/H29sFskSSUlJrFq1kh07dpi1W1tb07ZtW+rVe9msPbs9+2w5XnvtFWNzvpKSksKVK1eMzSLyiOSUES0KWkRERP5DTEwMVatWJSUlhR49ehASEmIskRzscQYtA/uPJvLHKGOzSJ70RuOGBH062dicryhoEXm8ckrQkj13ICIikodMmzaNlJQULCwsGDt2rLFbRERERCSTRrSIiIjcRXx8PM8//zzJycl06NCBNWvWGEskh8sJI1psalRh7ifpW4OL5DXvD/Dm6PGTGtGiES0ij11OGdGioEVEROQuRo0axbRp0wD4+eefsbOzM5ZIDpcTgpZ6tjasXPWZsVskT+jUsR+/HjqmoEVBi8hjp6BFREQkh0tISOCFF14gMTGR5s2bs2XLFmOJ5AIKWkSy142gxbFRA2YGTTDrK1CgAAULFjRrExHJje4naMmeqEdERCQPCAoKIjExEQAfHx9jt4iImEhLTeXq1atmR1JSkrFMRCTPU9AiIiJyG1evXmXGjBkA2NnZ8cYbbxhLRERERERuoaBFRETkNubNm0dCQgIA/v7+xm4RERERkdtS0CIiImKQnJxMQEAAALVr16Zt27bGEhERERGR21LQIiIiYrBkyRJiY2NBa7OIiIiIyH1S0CIiImIiNTWViRMnAmBtbU2XLl2MJSIiIiIid6SgRURExMTKlSuJiYkBwNfXlwIF9FeliIiIiNw7/fYoIiKSIS0tjUmTJgFQvnx5evXqZSwREREREbkrBS0iIiIZvvnmGw4ePAiAl5cXhQsXNpaIiIiIiNyVghYREZEM48ePB6BUqVIMGDDA2C0iIiIi8p8UtIiIiADfffcde/bsAcDT05OiRYsaS0RERERE/pOCFhEREchcm6VYsWJ4eHgYu0VERERE7omCFhERyff27NlDREQEAAMHDqRUqVLGEhERERGRe6KgRURE8r2PPvoIgMKFC+Pl5WXsFhERERG5ZwpaREQkXzt+/Djr1q0DoF+/fpQtW9ZYIiIiIiJyzxS0iIhIvvbhhx+SlpZGwYIFGTlypLFbREREROS+KGgREZF8KyYmhi+//BKAbt26YW1tbSwREREREbkvClpERCTfmjJlCqmpqVhYWDB27Fhjt0gOdRbP6o7Y/OfRhyV/Gs99ELvTf97Q3caOe3SZk2tm07OVM7Y37s2uPV2HrmPfJWNt7pP0ZyT+Q9dxxthxB5f2rcPbzQ372hnPorYzzm6zifgzyVgqIiK5lIIWERHJl+Lj41m0aBEA7du3p1q1asYSkRyqMA4dWtE+82hMzeJA8ao4mbU7UdnSeO6jdpnIoT1oM3o1++MrZt63U+VkosMD6dZoAEt+M56Tu0QF+LLyZLKx+TYuEzGqPQ07BxJ+viJdfCcSNHcifr3rwb7VeDTtgueOy8aTREQkF1LQIiIi+dK0adNITk7/cuTr62vsFsnBnqHDVB8mZx4etK8AVGiNt1l7dxwe99rO0V/gH36BMs7TidwzjzkZ9zYnNJyoje9RM/kwUwIjyQ9jOU5+9gEeay9Qc/hSojZNYng3B5o1d6Cr1yTCd31Kz5oX2NjPl7XxxjNFRCS3UdAiIiL5TkJCAnPnzgWgefPm2NnZGUtE8oaks0SMG5A5TcXWbgCeyw9hnLFzad86PF1vTO1phr2rPyv2GUdXJHNyjT8d7G5ey//bvw01BvFxxAINOjakhKHLskon+jcDdu9mPwBnWeJyuylKxvb0qUwdFh9i32IfnGrfuOcA8+k3O/zTp0/tO8SSgZ3T31ttZ7qOi+SMMdm5dIgVQ+/2nG7cw0Yix6Vfy9ZuFKPbOuIeDhwJoll1RzosPmt22UxJkcwIPAG2wwl+z5pbBhqVeAlvXxfKFL9AVLTJc3+g+/InPKPg0r5QBrdyzphKljFFSUGOiEi2U9AiIiL5zscff8zVq1cB8PHxMXaL5A1Ju/F/swseaxJp7OVH0Fw/PB0S2er3Pm2G7s78sn5phz9tOgey8UxVuo6fSNB4F2qe2cb4zh+Yr/ES7kuHgAvYe00kaOY72FseZuWg9wmMNqkxsnkZW+CnFRtvDTewxPmTHUTv8cLe2HUPzgT70i3gNA6+6fdc+UwYHk3fN6xLE8eCge8z46Q93nMn4tetImdW+NLMNfTmmiqXduPZ6n3Gh994TsPpahPHRsNzAiB8MoOj6uE91w9Pj7foNHYiPW2BCk3xmzsRb4fSptWZkiI2shVw6t2KOw4yauhF5J5lTHYsnv76ge+rNQ1KwJnlA3DoHMT+Mq3wmzuRoPGtKHNyNR6v98n107VERHI6BS0iIpKvXL16lVmzZgFgZ2fHG2+8YSwRyROigwJZeb4xk3YtY0ZvJ5o1d6LXrGVEzmzM+fBA5kcDHGe+3zbOV3iHNbtm493NgWbdhhCyyQ+nwnGs3HDc5IqNmbwpo6bNAOYvfIfyxLF1R4xJjUHZdkyaYg8Rk2lWpxn2rj5MXryVyOi/H3q60OXzpRm9bhn+Gfe8YpMfTpxgyiTTqUiJnC/jwdpNXnRt7kBX33lsmNkYjgQx+dv0qqiA8Ww8XxXPjTeeUzu8l61keS8rk+d0gz3+q3zo2tyJXr0bU7+hA40rAMVfwqG5A/ZVbhmrAsCZP08DFbGtefv+23nw+2pI2aRIJvsdpkyvT4lYNoSuzTM+110L6VfhRL6ZriUi8rgoaBERkXzlk08+ISEhAQB/f39jt0geEcPOiDioXAx2RxLx7c0j6lJhyhPHzt1n4c997DwDNXu1w8b09BJOzDkYTvh7JotEO7fG2XT+T8Zold+j40wab1W5YwAR3y9kkrs9lc/sI2TSeNzbdaBedWc63G4az71yfo9eVUxel3CiizMQEUmUSXNrL1cqm5a1aUdrYGvEPuAQ4RsSoVl3eppeC0vquXfHljjCTcOmmg2xN86Bugdnok8DhSl8zznLQ97Xjq1spTCVy1wg0uSzj/g2juQyQMTWe94lSURE7p+CFhERyTeSk5OZOnUqALVr16Zt27bGEpE8Io7ok8DJTfgM8sXD9PDbRixwJPo0nDzOEeDFys8ZL3AbhY0N98yybDU6eE1ixa5won/dQMS6iYx2Ls3JjGk8J40n3IOa9Soam6hcrypwgpOZ04eqYmuaskDGyBIg+jRnSOTSZShfueKt66aUtaI8EPvnBWPPfUu/r2SS7zlUerj7OnPmNJDMzkDDZz/Il5D9AKe5ZFyoR0REsoyCFhERyTc+//xz4uPTV4LUTkOSLzhPJ/rYjtsfUxsC97ItcRazLE4FGwd6zVpGuE8tOBLE/B3GorylQuWKwGn2H7lL0pK0lcF27ekacCiLpvVUZfS223zux3YQfWwR9R5gZI6IiNwbBS0iIpIvpKamMnnyZACsra3p3LmzsUQkDylNhQrA/r3cba1aKr9ETeD3k8bdcs6yxKUZ9kO33rJD0b07ywpXR2zenHfHe6hgU5XCYB4snL+A+cY4pzlyxKwBgDMnbx3RcXLfCSheC9vnb7TE8ft585r0wAOK16tFBYpRojjEnjx9a7iRsWPSizZWxp7719AJJ2Dr4k2G93bTpYitbL18ASpYYfmQ91WmrBVwgp/233K2iIg8AgpaREQkX1i+fDkxMemLdvr6+lKggP4KlLysGs5trOBMGPO/Nd+m+dK3/thXd2bwhsvwfD0aV4AjS9aZhyG/bePrI8lUqFfrlm2Z791z2Da0gjNf4hNw65bS8Ddrl2wjmVrY2wAUpkQJIPoQv5tUXfo2fcceo8sbQokwveif65gfDsXbOFEvszGR8MWRZj/7zPIv2EgxnNu8BLyEc5tiEPEFIWY78SSxL/gL9lMah4bWph0PxtKBQe5WsD8Q989ibhOebMVn4k4o04pBHZ956PuybNY6Pdj5bLVhWlYM810csW31xR0DHxEReXj6LVNERPK8tLQ0xo8fD0D58uXp1auXsUQkz7FxH07rMolsHNQB53HriPh2K0tGDaHNoG1crvkunm2KA9XoP74pZc58ScdW/izZEEnE8gCc233GkTKt8Ox2L2u33JmN13RG14Qjwe/TsLYzXQdOwnvUJLwHDsC+dgd8IhKp6eNN17IAz9C4Yz24HMZw19ms+DaSFROH0GbYaSrUNF4ZuLwNj1ZDmLw8455bBfJTmaYEer1sXhbuSxu3jOuNc8PZbx9lnP3wbJjeb+/lR+syJ5jR2g3PxVuJ+HYdk9260G1JHGWcvRl0M7W5reIlisGRUAKXRxL12y0RSiYbr+lMcijNkcAe2LfyIXB5ZOZn4vD6eLaer8ropT44ZCzK8lD3ZemAp09VOPIZbRp5Ebghkojl8xjcqi8zjpTGycflzttMi4jIQ1PQIiIied769es5fjx9hw4vLy8KF37wRT1Fco0SDZmx6VP8nKtyfk0gHoPGMyXiNBW6TiQi9OZOPCUc/dmwajiti0cxY1j6Yrk4erB8080v/Q/Oml5hG1g+vhUNni/MyYhNfL12E19HnMbSpil+qzawtvfNkRllO05kuU9jip9czfhBvsyILEa/ZR/jecuCtoCzN0vaJLN2ouk9++NgGILTesrHOCdtYvIgX8ZvAAefT9kwq+HNkTqZz6kYOwPG4zEokBXRVnSZstS87g7q9fLAqcIFNvr50it4n7HbhDUdFq4kYm4nbDnMSj/fm5+J83CW/7zIsIvSw91X5d6L2DG3Ew1KHGbBMF88/FYThT2jVy1lhmNxY7mIiGQhi7S0tDRjo4iISF5Sv3599uzZQ6lSpYiNjaVo0aLGEsnD6to0JSk1hb7vdmWop7uxO1sN7D+ayB+jqGdrw8pVnxm75YHsxrP6CDY6Tyd6VsawlNvZ4Y9Nv220XrCDGY7GTslKnTr249dDx3B41Y7JAWPM+goWLMhTTz1l1iYikhvFnomjZat3APDzG0qbNk5m/UWLFs38xzyNaBERkTxt27Zt7NmzBwBPT0+FLCIiIiKSrRS0iIhInjZp0iQAihUrhoeHh7FbRERERCRLKWgREZE8a8+ePWzdmr5fycCBAylVqpSxREREREQkSyloERGRPGvChAkAFC5cGC8vL2O3iORKDZlxbMfd12cBcPQn+pjWZxERkUdPQYuIiORJx48fJywsDIB+/fpRtqw2MxURERGR7KegRURE8qTx48eTlpZGwYIFGTlypLFbRERERCRbKGgREZE8JyYmhuXLlwPQrVs3rK2tjSUiIiIiItlCQYuIiOQ5kydPJjU1FQsLC8aOHWvsFhERERHJNgpaREQkT4mPj+fzzz8HoH379lSrVs1YIiIiIiKSbRS0iIhInjJ16lSSk5MB8PX1NXaLiIiIiGQrBS0iIpJnJCQk8MknnwDQvHlz7OzsjCUiIiIiItlKQYuIiOQZs2bN4urVqwD4+PgYu0VEREREsp2CFhERyROuXr3Kxx9/DICdnR1vvPGGsUREREREJNspaBERkTxh7ty5JCQkAODv72/sFhERERF5JBS0iIhIrpecnMy0adMAqF27Nm3btjWWiIiIiIg8EgpaREQk11u0aBHx8fGgnYZERERE5DFT0CIiIrlaamoqU6ZMAcDa2prOnTsbS0REREREHhkFLSIikqt9+eWXxMTEQMZolgIF9FebiIiIiDw++m1URERyrbS0ND788EMAypcvT69evYwlIiIiIiKPlEVaWlqasVFERCQ3+Prrr+nQoQMAM2bMYNiwYcYSEeraNCUpNYW+73ZlqKe7sTtbDew/msgfo7CpUYVPPp1s7BbJEwa8583R47/h8KodkwPGmPUVLFiQp556yqxNRCQ3ij0TR8tW7wDg5zeUNm2czPqLFi1K4cKFQUGLiIjkZvXr12fPnj2UKlWK2NhYihYtaiwRyRFBi0h+oKBFRPKy+wlaNHVIRERypYiICPbs2QOAp6enQhYRERERyRE0okVERHKlpk2b8t1331GsWDH++OMPSpUqZSwRgcc8ouX773/m/Pn0rcdvSE5OJjU11awtJzp27DhffrmMv/++kNnWrJkT7dq1N6uTxycpKZmwsK/ZsSPSrL1ixYo0b96cevXqmbVntzJlylK/fh2zNo1oEZG84n5GtChoERGRXGfPnj3Ur18fgJEjRzJ16lRjiUimxxm03M6VK1dISUkxNucY165dw99/HJ9//jk3fk2sWLEin3wyD3t7e2O55ADx8fF88slcFi/+nCtXrmS216hRkw8++ICOHTtSoMATZuc8Kgpass/cWQuZt/ALY7PIIzN98hhatW1qbM6z7ido0dQhERHJdcaPHw9A4cKF8fLyMnaLyAOKioqiceNGLFq0iLS0NCwsLOjXrx87d+5SyJKDlS1bFj8/f/btO8CoUaMpXbo0AEePHmHgwPdp2NCexYsXk5ycbDxVRESygUa0iIhIrnLw4EHq1q1LWloaAwcOZO7cucYSETMa0fLfrl27xocf+rNw4UKNYskD/vnnH0JClvDJJ3OJi4vLbLeysmLAgPfp3ftdnnzySbNzsotGtGQf0xEtHoN6G7tFskVCwiWWfrEGNKLlriNaFLSIiEiu8s4777B8+XIKFizIiRMnsLa2NpaImFHQcndRUVEMHDiA06dPA2BhYUHfvv0YN86PIkWKGMslF0lOTmbFiuXMmRPEqVOnMtuffvpp+vXrj7v7e5QsWdLsnKymoCX73AhaCvIEh45+Z+wWyRa/nzxNq9ZuoKBFQYuIiOQNMTExVK5cmdTUVHr27MmSJUuMJSK3yGlBS0pKSo5YDPfq1auMGzeGzz77LHMUi7W1NQsWLOTVV18zlksulpqaSmjoKmbMmMHhw4cy24sVK8a77/Zh6NBhPPvss2bnZJUCBQpQsGBBY7NkAQUt8jgoaFHQIiIieYy7uzvz58/HwsKCo0ePUq1aNWOJyC1yWtCSE+zatYt33+2VOcqhQIECDBw4iI8+mqit0vO49evDmDZtKlFRUZltlpaW9OzZk5EjR1OxYkWzesm5FLTI42AatHw4djhNWzY263/yyScpVKiQWVtecT9BixbDFRGRXCE2NjZzBEv79u0Vsog8gKtXr+LpOYymTd/IDFmqVKnK1q3fERg4QyFLPvDWWy5ERn7Pxo2befPNNwFISkpi/vz51KxZnd69exEdfdh4moiI3AcFLSIikisEBARk7pjh6+tr7BaR/7Br1y7q1avL3LlzSEtLo0CBAnh4DOGXX/bSqFEjY7nkcU2bNmXTpi3s2vUjbdu+hYWFBf/++y/Ll3/Jyy/Xo1Ont9mzZ4/xNBERuQcKWkREJMdLSEhg3rx5ADRv3hw7OztjiYjcwbVr1/DyGo6T05tmo1i2b48kICBQC97mc3Z2dnz11Rr27t1H167deOKJJ0hLS2P9+jAaNXqV1q1b8t13mpYiInI/FLSIiEiON2PGDK5evQqAj4+PsVtE7iAqKopXXnmZoKDZpKamUqBAAT74YCi//LJX2zaLGRubWixZEsKhQ9H069cPS0tLALZt20arVi1wdGzMN9+sN54mIiK3oaBFRERytMTERIKCgiDjX17feOMNY4mIGFy7do0RI7xo0sSB3347ASajWKZNm65RLHJHL774InPnfsrRo8f54IOhmVsz7969m7ff7oid3SusXLkiR+ycJSKSUyloERGRHO2TTz4hISEBAH9/f2O3iBjcGMUye/bHmaNYhg4dplEscl+ee+45pk2bzsmTp/D1HcPTTz8NwMGDv9KzZw9q167FwoULuH79uvFUEZF8T0GLiIjkWMnJyQQEBABQu3Zt2rZtaywRkQzXrl1j5MgRtx3FMnXqNI1ikQdSqlQpxo3z47fffmfy5ClYWVkB8NtvvzFw4PtUr16V2bM/zpzeKSIiClpERCQHW7BgAfHx8aCdhkTu6sYolo8/npU5imXYME+NYpEs89RTT+HpOZxjx04we/YcKlWqBEBsbCwjRnhRpcqLTJo0kYsXLxpPFRHJdxS0iIhIjpSSksK0adMAsLa2pnPnzsYSkXzv2rVrjB49ymwUS/XqNdi+PZIpU6ZqFItkOUtLS9577z0OHz7CokWfY2NTC4C///6b8eP9qVLlRXx8vDl37pzxVBGRfENBi4iI5EhffvklMTExAIwZM4YCBfRXloipG6NYZs6cQWpqKk888QTDh3uxZ88vGsUi2e6JJ56ge3c39u7dx6pVodjZ2QFw+fJlAgMDqF69Kh984MHp06eNp4qI5Hn6rVVERHKctLQ0PvroIwDKly9P7969jSUi+VZycjLe3qN54w1Hs1EsO3d+z6RJkylcuLDxFJFsY2FhQbt27dm160c2bNhIkyZNIGO01bx586hZszqurp2IiIggLS3NeLqISJ6koEVERHKctWvXcvz4cQC8vLwoWLCgsUQkX/rllz3Y2b3CjBmB/PvvvzzxxBN4eY1gz55feOWV9BEFIo9Ls2bN2LIlgh07duLs3AaAf//9l7CwdbRp05qXXqrFxx/PytxJTkQkr1LQIiIiOc6kSZMgY7eLAQMGGLtF8p3k5GR8fLxp3Ph1jh07CiajWCZOnKRRLJKjNGzYkLVrv+aXX/bSp0/fzPbffjvByJEjKFeuLP369SUqKsrsPBGRvEJBi4iI5Chbtmxhz549AHh6elK0aFFjiUi+cmMUS2BgQOYolpEjR2kUi+R4L71Um08/ncfZs+cYP/5Dypcvn9m3dGkIDg6v8+qrDfn880XaHlpE8hQFLSIikqPcGM1SrFgxPDw8jN0i+UZycjJjxvjedhTLhAkfaRSL5BqlS5dm9Ghvjh07wZIlITRo0CCzb+/eXxgw4D0qVarI8OGenDiRPm1URCQ3U9AiIiI5xp49e9i+fTsAAwcOpFSpUsYSkXzhxiiW6dOn8e+//1KwYEFGjRqtUSySqxUqVIiuXbuxc+cutm+PxNW1c+YaXAkJCcyZE8RLL9WiQYP6jBs3lh9//JHU1FTjZfKMG6M3RSTvUdAiIiI5hp+fHwCFCxfGy8vL2C2S5yUnJzN27BizUSy1ar3EDz/8yIcfTtAoFskzXn31VZYt+4KYmD+YMWMWDRs2zOw7cGA/U6dOoUkTB55/vjzvvtubVatWcvHiRbNr5HaNGzdi2LChXLp0ydj1mJ1liYsjNtVvc9i1p+vQUKLizc84s7gPNtX7sORP8/Zc69IhlvSdR2Rmw248qztiM3S3Wdn9SH9Gt3mmxuMhfoZR+s/0Z5+xQ7KdghYREckRDh48yIYNGwDo168fZcuWNZaI5Gk3RrFMmzY1cxSLt7cPUVE/UbeurbFcJE8oU6YMgwYNYseOnRw7doLx4z/ExqZWZv/ff//Nl19+QY8ebjz3XDmcnN4kMDCAw4cPmV0nN0pNTeWTT+ZSt25tQkNXGbtzACsadGhF+8yjKQ3KJhMdHkSv1/sQuO+y8YQ848yaQKZExhmbH0rhyk4mz7IV7e2tAChvb/qMW9HesbTxVMmFLNK0ob2IiOQAXbt2ZeXKlRQsWJATJ05gbW1tLBF5IHVtmpKUmkLfd7sy1NPd2P3YXb9+nQkTPiQwMICUlBTIGMWyZMkSBSySbx04sJ8VK1YQGrqK06dPG7sBsLa2pnXr1rRu7cybbzbF0tLSWJKjWVoWMnv95ptvMn/+Ql544QWz9juZO2sh8xZ+QUGe4NDR74zdD+EsS1y6MOVIU4KP+eNg6E367Qu6tv6MI2VaEfydDw6567HfkzOL+9BsUsXbvv8ss8Mfm37baL1gBzMcjZ1Z48b7WH7Mn3rGzgf0+8nTtGrtBsCHY4fTtGVjs/4nn3ySQoXM/7edV8SeiaNlq3cA8PMbSps2Tmb9RYsWzRx5qhEtIiLy2MXExBAaGgrAO++8o5BF8o0DB/Zjb9+AqVOnkJKSQsGCBfHx8dUoFsn36ta1ZdKkyRw//hs//fQzkydPwcnJiSJFimTWxMTEMG/ePNq1c+GZZ57m5Zfr4ebWnUmTJvL112s5fvxYrlrj5bvvvsPWtg4zZgRmhq45kWWV7gSPrwXnNzF/w99wh6lDl/atw9O1PfY3psTUdsZ5YCj7DDOl4r+dTc83m2VMTeqD/7d/EzHUERuXUM5A5rSdDosPsW+xD8526deztRuA/7fpPz9T0lkiJg7JrLGxc6PnxEjMZzpdzrhOxs803FfkUEeaTToBbMM9cyrP7acOxX87m56tnDOm/Tjj7DabCMO0qvuXxJl7ue49vVd5XBS0iIjIYzdhwgRSU1OxsLBgzJgxxm6RPOf69ev4+/vx2muvZk6BuLEWi5+ff57910CRB1G3ri2ensMJD9/EuXPxrF+/gQ8+GMpLL9XOrLl+/TqHDx8iNHQV48f706VLZ2rXfolSpUpgb9+A3r17MW3aVDZs+IaTJ0+SUwf1X7lyBW/v0dSvb8cPP/xg7M4xynZ0xQn4acdhY1e66Hl06BzI1sv1GDRzIkFzh9OvYWl+jwii28CNmWHApR3+dBy0mv2WjRk9cyJ+HYuxdVBfxkcZrgecCfalV3AiDl4TCRrfCVvLw6wc9D6B0TcqYlji2gWPJacp0XE4QXP9GO0A+5f44ugSyskb11n8Ad0mHaZEs/cInDuRQC97iAiiW7t5RAM135uIn7MVUIuecycS9F7Vmzdh4uTiPjgOWs1+7Bk9cyKBPvawbzUe7SYRmWSsvncnF79Ps0Gr+b14K/zmmlz39T4s+e1G1b29V3l8FLSIiMhjFRsby5IlSwDo0KED1apVM5aI5Ck3RrFMnjyJlJQUChUqhK/vGI1iEbkHRYoUoUWLFkybNp1fftlLXNxfrFu3nrFjx9GqVWvKlCljVp+UlMT+/ftYvvxLxo4dQ8eOHbCxqUHx4k9hbf0Cdnav0LJlc955pxsffODBhx+O55NPPmHVqpVs27aNAwf2c+bMGa5fv2523ewWHX2YN99swoAB7/H334ZRGzmBpRVligMn4zJGnZiLWrONy2WaMmedP73aONCseTuGL1xIUDMgajdHANjLjGHbOF/Tg7Wb0uu6+s5mw4J6cN54RbicVI/ATbPx7uZAs25DCFnlQU3i2Ln7LADxyycz5UgxWs9dygrfdjRr7kSvWcuInNIYjgQx49sk4CwRa06A83BWTHXFubkDzr39WTHFHi7tI+o3KGvjgEO9YoAVjZs70MzmGeOtQFIkMyadgGZ+RGbcu3Nvf8JD36H8pZ2sjXjA9Wvi1+Ez6QTFnSeyIXQIXTPuL3yXN06cYEpgJEn3/F7lcVLQIiIij1VAwM11KXx8fIzdInnGnUax7Nr1A+PG+WkUi8gDePrpp2nVqhVjxoxl3bowzpw5y969+1i06HM++GAozZs3p0KFCsbTuH79OnFxcRw8+Cv/+9//+Oqr1cybN4+JEz9i2LAP6NHDjdatW9KgQX0qV67Es8+WoVKlitStW4emTd+geXOnhz7+S1paGp9/vojXXmvIt99+a+x+zErz4q2PNZO97yqidvkb1m+xxMa+KpDM5SRg31bCL4PTey5UNqkq4fguPU0bbnBwolkJk9fPV+RF4Mi+08Df7NxwGCq40L95cZMiKNHRlS7FYevanSRRmgrPA+Gf4b3mOPEZeUSJjgFE75lHrypmp97Z7ki2Aq27OmF6S9gMYOvBcGa0Mb+HexUfuZX9WNHlPQfz65ZoTc+uxSBiI1uT7vW9yuOkoEVERB6bhIQE5s2bB4CTkxN2dnbGEpE8wTiKpWDBgowe7a1RLCLZoFatl+je3Y1p06bzzTfhnDx5ivPnL7B9eySffjoPD48htGjRAhubWpQqVcp4+m39888/nD17lqNHj/D999+zY8eOhz7uVUxMDG3bOuewnYlOcyR9WMpdJV06S/SOSMIXz8bTzY0Ok04AccTHA/GJXKYitjWNq+laU7OmoQmAu21vn8ylS4BNNbPQJp1Veij05wXOY0mz4d40LnOar0f3xbGOI/aNBuC5OJLo+9hl+8zJE0BVbG/9YQ8l+VIiUBWb21y3QmWrjGd3r+9VHicFLSIi8tjMmDGDq1evgkazSB6VnJzMuHFjzUaxVK9eg8jInYwf/6FGsYg8IsWLF+fVV1+lT5++BAQEsn79Bvbt28+5c/EkJV3nyJFjfPfddpYvX8GMGbPw8fFl2DBPBg4cSJ8+fenW7R06dOiYscPRmzg6Oj70ca9sbGqxadMWXF07G7sen/gL6VOGKlfktgNbfttI/0aO1KvfhY79xuO/ZCexJexxbpa+pTFAUnKy2SmPTJXWzN/1LTvWTWR0h3qUSTrBxkm+dKxvugaKyMNR0CIiIo9FYmIiQUFBANjZ2dG0aVNjiUiu9ssve7CzeyVzR6EnnngCL68R7NnzC6+8otFbIjnJiy++SKNGjejY8W0GDRqEn58/U6ZMZebMj/n003ksXryEFStW8vXX69i0aQvffrv1oY//8uSTTzJx4iR+/nkPb775prH7sYqPWMdPgFOb220a/DcrRk9mZ1JjJm38luhjEUR9t4oVnwyhi8kQDMsKpSnOafYfMU5yOcvJ+17NtTAlSgDRx2+zEGwcv58BKluZhEKWlLVxoNfU2YTviWDfuveoyQnmLkkPxP9LhcpVgRPsv+WH7ca7tjPOnx03dtyTwiWKASeIvuW6cOZkHFCRCs/f73uVx0FBi4iIPBaffPIJCQkJAIwbN87YLZJrJScn4+vrQ+PGr3Ps2FEAqlSpys6d3zNx4iQKF77b8HcREXB2bsOBAwfx8hpBwYIFjd2PVdJvX+DudxjKuNCvuXHaD8AJovYDDq3pUMWkP+kQX2+Iu/m6nhPOxWHrZ2HmgUH0OkLuYVqSuWdo3KYWnAlj/rfmC9FeWhPKysvQ2LEWJO3Gu5EzDuP2mtVYViiN+TLK/6GhA07AxhVbMZ1xdOnbjWxNTqSmzYMt7F/WwQlb4lj5WaTZdbm0kZAVieDQENt7fa/yWCloERGRRy45OZmAgAAAateuzVtvvWUsEcmVboxiCQiYzr///kuBAgUYNsyTX37Zq1EsIvKfqlSpwtq1X7N27de88MILxu5H7DDzR03CO/Pwp2crZ+q1/owjVGX0Ui9uN54FquJgD4SPx3ncOiK+jSR8sT8dGr3PinjToPllPKc0pvCRIDq08mfJhkjCA7xwaPclsSZV96psN29G10xk46AedJ24johvt7JkqBsOo3dCTQ+8Oz4DlvVwdijM+RUjcB44jxXfRhKxfB79O09mJ1UZ5P4SZI4siWJ+wFYiom+z65OlA54+VSFiPG1cZ7Pi2/R7bzNoG5drejD83meGmSvbjkk+Vbkc7nvzuov9cW40ma1UZbRPa8re63uVx0pBi4iIPHILFiwgPj4eAG9vbywsLIwlIrnKtWvX8PYefcsolu3bI5kyZSpFihQxniIiksnS0hJf3zHs3bsfZ+c2xu7HJI6f1m7i68xjG/vjS9Ogw3CW/7zoLjv0PEOHTz5ldDMrzq8IxGOQL/7Bcdj6LiRyYSuKc4KfotOnC5VoPomIuS7YxO9kyjBfhi+/gNPcj/G87WK4/8WaXqErCepVkUtrAvEYNJ4pkeDg/jE7wlwzFo61xGHqUoLda8Hu1Ywf5IuH32r2F3chaNun9Ho+/Uplm71Lz5rwU/B4PEZtu+0W1pV7L2LH3E68eHkT4wf5MnzxYSp0nciOMNeHmrZTufenRJhed1IUOL7Dku9Nn/m9vFd5nCzS0tLSjI0iIiLZJSUlhapVqxITE4O1tTUnT56kQAHl/pJ96to0JSk1hb7vdmWop7ux+6FFRUXRu3cvfvvtBAAFChRg0KDBfPTRRAUsInJHlpbpi2G/+eabzJ37KVWq3DG5uK25sxYyb+EXFOQJDh39ztidi8Uwv1UPZtScSPQsB2OnPGa/nzxNq9ZuAHw4djhNWzY263/yySfz7ELvsWfiaNnqHQD8/IbSpo35Nu1FixbNnB6s32xFROSR+vLLL4mJiYGMnYYUskhude3aNUaOHEGTJg6ZIUulSpXYuvU7AgICFbKIyF1ZWVmxZEkImzZtue+QJU+I30jP2s70XH7WvP23nYSfhJr1qpq3i+Qi+u1WREQembS0ND766CMAypcvT+/evY0lIrlCVFQUr7zyMh9/PIvU1FQsLCwYOHAQ+/YdoFGjRsZyEZFb/PrrIbp27WZszj/K2tOhXiI/+b1Pz4k313JxbvcZR8o0xbPjc8YzRHINBS0iIvLIrF27luPH07c8HD58uHZfkVzn6tWreHkNNxvF8sILL7Bt2/+YOXMWRYsWNZ4iInJbJUqUMDblM8/QYeFKgrpa8fua9LVchgdEUaLZcJZv8schvz8eydW0RouIiDwy9evXZ8+ePZQqVYrY2NhbvpSmpKSQmppq1iZ5x+MK1rJqjZbIyEjc3ftx8uTNjUj79u3HtGnTKVasmFmtiEh2y7trtEhOpjVa7m2NFgUtIiLySGzZsoWWLVsCMH78eMaNG2cs4c8//+TcuXPGZskjatWqdUu49ig8bNASExODt/dovvpqdWbbCy+8wMKFn9OkSROzWhGRR0VBizwOClruLWjR1CEREXkkJk2aBECxYsUYMmSIsVskx7ly5QpjxvhSp85LZiFL37792L//V4UsIiIiclsKWkREJNvt2bOH7du3A/D+++9TqlQpY4lIjpGamsqiRQuxsanB9OnTSEpKAuCVV17hu++288knn/LUU08ZTxMREREBBS0iIvIo+Pv7Q8YaHSNGjDB2i+QYO3bswM7uFd5/f0DmNLYKFSqwcOEidu36UTsKiYiIyH9S0CIiItnq4MGDfPPNNwD07duXsmXLGktEHruTJ0/i6tqJ5s2dOHz4EGTMMx8zZiwHDx7Gza0HFhYWxtNEREREbqGgRUREstXEiRMBKFiwIKNGjTJ2izw2KSkphIWto2PHDtSp8xJhYesAsLCw4J13unP48BHGjh3Hk08+aTxVRERE5I4UtIiISLaJiYlh1apVAHTr1g1ra2tjyW1EM6fbMNxmRxs7/tuVU2ya/A37je1Z5ionwj9jxb3+gOQL/Lx8IX4DvHHrNgy3bsNwHzCLORGnuGJW+BDvOYeLD5+OW7eQbPxM7t+xY0cZPXoUlStXwtW1Exs2fENKSgoA9vb27Nr1A59/vpjnnnvOeKqIiIjIf1LQIiIi2eajjz4iNTUVCwsLxo4da+zOcvHbQ1l24IKxOevER7Fo6RHOG9tvI/nMdvz6TWBWWAyFbVsxyLMPQz3aY1f+Aj8u/Jj3Rm8n1niSZJvU1H+J+ul7mjRxoE6d2sycOSNzDZYiRYrQvbsb27b9j8jI73nlFTvj6SIiIiL3TEGLiIhki9jYWBYvXgxA+/btqVatmrEk77ryK8Hjvua3J19m6IIP8X2/Ca81qEP9Rk14b9yHzBlQmydjvmbiglPGMyWL7dixgz/ORvPbbz/y1Zov+fHHHzP7atV6iRkzZnL69J8sWvQ5r7/+utm5IiIiIg9CQYuIiGSL6dOnZ07H8PX1NXbflxvTT35O+JVFY715t9sw3Lp5MyJwOycy5uDsnz2MYUtjgb1MN0zDuXJ8OzOH35i+482ID9fyc8LN67M/BLdu09l0/BSbAifj3m0Ybt1G4D429Gbd/hDchnzNaeDHKcPuOh0mJmwtP/5ThKZDelL/NrsAl2riShebIhATYxjVkkLs9hB8+qZPM3q37ywW/XTJrOLK8e+ZM3Zcxj0Ow62n+XOAC2waPQy32b+S8FMofn1HpNf1nczMcOOUpauciDD5eR4L05/BaOM0pqucCF/IiIw6t76TmRjyK6aPEADTz6fnh8zcfo7rxppsFBMTw5o1a/Dx8aFly5aUKVOGJk2akHAxjrS0VACKFi1Kjx49+d//drB37z4GDRpMyZIljZcSEREReWAKWkREJMslJCTw2WefAdC8eXPs7LJiKsYJPh8dQnTZVrh79sDttRKc//lr/Of9SjJg7dKHd197GrCmpWcfhrpUACA+YhaDx33NiZL2vOvZh6F97SkVu4NZ709n0xnT619gfeBc1l+pSRfPPrzb2ppCJ3Yxa+w3xABYOzG078uUAaq07sNQTyduv+LMGX7Y9X9Q5nWcahn7biiB07jJzJ3QhPKmzT8swnf5JWy69WGohxM2hWLYNmMWK24MfDn1Db7jVrPnn6p09OjDUM9OtLUpwdmfv8Y/MMo8+Dgcim/QCcq+3Y2hHu15tdQF9iz9mOCfbkYfseFz8F+4l4vWjrzr2YMu1f5i5bhFrI83vdAFto4dh//SGEo16cRQzz6826Q4sRsXMdh0+lNCFBPfX8S2mBI49O3D0J51+Gf5XObsuGp6sSxz+vRp1q5di6+vL61ataJs2bJUqlSJt99+m8mTJ7Nlyxb+/vvvzPrChZ+knUtn/vjjDAsWLOS1114zu56IiIhIVlHQIiIiWS4wMJCrV9O/YPv4+Bi7H9BlSrb2YvqQJrzW4BVaDfFm6GvAz3uJBkpVqkPdqkWB0tRtUIf6lUpA8q8sWxhDydYfMHNcB5wa1KF+sw74zvOibZlYlq1ID2nSXeN6rZ5My6hz6jkY/x7l4Xw00fFAqQrUt7XmSaCsbR3qN6hAKbP7u+EC588D1azvEMTcTW3cAwfTo1kd6jdqy8jRTpTh/9izP30tkegdv/BPyZcZOrknrRrVoX6D1+nq7cXQ+kD0kfRA6IaLxWk12ZvBzq9Qv1ETBgf24VVgzw8n0vsTvuezpbGUfM094z2nP9OJPYpz8Z+bl0n+aS2fnyhOyw/H4tvzdepnPJu5k50oE/M1KzOCm+jVa4mmPG6TvenTLOM5B7pSPv7/Mq81d+5c/P39//Pw8vLivffeo1u3brRp0wYHBwdsbW158cUXeeaZZ7CwsMDa2pqOHTsyadIkNm/ezPnz5ivnvPLKKwwePJhly5ZRo/KrVKpkR6PXmlC8eHGzOhEREZGspqBFRESyVGJiIrNmzQLAzs6ON954w1jygJ7ltfrlzFrKVy0PnOOs2QgME/v3soeClC95mQM//crPmccFrpe6GdLcUPe1OpjO9ClboRwQy4n7WbU2/kLGKI+Cxp7/9po9r5neQKUqVAXOxqQv8GvTcxzB83piW9ikhkJY25QHrvPPzdQIyr+MXfqgngzlqGoNxP5FPJCwfy+/8TQOLjZm77m8cyteNXl94IeDUKgcpRKOmDy/X/k5/jolM4ObM+zffw3qO9HU9Gc+VYe3mj2d+fLTTz9l/Pjx/3kEBgYSHBzMihUrCA8PZ+fOnRw4cIBTp05x4cKtix0//fTTtG7dmgkTJrB161auXLnCnj17CAoKonv37hQuXNR4ioiIiEi2UdAiIiJZau7cuSQmJgLg7+9v7H4IBSlkFjD8t/j4c0AKB1YsYtYM82PzCW4Nae7z+rdV9tmM6UDp69Pcn3sLZ5KvXCBm/6/8EL6WOR9OxndpLHCBixdNigoVopDJS6N/Ei4DlahaydhTIT2QgfTRObHA9SOsNDy/WTN28Bs3gptLnD8PZcqXu+URlixf2tDy30qVKkXVqlV57bXXeOutt+jTpw8jR45k2rRpfP7556xfv54ff/yREydOcPHiRS5cuEB4eDhjxoyhadOmPPnkk8ZLioiIiDwyClpERCTLJCcnExgYCEDt2rVp27atseQxKI/b7JksW367YwStyhrrH1bGyJHjMeZTeQxilk/GffhCfrjTaJzbORPFtAHD6NNvAr5TQvh846/EP1WTV+vfHDVyr67/cx/L1Fq3Z+Ytzy7jmNKEuz3CJwvdHE1y8OBB0tLS/vP4v//7P44fP86uXbsICwtj4cKFTJ06lREjRtC7d2/atm1Lw4YNqVKlCiVKlDD7eSIiIiKPm4IWERHJMvPnzyc+Pj05eNidhrJCyVKlgViij99HqPDQSmNj+zSc/56th419N5zhh11/8U9CCUrdLaUwc4mt85Zz4Hpt3AOmsWz5dIKDxjF+eAeczFbUvTfpI01OceKWHabPcSIzISpOybJAzAlOmE5LukUJypSB87HnTNa8SXc2xmzFYREREZE8zyItLS3N2CgiInK/UlJSsLa2JjY2Fmtra06ePEmBAveX5//555+cO/c/5nQL5sfX3Fk2xAYytncethTcZpuPQDG2p78ux4jlPbEFSP6Vmb0Wsce6DdOmNDPZ4ecc60dPYc31NvgHNsN6fwhuU/by6uiZDLa9eX2M7fHb8RnyNeWNdUZXfmFmv6XsKfkyQwONWzxf5cTyOfiHxVKxx1gmOZcGom95z+lM28n47z4sG1LnZknyKZYO/5jN58tnPIcLbBo9gWW0Z6bZaBNDe8L3+L2/mvOvuTNtyM11Wq7sWsh7QQch416Sf1pInxkHqdh1NJPamayRcyYCH6/NXO86lOntKnAiZBz+G4vTJWAEb91Yp+VKNHOGB/PjxZcZsbwn3WrVomjRR79eSl2bpiSlptD33a4M9XQ3douI5EpzZy1k3sIvAHjNvp6xWyRb/HM1if2/pq9w9+HY4TRt2dis/8knn6RQobtNXs69Ys/E0bLVOwD4+Q2lTRsns/6iRYtSuHD6JGoFLSIikiWWLFlC7969IWNkS79+/Ywl/+lhg5aE7XMYPO8MNi6utHytKvUrlSA2fDojl8ZCyZq07dmIqv/EELlxO3tii/LqaG8G2xa9NVC5wdieEMXE95cTY+PEu61fxuaOOw/BlcOh+E/YxVmKY+PoRNP6pSl08cbPTknf7Scz4LiXoKUCOz70Izi6IM85taeLbQmux+9l/Vd7OXu9INevP3t/QUvG9CXfsL8oaeNIx9ZVYf83LNv6F9chM2iBc2waPYVlMVCyrhNuzaz550QUmzYe5OyTLzMisCe2T5mEKv88y6tdW/JqqVi2hWzlwEUABS0iIlnNNGgReRwUtChoERGRbJSWlkaNGjU4fvw45cuXJyYmhoIF721hV1MPG7Rw5QRLJyxkc8y19HVFMgKFhJ/WMndFFNGx14CCPFm+Jh0HvEOrahlf+o2Byg23tF8lOmQOMzfG8g83RpCY1BtdOcXWhV+zfv8Zzv+TkvGzrXHo+g5dGpQ2WTj2XoIWG7hyik3zlrPm57/4B3iypDWvdnOlS9ldDJuwCxvPaQxrcPmWQCXdrUELXOVE+Jd89tVBzv4DhcrUpsuQOpwYt9xwL5f4OSSEldt/4+w/QKEiPGfbivcGNKGq6Wgds/srwnP1W/FW2SiCN6aPMlLQIiKSddas2cA3X0eYtaWlppKaqq938mj06tcFO7vaZm0KWhS0iIhIFlmzZg1vv/02ADNmzGDYsGHGknuSHrScMzbLI/Urc7otIqbraKabThXKArUUtIiIZKtr166RlJRkbBZ5ZBS0pAct9zd5XkRE5DYmTZoEGdvyDhgwwNgtOdHxUAb1Hcei/ebNV37aywHAulLWhiwiIiIi+YWCFhEReShbtmxhz549AHh6ej6WEQvyAKo1wK7QZbYFTmZO+C/8/NOvbA2Zw8gZe/nHuj0d77bYr4iIiIjckYIWERF5KDdGsxQrVgwPDw9jt+RYlegT+AFutnBgxVJmzVjE59svU751H2Z+2MRkhyYRERERuR9ao0VERB7Ynj17qF+/PgAjR45k6tSpxpL7ojVa8jat0SIikr2Sk5O5fv26sVnkkbG0tHygDRFyg/tZo0VBi4iIPLC2bduyYcMGChcuzJ9//knZsnfbgue/KWjJ2xS0iIiISG6loEVERLLdwYMHqVOnDgADBw5k7ty5xpL7lpCQwIULF4zNuUJiYiIbN24kOTkZgCZNmvD8888by/K1F1544bHsRKCgRURERB6WghYREcl2Xbt2ZeXKlRQsWJATJ05gbW1tLMk3Ll26RIMGDTh27BhkrFvj7e1tLJPHREGLiIiIPKz7CVq0GK6IiNy3mJgYQkNDAXjnnXfydciSmppK+/btM0MWV1dXhSwiIiIi+ZiCFhERuW8TJkwgNTUVCwsLxowZY+zOV4YNG8Z3330HQIMGDVi6dKmxRERERETyEQUtIiJyX2JjY1myZAkAHTp0oFq1asaSfGPBggXMnj0bMtYf2bBhA5aWlsYyEREREclHFLSIiMh9mTZtGikpKQD4+PgYu/ON77//ngEDBkDGnNxNmzY99K5LIiIiIpL7KWgREZF7lpCQQHBwMAAtWrTAzs7OWJIv/P7777z11lv8+++/WFhYsGLFCmrVqmUsExEREZF8SEGLiIjcs4CAAK5evQr5eDTLpUuXaNWqFf/3f/8HwEcffYSLi4uxTERERETyKQUtIiJyTxITE/n4448BsLOzo0mTJsaSPO92Owzl18BJRERERG5PQYuIiNyTOXPmkJiYCMD48eON3fmCp6endhgSERERkbtS0CIiIv8pOTmZGTNmAFC7dm3atGljLMnzFixYkDmi57nnntMOQyIiIiJyWwpaRETkP82fP5/4+HgAxowZY+zO84w7DIWHh2uHIRERERG5LQUtIiJyVykpKUyaNAkAa2trXF1djSV52u12GKpXr56xTEREREQEFLSIiMh/+eKLL4iNjQVg7NixFCiQf/7qSExMNNthaMKECdphSERERETuKv/8tiwiIvctLS2NiRMnAlC+fHl69eplLMmzUlNT6dSpk9kOQ76+vsYyEREREREzClpEROSO1qxZw/HjxwEYOXIkBQsWNJbkWcOHD2fz5s2gHYZERERE5D4oaBERkTvy9/cHoFSpUri7uxu786xly5Yxa9Ys0A5DIiIiInKfFLSIiMhtbd68mYMHDwLg5eVF0aJFjSV50vfff0+fPn1AOwyJiIiIyANQ0CIiIrd1Y6ehYsWK8cEHHxi786QbOwxdv35dOwyJiIiIyANR0CIiIrfYtWsXO3bsAGDw4MEUK1bMWJLnGHcYGj9+vHYYEhEREZH7pqBFRERucWOnocKFC+Pp6WnsznNut8PQ2LFjjWUiIiIiIv9JQYuIiJg5ePAg4eHhALi7u+eL9Um8vLwydxiqV6+edhgSERERkQemoEVERMxMmDABgIIFC+Lt7W3sznOWLVvGzJkzIWOHofDwcO0wJCIiIiIPTEGLiIhkOn78OKtXrwbAzc2N8uXLG0vylNvtMPTcc88Zy0RERERE7pmCFhERyTRlyhRSU1OxsLDAx8fH2J2n/PHHH5k7DAHaYUhEREREsoSCFhERASA2NpaQkBAA3n77bapVq2YsyTO0w5CIiIiIZBcFLSIiAsC0adNISUkBwM/Pz9idZ9zYYejw4cOQscPQuHHjjGUiIiIiIg9EQYuIiJCQkEBwcDAALVu2pHbt2saSPGPkyJHaYUhEREREso2CFhERISAggKtXrwLk6bVZli1bRmBgIGiHIRERERHJJgpaRETyucTERD7++GMAGjVqhKOjo7EkT9AOQyIiIiLyKChoERHJ5+bMmUNiYiIAvr6+xu48QTsMiYiIiMijoqBFRCQfS05OZsaMGQDUrl0bZ2dnY0muZ9xhyN/fXzsMiYiIiEi2UdAiIpKPBQcHEx8fD8DYsWON3bmecYchFxeXPL2jkoiIiIg8fgpaRETyqZSUFCZPngxAtWrV6NSpk7Ek1xs1apTZDkMrVqwwloiIiIiIZCkFLSIi+dSyZcuIjY0FYPTo0RQokLf+Sli2bBkBAQFgssNQ0aJFjWUiIiIiIlnKIi0tLc3YKCIieVtaWho1atTg+PHjlC9fnpiYGAoWLGgsy7W+//573nzzTa5fv46lpSU//vijFr/Nx+raNCUpNcXYLCIiIvJA/PyG0qaNk1lb0aJFKVy4MGhEi4hI/vTVV19x/PhxyJhek5dCFuMOQ0uXLlXIIiIiIiKPjEa0iIjkQ3Xq1OHgwYOULVuWmJiYPDOlJjExkYYNG2Yufuvn54e/v7+xTPKZz+aGkJLyr1lbclKS2WsRERGRe+XQ9FWqVXvRrM10RIuCFhGRfGbTpk20bt0agIkTJ+Lj42MsyZXS0tJo3bp15uK3Li4urFu3zlgmAsDFixeNTSIiIiIPTEGLiEg+5ujoSGRkJMWKFePs2bMUK1bMWJIrjRw5kunTp0PGDkO7du3KMyN1JOspaBEREZGspDVaRETyqV27dhEZGQmAh4dHnglZli1blhmyaIchEREREXmcNKJFRCQfcXZ2ZuPGjRQtWpSYmBjKli1rLMl1fvrpJ15//XXtMCT3RSNaREREJCtp6pCISD508OBB6tSpAxmjWWbPnm0syXX++OMP7OzsiI+PB2DVqlW4uroay0RukZSUhH4FEhERkaxSqFAhnnjiCVDQIiKSf3Tp0oVVq1ZRsGBBYmJiKF++vLEkVzHuMDR27Fg+/PBDY5mIiIiIyCOlNVpERPKB48ePs3r1agB69OiR60OWtLQ0OnXqlBmyuLi4KGQRERERkRxBQYuISD4wZcoUUlNTKVCgAN7e3sbuXMfb2ztzG+d69eqxYsUKY4mIiIiIyGOhqUMiInlcbGws1tbWpKSk4OrqyqpVq4wlucqyZcvo0aMHAGXLlmX//v0899xzxjIRERERkcdCI1pERPK4qVOnkpKSAsC4ceOM3bnKTz/9RJ8+fQCwtLRkw4YNCllEREREJEfRiBYRkTwsPj4ea2trrl69SuvWrQkPDzeW5BraYUhEREREcgONaBERycNmzZrF1atXARgzZoyxO9dITEykVatWmSHLmDFjFLKIiIiISI6kES0iInlUYmIizz33HImJiTg4OLBjxw5jSa6QlpZG69atMxe/dXFx4euvv8bCwsJYKiIiIiLy2GlEi4hIHhUUFERiYiIAPj4+xu5cw8fH55YdhhSyiIiIiEhOpREtIiJ50NWrV7G2tiY+Pp7atWvz66+/GktyhdDQUDp37gzaYUhEREREcgmNaBERyYMWLFiQuZ6Jn5+fsTtX+OmnnzK3cdYOQyIiIiKSW2hEi4hIHpOSkoK1tTWxsbFUq1aNo0eP5rqpNtphSERERERyK41oERHJY5YuXUpsbCxkrG+S20KWq1evmu0w5Ovrq5BFRERERHINjWgREclDUlNTqVmzJsePH6d8+fLExMRQsGBBY1mOlZaWRvv27QkLCwPtMCQiIiIiuZBGtIiI5CFfffUVx48fB8Db2ztXhSxkjF65EbJohyERERERyY00okVEJA+pU6cOBw8epGzZssTExFC0aFFjSY6lHYZEREREJC/QiBYRkTxi06ZNHDx4EIBhw4blqpBFOwyJiIiISF6hES0iInmEo6MjkZGRFCtWjLNnz1KsWDFjSY6kHYYku9W1aUpSaoqxWUREROSBTJkymg4dnI3NmTSiRUQkD9i1axeRkZEADBkyJNeELMYdhry9vRWyiIiIiEiuphEtIiJ5gLOzMxs3bqRo0aLExMRQtmxZY0mOox2G5FG5MaLllXov8eqrdsZuERERkf90+fIVln7xFdzDiBYFLSIiudzBgwepU6cOZIxm+fjjj40lOZKvry+TJk0CoFatWvz888+5al0ZyT1uBC193+3KUE93Y7eIiIjIf4o9E0fLVu/APQQtmjokIpLLffjhhwAULFiQUaNGGbtzpNDQ0MyQpWzZsmzatEkhi4iIiIjkCQpaRERysePHj/PVV+lDGHv27En58uWNJTnO7XYYeuGFF4xlIiIiIiI50tWr17h48aLZkZycnNmvoEVEJBebPHkyqampFChQgNGjRxu7c5yzZ8/Spk0bkpKSAFi6dCkNGjQwlomIiIiI5FoKWkREcqnY2FiWLl0KQKdOnahWrZqxJEe5evUqzs7OmTsMjR49WjsMiYg8LtdOsTmoOw0qFsPSslD6UeJ5GrzlQ9ipa8bqXOYUQXUKYem22dhh5lRQbSwtaxN0ytjz3xK2e9Lg2YznZvk2YVnxyLYPpIRlISxLDGS7se8xunZqHf3cgnmAxySSbyloERHJpaZMmUJKSgoAY8eONXbnKGlpaXTt2pV9+/ZBxg5DN9ZoERGRR+va0dk4lKyGi9c6sHUnYOlqQkNXE+RhC9un41rjeZqHHDGeJpmOMH9wEAdwxGvpakJDx2JfxFhz/7aHhpBUsiQlk+YTtCorkpussX1MJ5buzzn3I5IbKGgREcmF4uPjWbBgAWRs7Vy7dm1jSY4ybty4zG2ca9WqxYoVK7SNs4jI45CwEte6w4kq6cLSmER+Wj8Dj87tcHFph/vEDfx06VcC6l5kR/9BhMQZT5Z0Mew/BrQYycTO7XBxqYeVseR+XVtJ0PwkyvUPpL81rA8KQY9fJPdS0CIikgvNnDmTq1evQsY2yTlZaGgoH330EWiHIRGRx273mEFsoST9139F59umAzXxWDaC6iUvsv9ows3ma6cI61efZ29MM3q2Pm7Bu7lZcWO6zjriwvrenFZToiqdgkzr0iXsnk2n6jemLRWjenNPwkyThc3dsbSszfSw2TiUSK+pMz19VGTC7mDcGjyfPs3GshCWlmWo02k2u40/5L5txs2yEHWCdrM76G2ql7j5XvvduLnN3bG0bEsoQGhbLC0LUefG3KOE3QS73e0Z3dm1sBDWY4mLSy96ulpD1DSCjhqrbv6MG++9YqfZ7N49mzqWhTCbKZUln1d6jUsocGw4NSwL3XwOInJXClpERHKZxMREgoKCAHB0dKRRo0bGkhzDdIehQoUKaYchEZHHajdLQy5C9XF4NTT2magxiV//+pnAJqXSX1/bTL/q1XBdeo0WAcsIDV1GQItrhHo0prrbZvMgYUtf6rrupsbYZYQuDcTVOob1Xo3pZzIV5lTw65RzHE5UOXeCQlcTGuROuaNBuFrXN4QLRxnj+iFFPJYRGjQEjxb1YL8P9o6DCL3WhIlLVxMaOhevFqU4tn44jq5LsmQUSMyENjhOj+OtgNWEBnlgX2Q/S10b43sUsB1BaKgH9gD2HoSGrmZOCytI2Ixb9cZ4hCbgGLCM0NC5DK4Rd/tndIs4QoK2gGVPejSEGv2HUJ0YgoKMK7UcIah5YzxC47AdPJfQpYE4Hh2O41sfEmNalmWflxUt5qxmsD1QrjNBoavxsM/434SI3JWCFhGRXGb27NkkJiYC4OPjY+zOMYw7DC1atEg7DImIPE6ndrM7CWhYg0rGvrs4OmEQS8+1YP65gyzz6IKLSxc8lh3k3NIWXAwdxHTTcOSiFSMOZNR1HsKyX7/BFVgflhEaXFuJl0cU1oN3cixyBu4u7XBxn0Hk6Z/wst6Pl+9KTFcDKTd4A99O7IKL+yTcbWF7SAhxJTsT9tMXGVOe3Jm4/iBL3wJ2bGG/ybkPKulaS0IPfE+ge8a97QikOjGEbTkFVvVwcWmJNYB1S1xc2tGkRhG2j3mb0Is1+OjACVZ7dMHFxZ3AyBPsGGx96zMyOrWKoCgo5+FOQ4BKLrhXh6SQlWaL4sYF98XrQElcww4SGeie8Xx/JcD6Iul/06bLus+rCDWatKOFNVCyIS1c2mFrlQWL0YjkAwpaRERykatXrzJr1iwAateuTcuWLY0lOYJxh6FRo0bh5uZmLBMRkUfsGlDdtoaxmc1uN6bhmBxum4EjhIXFQHUr2LGOsLCbx46EUpS7EUDcUL0nLmaXr0HD6sD+o+m71mwJYz1QwyqOLSbXCguL4Vo5YH2YWbjg2MJ86E2TwD+59NcXtDT7vl8E+yY1gAQuZsWarS6dcTEduFGpBrbAsd13Skt2ExqSBC3G4mH23ovQcMRI7IlhaUj6tKfbOTp/NsewpkfPehktlXD1sAezRXHj2BIaBeXcGdHS9OZq4jG2s8nrLP68ROSBKGgREclFFixYkBle+Pv7G7tzBOMOQy1btmTy5MnGMhEReUyO7b81MLBq0ZMePW4cjukjNuDmwq/HQujv2glX08NjFeduuV4RLE1eGZ2KSR9zsmWM4VqunZgTBXCUY/fwDf9awin2b17HqiBP3JpXpa7XUSCGc1kxd4j7HbWRQEISlKtb49YzrayxBs7FnDP2ZNhOUFAMWHemp0ngYeXSC3tMF8VNSH9vjg2xvVmWrm5Dqme+yNrPS0QejIIWEZFcIiUlhSlTpgBQrVo1OnbsaCzJEfz8/Mx2GFq9erV2GBIRyQkqNaSJJbD71tEKtj0XsmDBjWNk+hokply/ISnp+u2PBfc7urIGAUdvc52k6yQl/YzH3eY1HV3CWxULUbJcNexdOjF4+iqOFnGhZ4tyxsrcYftKQpKAmOnUNR1NZD2IKDBZFPcaCReNJ99Fln5eInK/FLSIiOQSS5cuJTY2FjJ2GsqJ4UVoaCgTJkwAkx2GihUrZiwTEZHHoiGuPS3h2Gzm3/NiJuWwLgfs2J4l659YlbMGjrIl6kHm+MQR3K8fWxJaMP/AZZKSrvPX6T/5af0M+tc11j5KpShlCecOHDVbXwaAuBhigOq2N8cI3XSNVUHzScIa16DVhIYaDi9HyFwU14oaNYAdu2/9HI7u5ljmi6z9vETkwShoERHJBVJTUzOn35QvX57u3bsbSx67ffv2aYchEZEcrslHX+FaMoaA5m8TcuqWWABIYLfvh+nbFwNQj549rOHcbKaHme+dkxDWnRKWxei06u576pgq4tKTt4AtE2ZjPoHpCNPrFMKy+rS7BAT72REFuLjTs4bJJJ1ruwkJvdPUnEchI8DaMsGwa9I1dk+fRhQlaeFY07Qjo3sdS9cD9iMJcG+Hi4vhmDiO/paQNH82q65Z0cLVHs4FM32z6fNOYNWcVSavs/bzEpEHo6BFRCQX+Oqrrzh+/Dhk7DRUsGBBY8ljdfbsWZydnbXDkIhITleqJcsiF+BIGP1rFKdi8+74Bq8jLGwlQcPbUMeyLI4BUVC9J6EB6VNMaoyYi2vJJEJdy1KnX3B6bb/Xqeu6iqS6k5jY+T62/C3ShYkBtnDMl7oV2+C7ah1hwT68VacOY46VxDXI/dY1SDLZ0sIRCO2UcR/rWBXUnQbPNmaO2f7Gj156gHWUMXWr0iloJWFhwQx3qIrjnBhKun7B2Ntspx0XMpstwFsePbEydgLQBA8PayCMoJA4rNzn4lX9IqEutXEYHsz/s3fncVVVWwDHfziRJmgGpViaE4pDOGKZUAomg6GYKDjgPEsiajKYgAY44YSUs+KsGCgG6mOowCwxE3KAUjEHkILMgDSceH8weO8BFRQUZX0/n/N5svc6l3MvPTh33bXXDg1dw5h2ugz7n/pZZfrzAurWzauCmr1mHwlpxSXnhBBKkmgRQojnwNy5cyF/Oc7YsWOV089UwQ5DV69eBeDTTz+VHYaEEKIiazmciEuXiVvrSMu0Qyx2HICt7VBmrDwKJg4sDj3LPyfXY13w7r9ub7b+dhh/W0P+2DI5L3b3RV4ftodfYz+h6B5GD9fS8ScuBjli8tJ3LB42AFvHRRzFmsUx59iqtqOOUn0cgg6z+KPGXNwyGVvbAYxZ9CuGK4/xx//GosmvfPdYS5LKQOFrVJeYGUOxtZ3Myl/rM2ztSX7b2puizyoJ/8VxoDkWx4FFWugWaumY1y8nbksoabTHO/Ywiz96iYSVk7G1ncz/WvoRs1Z116Gy/3l1dQzgo9cvEuQ4gNlBD643EkLcp5Gbm5urHBRCCFFxHDhwAEtLSwDmz5/PrFmzlCHPVN++fQub3/bu3ZsDBw5UyP4xovJ626AnOffuMHqkHU7O45TTQgjxfAsdgqZtAp//coqZpc2iCCFKLDUljd7mgwHw8HDCyspUbb5mzZrUqFEDpKJFCCEqvs8//xyA2rVrM3nyZOX0MyU7DAkhhBBPx9EpOmg3msQhtdHrhO7eBxjytiRZhKgwJNEihBAVWGxsLEeOHAHAycmpQu3gExQUpLakSXYYEkIIIcpP12EDeemPtVi3G4L/7n35fWDaYhuUw9uLP0M2bRai4pBEixBCVGA+Pj6QX4o4ffp05fQzIzsMCSGEEE9Z1y/4LcaPjzjEjGEDsLWdzNo/WjIl6CyxjsXsaiSEeGYk0SKEEBXUqVOnOHjwIADjx4+nbt2irfSeBdlhSAghhHg26nb9hD0nM8jJuU1Ozm0yf4vCz/otHtxOVwjxLEiiRQghKigvLy8AqlWrxsyZM5XTz4Ryh6EZM2bIDkNCCCGEEEKokESLEEJUQGfPnuWrr74CYMSIEejp6SlDngk7Ozvi4+Mhf4ehBQsWKEOEEEIIIYSo1CTRIoQQFZCPjw+5ublUqVKF2bNnK6efCU9PzyI7DFWpIn9GhBBCCCGEUCV3yEIIUcGkpqaydetWAAYOHEjjxo2VIU9daGho4VKmV155RXYYEkIIIYQQ4gEk0SKEEBWMr68vd+7cAcDd3V05/dTFx8djZ2cH+TsM7d+/X3YYEkIIIYQQ4gEk0SKEEBVIeno669evB8DKyoq2bdsqQ56qgh2Gbt68Cfk7DL333nvKMCGEEEIIIUQ+SbQIIUQFsnTp0sKkRsFSnWclJydHbYeh6dOnyw5DQgghhBBCPIIkWoQQooLIzs7G398fgPfff59OnTopQ56qYcOGqe0wtHDhQmWIEEIIIYQQQkESLUIIUUGsWLGC7OxsANzc3JTTT9XcuXMJCgoC2WFICCGEEEKIUpG7ZiGEqABu3rzJsmXLAOjUqRMffvihMuSpCQ0NxcPDA2SHISGEEEIIIUpNEi1CCFEBrF27lvT0dHjG1Syyw5AQQgghhBBPRhItQgjxjN25c4cFCxYA0KJFC2xsbJQhT4XsMCSEEEIIIcSTk0SLEEI8Y5s3byY1NRWA2bNno6GhoQwpd8odhpydnWWHISGEEEIIIR6DJFqEEOIZunfvHvPnzwegcePGDB48WBnyVCh3GFq0aJEyRAghhBBCCFECkmgRQohnaM+ePZw9exaATz/9lGrVqilDyt28efMKdxjS19eXHYaEEEIIIYR4AnInLYQQz9C8efMA0NXVZcyYMcrpchcaGsqcOXNAdhgSQgghhBCiTEiiRQghnpHw8HBOnToFwIwZM6hRo4YypFwVt8NQkyZNlGFCCCGEEEKIUpBEixBCPCPe3t4A1K1bl0mTJimny1V6errsMCSEEEIIIUQ50MjNzc1VDgohhChfMTExvP/++wB89tlnzJ07VxlSbnJycjA2NubYsWMATJs2jSVLlijDhHhhvG3Qk5x7dxg90g4n53HKaSGEeGb+/jubs2fPKYeFeOG1b9/6qVdzP6nUlDR6m+dtXOHh4YSVlanafM2aNQufkyRahBDiGTA3N+fQoUPUrFmT1NRU6tatqwwpNwMHDixsftu7d2/Cw8Ol+a14oUmiRQhRUR05cpzx42cqh4V44UVG7uH11+sphyu00iRa5M5aCCGeslOnTnHo0CEAJkyY8FSTLJ9//rnsMCSEEEIIIUQ5kooWIYR4ymxtbdmzZw81atTgwoUL6OnpKUPKRWhoKP369SM3N5dXXnmF48ePS/NbUSlIRYsQoqJSrWj5zH0q+i2bKkOEeGF8E/09GzbthkpQ0SKJFiGEeIrOnj1Ly5Ytyc3NZezYsaxZs0YZUi7i4+Pp1q0bN2/epHr16nzzzTfS/FZUGpJoEUJUVKqJlu3bVtKp89vKECFeGLt27mOOhx9UgkSL1IsLIcRT5OPjQ25uLlWqVMHd3V05XS5khyEhhBBCCFGR3Llzp8jxIpFEixBCPCWpqals3boVgEGDBtG4cWNlSJnLycnBysqKq1evAjB16lSGDh2qDBNCCCGEEOKpuXHjJv/++6/a8SIttpFEixBCPCW+vr7cuXMHDQ0N3NzclNPlYtiwYYXbOPfo0UO2cRZCCCGEEKKcSaJFCCGegvT09MJ+LH369KFt27bKkDLn4+OjtsPQ3r17ZYchIYQQQgghypnccQshxFOwZMkSbt26BYCHh4dyusyFhoYye/ZsAF555RUOHjyItra2MkwIIYQQQghRxiTRIoQQ5Sw7O5uVK1dC/vKdTp06KUPK1JkzZ7CzsyM3N5eqVauyf/9+2cZZCCGEEEKIp0QSLUIIUc6WL19OdnY2QLn3ZklPT8fc3Lxwh6FVq1bJDkNCCCGEEEI8RZJoEUKIcnTz5k0WL14MQKdOnTAzM1OGlJmCHYYuX74MwCeffMKYMWOUYUIIIYQQQohyJIkWIYQoR2vWrOH69esAhT1Tyotyh6GlS5cqQ4QQQgghhBDlTBItQghRTu7cucPChQsBaNGiBX379lWGlBlfX1/ZYUgIIYQQQogKQO7ChRCinAQGBpKamgrAnDlz0NDQUIaUidDQUNzd3UF2GBJCCCGEEOKZk0SLEEKUg3v37jFv3jwAGjduzODBg5UhZUJ2GBJCCCGEEKJikUSLEEKUg6CgIC5evAiAi4tLuSzjkR2GhBBCCCGEqHg0cnNzc5WDQgghnky7du04deoUurq6XLlyhRo1aihDnkhOTg7GxsaFzW8dHR1ZsWKFMky8oNLT00lLS+OPP/4gNTWVtLS0wuPPP//kxo0b3Lp166FHQYKuoqhVqxZ169albt26vPrqq9SuXbvw6zp16hT+u27duujo6PDmm2+ir6+vfJhivW3Qk5x7dxg90g4n53HKaSGEeGaOHDnO+PEzAdi+bSWdOr+tDBHihbFr5z7mePgBEBy8kddeq6s2r62tXW5L7ctCakoavc3zqtQ9PJywsjJVm69Zs2bhPb8kWoQQooyFh4djZWUFwMKFC5k5M+8GqiwNHDiwsPltjx49iIiIoGrVqsow8ZzKzc3l0qVLJCYmFh5JSUmcP3++sO+PgNq1a9OhQwc6depE+/bt6dixI+3atVOGSaJFCFFhSaJFVCaSaBFCCPHY3nvvPY4cOULdunW5fPkytWvXVoY8kfnz5+Pq6gr5OwwdO3ZMmt8+x86dO8cvv/zC6dOnC5Mqv/76a6krTmrXrk39+vWpX78+L730EjVq1HjoUb169TKvtHoSWVlZXL9+nevXr/PPP//w999/F3597do1ZfgDvfTSS7Rr147OnTvTvn17OnTowGiHWZJoEUJUSJJoEZWJJFqEEEI8lpiYGN5//33I32nIy8tLGfJEQkND6devH7m5uWhraxMfHy/Nb58jWVlZ/PDDD8TFxfHDDz9w9OhR/vrrL2VYEa+99hqtW7emWbNmNGjQgNdff5369eujp6fH66+/ToMGDahVq5bytBdKZmZmYeLl77//5tSpU5w4cYL4+HiOHz+uDC/i5Zfr8VEfa774chkvv/yycloIIZ4JSbSIykQSLUIIIR6Lubk5hw4dombNmqSmplK3rvofkCdx5swZOnfuzM2bN6latSoRERH06NFDGSYqiLt373Ly5El+/PFHjh49yo8//sivv/7Kw/7svvnmmxgYGNC6dWtat26NgYEBbdu2LdP/jl5Ed+7c4fTp05w4cYITJ07w888/k5CQQFZWljKUl156iQ8/7M3HH39Mnz4flXnFmRCiclm2bCmffDL1sZveS6JFVCaSaBFCCFFqp06dKuwP4ezsjJ9f3h+SspCenk6nTp24fPkyAGvXrmXMmDHKMPGMZWRksG/fPsLDwzl06BD//vuvMqRQixYt6Nq1K126dKFr1660adNG3vSXoXv37nHkyBH27t2L/4ovuHW76FIsTU3NwqTLRx9Zy+svhCg1Tc3qdOjQkS+//JIOHToqpx+pPBMtKZtGYeZzTjmcp0ZtmrQ3x3n+eMze0FTOAn+x09YGrwQw9Aphp/2rygA1mYkHCPDeRkj8JbJuAdRAq2lrTIePx9W+DU9jgXNFuIbycxRn/ZlccNtFyIgGysk8V4Kw6ekPxcZkETdnIsN3XkLH0puwZcZox3hiMCZaEQdQGx1DIya7T8euvZZy8olIokUIIUSpDRgwgK+++ooaNWpw4cIF9PT0lCGP5fbt27z33nuFOwxNnjyZlStXKsPEM3LixAm+/vprwsLCOHbsGPfu3VOG8Morr9C1a9fC47333pO+Ok/R2wY9ybz5D61aNuSva1c5fvx4kcoiTU1NevX6sLDSRX4+QoiS0NSsDkCVKlWYMGECXl7zSvX7o/wTLdlYeDliqaM6c4uUyH2sC4kng/b4fL8CG13VeSB9H3bvrSZFJ5sMzcEEfzMBA0VIniwiZw3DMeQaNRq2x9TKFEvDenArjagdQYTHpXGrqTWBu2dgVPKXpZQqwjWUtydJtGQR6TQMx/BrNLFbzs65HfKSTvmJFj0jc4waqoZfIirmDFm36jFo914826vMPaHKlGh5vBo3IYQQas6ePUtwcDAAI0aMKLMkC8CoUaMKkyw9evRg+fLlyhDxFN24cYPQ0FDGjRvHG2+8QceOHZkzZw5Hjx7l3r17VKtWjY4dOzJp0iQCAwNJSkri2rVrHDhwAE9PTywsLEp1Ey7Khqbmy/TsYc733//AxYuX8fcP4MMPPyy8IcrJyeHrr/czcuQIGjd+k08/nUl6erryYYQQolj37t3jiy++oF27NuzevUs5/QzVxtDYGLNeqocpwxesICygJ1rEszLwrPIkEgO3kUB7Js/oDimh7DqqjMiTuHg0jiHXaDXuS2K/WcGSGX3zvoeVLb5bdxO7ric6yaFMX3xaeWqZqQjXUHFdJGT0MBzDszF020JIQZJFheE4N3wXqBxfrCJu33hacY1dOx7wgxePJIkWIYQoA97e3uTm5lKlShXc3NyU049twYIFbN26FfJ3GNq7d69s4/wM3Lt3j//9738MHToUXV1d+vbty9q1a0lJSYH8HX9sbW3Zvn07f//9N8ePHycgIAAHBwdatmypfDjxjL3++uuMGzeO/fvDuHr1D7Zu3cagQXbUqVMH8pNpy5cvo0WLZkyf7swff/yhfAghhChWWloaw4YNxdz8Q86fP6+crlC0e5nSHUi9otzZ7SzhYWlgZIyplQWmZLMrMJYcRRTpB/BdkwZGrqyZUfzSHG0TVzwsa6OVco5k5WRZeIJryLkSi6etJYb6Jhjom2Fk68nOeNXeXkdx1jfBZtNp4je5YdnJBAN9Eww7TcAzQtnIPkstxqDTUBy8Y1FN16dsGoWBvichMYsxbWuCQVtLnMOy8s7d4YldN8u8c/VNMOw0lCmbTpOpcn6p5Vwk0HY0brFgunQXO0c0prhFYsVq1pwmADm3lDOihCTRIoQQTyg1NZVt27YBYGdnR+PGjZUhj+XQoUOF2zhra2tz8OBBqYR4yn777TdcXFxo1KgRvXv3Ztu2bdy4cQOAevXqMXz4cPbt20dGRga7d+/G3t5e+nw8Z/KSZAPZvHkLly+nEBDwBc2btwDg5s2brFzpT4sWzZg2bSpXr15Vni6EEMX65ptv6NDBkM8/n0dOTpEURcWQeJoEQEtb8Xfr6D52pUCX/kboahozyBKI3EaIosgvPfYAxwCLcRYoVx7dp4nZsnDC1/elqXKqDDzuNeTELMaspzshWUY4L/XGf+l4umcdxmvgMJxj1Bupp6xxZ/iabIxneOPvNQBDzTPsmjwRv8SCiKvstLXB3ucMOv2n4x/gjUf/elwIdMfEOkiRYIrGbVI8Ru7e+M0YiY2RFomLR2PvcZhMo5H4BXjj7zUYI91LRPlMZEqwMqFTQpmn8bMdxvyE2vQL2MJKq4f32FGT8xdxq7dxmHr062+knBUlJIkWIYR4Qj4+Pty5cwcNDY3CxMiTOnPmDAMGDCA3N5eqVauyd+9e2cb5Kfn7779ZuXIlXbp0oWXLlixYsKCwckVPT49JkyYRERHBn3/+yaZNm7C2tkZTs8SfEYkKTFNTkzFjxnLq1Gl27dpNly5dIH9Z0RdffIG+fnMcHSdz5coV5alCCFFETk4O8+bNpUMHQ7755hvl9DOUQ+b5WFynbSeV+gyyb6M2G7sjlCy6Y5f/5ty4f0/gDHsj1d/0Jx2NB5pjWB4ZlBJ6vGs4y0qPUDLMXIk96Mlwq7xlRksOhuBndo0DHtsozKEAWTnt8Tu4Ald7Y8zsP2Hzbkdakcbho3nJ95wIf7wS6uGwexeb3fOWLdm5ryB232D0kvxZEqGeaOs+90t87Y2xHGGLse4J9oZlo2PpTcgyWyx7GWNmP4G1+7wxBY7FPKCZ8cOkHMbVfCLrkgDq0bTpwxvaHhiTX4VTcLSzYbjfJbovXY+vidzfPC5JtAghxBNIT09n7dq1AHz00Ue0bdtWGVLE/v37lUNq0tPTMTc3Jzs7G4BVq1bJNs7l7Pbt2+zdu5f+/ftTv359HB0d+emnnyC/sdmQIUOIjIzkypUrBAQEYGZmJku4XmAaGhr062fD4cNHiIyMxsLCEg0NDW7dusWaNWto1UqfSZMmcunSJeWpQogK6vTpU+zZE4Svrw+zZn3KlCmTGDFiOAMGfIyFRW9MTLrTsWMHWrZsQcOGDahTRwtNzeqPPEri/PnzmJt/yLBhQ0lLS1NOl7NzzO+peCOt34uuFu7sTW+Ow7r1TFftcpsTy65wwMwC04L32CZ9GaQFCWuC1BIQeWuJGtH0DdXB/Kasat/PBAP9UQSWR476ca7hfBxRKdBEC+IiYoksPOLJrFEfUuKIU71WY1PMVAuK32hEEyApPu9vQGzYYajRCJ30OJXHiiXyyi10gaiweJWTm9PdSDXx0QHXb8KJXdZVfVmPZnO6tAJuZRddsvUISYH+7M1ozpiA8XThHEvGrFL/uSnoGZnTz0blMGuNVo1rHJg2mrHBF5XhooQk0SKEEE/Az8+PW7fy1q/OmTNHOV2sr7766oHVKbdv38bKyqpwG+dJkybJNs7lKDk5menTp/Paa69hY2NDSEhI4c/znXfeYc2aNfzxxx9s3boVU1PTCt0JX5QPY2Nj9u7dx88/n2Do0GGQ///T9evX0aJFMyZOnMCff/6pPE0I8Qzcvn27MKEyd64X9vZ2GBq+Te3atejYsQNDhgzG09ODZcuWsnbtWnbs2M7+/aFER0dz9OhRTp8+xe+//05GRgb//fef8uGfWHDwV6xfv045XM7qY+HljX+AN/4BHrhYNqIGNWhlt4iY4xtwNVGvdkgP3kYUYGpjpPLGvwOWVrUf0BT3EsnKBIpmIyxV3ribtirvJbWlvIaUs1wALoT44jjZXe3wCk8DzpGktt4nr2l68a6SkgzcimOJ4rEcJ+8hASD5Enl1sQ+TQ+aVs8RGRBHo7YmD+WjmJwFXrpGhDH0UHSN8Dmxgeq8h+M1vDynbGTfr6AMTNsU2wz2+BedW1zjs4l9kyZgoGUm0CCHEY8rOziYgIACAnj170qlTJ2VIsZKSkvj9998LG2+qUu4wtGLFCmWIeEJ3794lJCSEDz/8kObNm7NkyRKuX78O+UuDXFxcOHv2LD/88ANjx45FS+vhJbeicmjdug3r12/gwoWLODlNK/zvYsOG9RgYtGT+fN9yeWMmhHiwf//9l717Qxg/fhzt2rVVS6h4e39OcPBXJCUlcvv2beWpvPrqqzRu3Jg2bdrStWtXTE1Nsbbuy+DBQxg3bhzTpjkze/ZnjzxKqkePHvz003Hc3Wcrp8qZ6q5DpgxftpUQt0Yk7ZxJf6ejimarfxEVfAaAqMm91KpBhu/MBkVT3FYm7YFzJCi73Op2ZazKG3fX/vUVASqKrTwp5rAOKjZZ8STXYLEuhsTfij98TZTRj9DKkchiHifxtxgSQ21R3T1ZKTl4Bsb6vejaczTjpvmxOTINbeOemD7spIdoNW46Ns3y/q3b3wMfI8gI8cVV0XvmoTQb029EeyCO2IeVw4gHkkSLEEI8pmXLlhUu7ynNTkNJSUkAZGZmUq1atcLxRYsWFe4w1KRJE9lhqIylpaUxd+5c3nzzTfr3709ERAS5ubkA9O/fn7CwMFJSUvD19aV58+bK04WA/GTcggULSU7+HReXvJ5M2dnZeHjMoU0bA3bs2K48RQhRhi5fvkxAQAB9+ljSoMHrDBo0kE2bNvLbb78qQ2nQoAFmZmZ88slUVq1aTWzs9/z119/k5NwmNTWN3347x88/nyAm5jDh4QcJCtrDxo2b8PcPYP78BXz22ZxHHo/y5ptvsmPHTg4e/B8GBq2V089E0xHLWWNZj4zwmQzfpLI0JDGItQmA0eD8ChjVYzr9Gqo3xdU1NsUQOLAz6vF3x3nDmsDvQ4h51LHVuthkxWNdg2599ICEuKLbWpdePXTfAJJOkPCgkpGHSd+Hm0scOWauhJ2MIfFUOFHfrGKle9+8XX+e2KvYLHWlC9c44OJHbIlfJPGkJNEihBCP4ebNm/j5+QHQqVMnTE1NlSHFSktL459//in8+u7du2hoaGBqasqsWbNAdhgqc9HR0dja2vLmm2/i4eFRuHNM/fr1mT17NikpKXz11VdYWloqTxXigbS1tfHymstvv53j448HAHDlyhVGjBjOu+925ciRI8pThBCP6fvvv8fNzZWOHTvQvHlTnJ2diIiIUNvNp1u3bkyYMIEVK1YSGRnNH3+k8/vvlwgLO8CiRYsZOXIURkZGT21nOE1NTVxd3fjll1P07/+xcvoZ08J4risWOpDk41XYOyUxLJpUajPIcUJ+BYzq0Rfnca2BM6wNzE9Q6PbFx605RHoxfHHxWxHnXDmA35qHNXTVRFv3VXQfdWg/oCnr41yDgSmWDSF1xzYi1U7IItLJEoNOboQX90DF0sTUpjtwmLWqSSuA89uw0TfDcvVDEjqJJ0gAuttY0FTlKebEHyC8uBKex6FrkbeEKCOa6XNii32NirrI3k3xQHuMVXv4iBKTRIsQQjyG1atXFy43+eyzkpcOF1SzKEVHR6vtMKSvr68MEaWQmZnJ8uXLadWqFaampuzZs4c7d+5Afs+NnTt3cunSJebNm4eenp7ydCFKrHHjxmzfvoNvvvmOjh07AvDzzz/To8f72NvbcfGiNBIU4nGcO3cONzdXGjd+k549P8DPbzGnT58qnH/99ddxcBjO9u07SE//i2+++Y7ly/0ZP348xsbG1K1bV+3xniZLSytOnEjA09OLWrVqKacrBu2ueHr1RItzzJ8URAon2LUjDRpaM6irMjiPbv8hmAKpO/YRlz/WdMRyAu0akbRmIl07jWKKdxDhEbFE7liF89B+tO/py4GMenR3m46NsmFtGSn9NbRgrFdPdLKicew2FM8dsUSGBeE6dBiO4dm0chyPZSk+69LsNR6XVpDkNwzj0asIj4hl52I3LPuuJkmnO672LZSn3GfQlS7AgWn51xERRaDTKIwHhpLxsNYwpVSwhCgr3L3IltEJa3xwnaVyOH2CZadhLEkCHbvx2Dx432zxEJJoEUKIUrpz5w6LFi0CoEWLFlhbWytDHuj3339XDqmpW7eu7DD0BOLj4xk9ejQNGjTAycmJX3/NKyWvXbs2EyZM4PTp08TExDBo0CCqVy/ZbhFClES3bt04cuRH1q1bX5i8Cw7+inbt2uDq6kJWVinWxgtRSWVnZ7Np00Y++MCENm0M8PNbXLhLj4aGBp07d+azz+bw/fc/cPHiZdauXcfHHw+oMBWgb775JiEhewkJ2UuzZvlNMiow7V7T8bGsDUn+zJq3jV1ZYDjOlgcWMGga42BXG7KiCS9siquF0dytxB9YhItxDRKC/Zk+2R1Hj+0cTq6P6ThXgn/ay9oRbSi/n1Lpr0HbxJOw3dOxMLhGiIc7jtP8iUquz6CAXewc0Vjx+I/SmOGhIfgPb49W/HamT3bHa1M8mDiy46Anxg974roWrNztiOkb19jl4Y7jZD/WpbTGdV8Ia/vXhqQTJD7OkqQiCpYQwTGXmWo7QKXGHWRviMoRfoYM3fY4BOwicq761t+i5DRyCxaoCyGEKJH169cX7gS0detWhgwZogx5IBcXFxYsWKAcVqOtra22vEg83H///ceOHTv48ssvCxsJF2jdujWTJk3CwcFBmtpWYm8b9CTn3h1Gj7TDyXmccrrM3bhxg0WLFrJ06RJu3rwJgI6ODp995sHYsWOl95IQCt9//z2BgZvYsyeIf//9t3C8bt26mJn1wtzcHAsLS3R0dNTOqwjytnnWxNl5Op9+OqvUFSxHjhxn/PiZAGzftpJOnd9Whgjxwti1cx9zPPKW3gcHb+S119Qrz7S1tSv0Do+pKWn0Nh8MgIeHE1ZW6q0DatasSY0aeaVIUtEihBClcO/ePebNmwf5Swbs7e2VIQ/1oKVDqgqa5K5atUo5JVScPXsWZ2dn9PT01HZrqlatGra2tnzzzTecPn2ayZMnS5JFPFW1atXCw8OTU6fOMGiQHQAZGRlMnepIx44dOHjwgPIUISqdtLQ0Fi9eRNu2bejZ8wMCAzcVJlnef/99tm7dRkrKVbZt286wYQ4VMsnC87JMSAjx1EmiRQghSiEoKKiw54KrqytVqpTu1+ijlg4VuHv3LhMnTmTixInKqUrtzp07BAcH06tXL1q2bMnSpUv5+++/IX83GE9PTy5fvszu3bv54IMPlKcL8VS98cYbbN68hdjY7wv7tyQlJdK3rzUWFr05c+a08hQhXnjx8SewsxtE48Zv4u7uxtmzvwFQp04dpk514uTJU/zvf5HY2g5U25mvonpelgkJIZ6u0r1DEEKISu7zzz8HQFdXl5EjRyqnH+rOnTslqmhRtX37djZv3qwcrnTS0tLw8vKicePGfPzxx0RGRhZuzdyjR4/CBJiHhwf169dXni7EM2VkZMSRIz+yaVMgb7yR1w0yOjqazp07MWnSRP7880/lKUK8cGJjY+nTx5KuXY0ICQkuHH/33XfZsGEjV66ksnDhIvT1W6qdJ4QQzyNJtAghRAmFhYVx6lTejgezZs0qXINZUleuXFHbivJBtLS0GDZsGGFhYWRkZODg4KAMqTSioqL4+OOPefPNN/H09CQ1NRXy1/BOmTKFpKQkoqOjGTBgwHPxyaeovDQ0NLC3H8zp04l89tkcatWqxd27d1m/fh2tW7di4cIF/Pfff8rThHjuhYeHYWz8HmZmPYmIiCgcHzNmDCdPnuLbb2MYMmRoqf+mCiFERSaJFiGEKCEPDw/Ib843adIk5fQjPaya5aWXXqJ///7s3r2b9PR0Nm/ejKWlZaXcGef69essXbqUli1bYmZmRnBwcOHWzO3atePLL78kNTUVf39/WraUTz7F8+Wll15i9uzPOHMmiSFDhqKhoUFWVhaffTabdu3asGvXTuUpQjx3cnNzCQkJ5p13umJj04+4uLzNgGvVqsWUKY78/vslAgK+lOoVIcQLSxItQghRAt999x3Hjx8HwMnJiZo1aypDHkmZaKlRowZ9+vRh69atpKen89VXX2Fra4umpqZaXGVx7NgxRo0ahZ6eHs7Ozvz2W966/erVq2NnZ0dsbCy//PILEyZM4OWXX1aeLsRzpUGDBmzYsJEjR37AyMgIgEuXLuHgMAxj4/cK35gK8Ty5e/cu27ZtpX17Q+zsBnHixM+Q339l1iwXzp+/gJ/fEho0aKA8VQghXiiSaBFCiBLw8fGB/G3bpk6dqpwukd9//50qVarQo0cPVq9ezZ9//sn+/fsZMmQItWvXVoZXCjdv3mTDhg107twZIyMjNm7cWLgd7ptvvsnnn3/OlStX2LFjB927d1eeLsRzr2PHTsTGfs+WLVtp3LgxAHFxcRgbv8eQIYMLm28LUZHl5OSwZs0a2rQxYNSokSQlJUL+tuZeXnM5e/Y8c+fOo169espThRDihSSJFiGEeITjx4/zv//9D4DJkydTt25dZUiJWFtbc/XqVaKjoxk3bhx16tRRhlQaZ8+excnJCT09PUaPHl1YLaShoYGZmRkhISFcuHABd3d3XnvtNeXpQrxwBg4cxC+/nMLLa25h4nXPniDatWuDu7sbWVlZylOEeOZu3rzJ8uXLaNVKH0fHyVy4cAGAhg0bsnixH+fOJePi4lqp/94JISonSbQIIcQjFFSz1KhRg08//VQ5XWI9e/as1EmDO3fusGfPHkxNTdHX12f58uVcv34d8vveODk58euvvxIREUG/fv2oWrWq8iGEeKG99NJLuLi4kpj4Kw4Ow9HQ0CAnJ4fFixdhYNCSNWvWcPfuXeVpj1Tw/zMhyso///yDj483zZo14dNPZxY2Km/atCkBAV/w669ncXT85LGW2QohxItAEi1CCPEQZ8+eJSQkBIBRo0ahq6urDBGPkJqaioeHB40aNcLW1pbo6OjCuQ4dOrB27VpSU1NZunQpLVq0UDtXiMrotddeY+3adcTFHaNbt24ApKen4+g4mc6dO3Ho0CHlKQ80ZcokFi1aqBwW4rGkp6cze7Y7zZs3xcvLk7/++gsAA4PWbNy4iVOnzjBmzNhK2chdCCFUaeTm5uYqB4UQz5a5mR0XLud9OiTEs7B0kQeW1qbK4RLLzc0lMjKSL7/8ktDQULVP4TU1NbG1tWXSpEm8++67aucJUR7eNuhJzr07jB5ph5PzOOV0hRcc/BVubq6FyzLIr5Bbtmw5LVu2UotVqlXrJapXr05Cwkneeust5bQQJXL16lUWLVrIhg3rC/toAXTs2BEXF1esrfuioaGhdo4omSNHjjN+/EwAtm9bSafObytDhHhh7Nq5jzkefgAEB2/ktdfUl+Nra2tX6N8lqSlp9DYfDICHhxNWVur3yjVr1izcql4qWoQQQpSZ69evs2TJElq2bMmHH35ISEhIYZKlcePG+Pr6cuXKFbZs2SJJFiFKqH//j0lIOIm3tw9aWloAREdH06FDe6ZMmURGRobyFAA++siKu3fv8t9//zF7trtyWohHunDhAhMmjEdfvzkBASsLkyzdu3dn//4wfvjhKH379qvQb4yEEOJZkIoWISqggoqWli2a8uGHJsppIcrF9euZbNkWDI9R0RIXF8cXX3zBrl27+O+//wrHNTQ06N27N5MmTcLKyooqVSS/L56+572iRdWff/6Jh8ccNm3ayL179yD/E8BZs1xwdPxEbXt4TU315RsnTsTTunUbtTEhipOYeAZfX1/27AlSq0js3bs37u6f0bVrV7V48fikokVUJpWpokUSLUJUQAWJlr59erHQ7zPltBDl4kLyJcwthkIJEy03b95k27ZtfPnll/z8889qc/Xq1WPkyJFMmjSJpk2bqs0J8bS9SImWAmfOnGbq1E+IiYkpHHvrrbf4/HNvbG0H0r69IYmJZ9TO+fDDD9m/P0xtTAhVx48fx9fXh6+/3k/BWwQNDQ369u2Hq6sr7dt3UJ4inpAkWkRlUpkSLfLRohBCiFL59ddfmTp1Kg0aNGDs2LFqSZbOnTuzceNGUlJSWLx4sSRZhCgnrVu3ISIiiqCgPTRr1hyA33//naFDh2Bs/F6RJAvA//73v1I10hWVx3fffYelpTndur3D/v2h5ObmUq1aNQYPHsIvv5xk167dkmQRQohSkESLEEKIIm7euMk///xTeGRkZLBz50569OhBq1atWLFiBf/88w/kb0k7YsQI4uLiOHbsGCNGjOCll15SPqQQohxYW/flzJlEFi5cRO3atSF/Kd+DuLjMeqwtosWL6eDBA3zwgQkffmhGVFQU5DcsHzt2LImJv7Jx4yb09VsqTxNCCPEIkmgRQgjxQGlpaXh7e9O2bVvs7e359ttvC+eaNm3KokWLSElJYePGjXTp0kXtXCHE0zN1qhO//noWQ0ND5ZSaM2dOs379euWwqETu3bvHV1/twcioC337WvPDDz8A8PLLL/PJJ1P59dezrFz5BY0aNVKeKoQQooQk0SKEEKKIU6dOMXjwYNq0acOiRYv4448/AKhSpQp9+vQhPDycc+fOMWPGDOrVq6c8XQjxDOjo6JCUlKQcLmLePC8yMzOVw+IFd/fuXbZs2Yyh4dsMHmxPQkI8AHXq1MHV1Y1z55JZtGgxDRo0UJ4qhBCilCTRIoQQooilS5cSHh5euMSgbt26zJw5k+TkZPbv34+FhUWFblYmRGU0dOgQcnJylMNF/PnnnyxYMF85LF5QOTk5rFq1CgODlowZM5rffvsVAF1dXebN+5zz5y/g6eklSXMhhChDkmgRQgjxQF26dGHVqlX8+uuveHt707hxY2WIEKKCCArarRx6oJUr/fnzzz+Vw+IF8u+//7J06RL09ZszdaojFy9eBOCNN97Az28J584l8+mns9DS0lKeKoQQ4gnJ9s5CVECyvbN4FlS3d9Zv8hqzZjvRrl27wvlatWpRvXp1lTOEeD68iNs7K5mYdOfo0aPK4YcaO3YsK1d+oRwWz7nr168TELCSlSv9uXbtWuF4s2bNmDFjJsOGOcjv8gpEdXtnISoT2d5ZCCFEpTNixAi1JIsQomIrbZIFYMOGDZw5c1o5LJ5T6enpuLm50rx5U+bO9SpMsrRp05bAwM2cOnWGUaNGS5JFCCGeAqloEaICkooW8SyoVrT4eH2KmYWx2rxUtIjn1Yte0bJt21b++OMPNDVfombNl3jppbyjZs2aaGoW/Dvvf/NiaqrFiOfblStX8PNbxMaNG7l582bheOfOnZk1ywVr675q8aJiSUlJY3/IIbWxe/fucef2HbUxIV40toNtqFVL/b7yRapoeaJES3z8KWY4eSqHhShzWwL9adC48nTBl0SLeBYk0SJeVBUl0XL48DG8vfyUw0I8ttzce1y+fFlt7CXNl9Cuo81LLz2dJJrHvFm8804H5bB4Anfu3OHff/9VDgvxwpNES74ffzzB8OFTlcNClLnIyG28+eabyuEXliRaxLMgiRbxoqooiZZvI77H0Vl+p4sXyxcrPse4RzflsHgCkmgRlZUkWvKpJlqMuxmh+5psCyfKzpVLKcT9fBIk0aKcFqJcSKJFvKgqYqKl5wfdqFtXWxkixHPh+vV/iP72B5BES7mQRIuorCTRkk810bJl83KMukrZoCg7+0P/x4yZn4MkWpTTQpQLSbSIF1VFTLTs3bseA4MWyhAhngunT/1K/4/HgiRayoUkWkRl9SIlWmTXISGEEEIIIYSoIKpUqYKmpqYcclS640UiiRbxXPj333/JyspSO+7du6cME0IIIYQQT9F/N/8rco92547smPMkqlSpUrgzmBxyVKajIlezlJYkWsRzITc3l3v37qkdQgghhBDi2bqXq35/JvdoQgghiRYhhBBCCCGEEEKIMiOJFiGEEEIIIYQQQogyIokWISqTK0HY6JtgoG+C6eKzytn7Yjwx0DfBQH8UgVeUk5XJCTw7mWCgb4nnUeXcs5RF/KYZ+MUox4UQQgghhBDPmiRahKikUsOiSFQO5osNjlYOVU5HowjPqoeOTja7AmPJUc4/K1cO4uUTR4pyXAghhBBCCPHMSaJFiEqoSavmkBJNeLGZlqOEhINew/rKiUomh8jAULIamuPcvz5EbiMkXRkjhBBCCCGEEOok0SJEJaRpZYEFaYSHFV0+lBOxjwP0xMGutmImi/gdnth1s8xfVmSCYaehTNl0mszCmKM465tgs+k08ZvcsOxUEDcBz4i/1B6N9Fh8hw7FqG1ejIG+Jca2i4lUJjPSY/EdOhDD/BibObGkR3gWWdaUcyUWT1vL/DgzjGw92RmfpfJA+de2OpbAoXnPwch82wOresg5zN5I0DI2xsaqJ3qcYW1g0dcLID1iBQ49zPKeR6dReEb8RaSTCQbWQWpVJ5nxQUwxL3j9LLEcukL9+cbkP6/40wROGopR4XNReV1iPDHo6U8ScGCMCQb6nlLZIoQQQgghRAUiiRYhKiNNI+zsahezfCiH2JDDYGmBsabaBImLR2PvcZhMo5H4BXjj7zUYI91LRPlMZEqwehIlZY07w9dkYzzDG3+vARhqnmHX5In4FXyzzCimvOfO5uR62Lh74x/ggYtNI0gIxbHvYuILHijzKM593dkcXwNTNw/8vczRinSnv0dhBAA5MYsx6+lOSJYRzku98V86nu5Zh/EaOAznGNVkCyT5ubNO0xq/gOkMGm6EgdrsfenBQURRG8v+bcCgLw6tIHXHPuIUcZkxnvSfvIcEze64LPXGo39toiaPxksRmLJjAsYD/UnQMccjwBt/L3N0kvfg+N4oAs+rRqaxbtJU1mUa4Rzgjcfw1mgmhOI4cFXez8pgCP5ePdEDDId74x8wBB3V04UQQgghhBDPlCRahKiUamBk1RMt5fKhnDj2RoJF/66o51lOsDcsGx1Lb0KW2WLZyxgz+wms3eeNKXAs5pxadFZOe/wOrsDV3hgz+0/YvNuRVqRx+OhVANIjo4ir0RyX3fkxvUwZvmAVa8bVh4wzJORXqsQt9uJARnNc9m1lyQjTvMc6uIguXFP5bmdZ6RFKhpkrsQc9GW5ljJmVLUsOhuBndo0DHoqqlYYD8F8/ActefZlu30J1RsVVwnecgYbWDGoP0ACz/s0hK5pwtaa4J1gyLZqMVo6E5H9vO/cVhK1rDxkqYTmx+HqcQWf4l0Ru/QS7Xvmvy5H1jGl4jvl+qv1fsskx8iAsP87OfQU73ZpDShxxVwDdFpgZt0Eb0DM2xqxXC8XPSgghhBBCCPEsSaJFiMqqqymWWurLh3JiDhClZY2diVok0AHXb8KJXaZIwGg2p0sr4Fa2eqNYY1PMtFW+fqMRTYCk+EsA6Pb3Ie7UBoa/oRIDGBi1BrLJyAI4TXhYNpgNwa6ZSpB2V6YMb3T/6/NxRKVAEy2Ii4glsvCIJ7NG/fsJigKGXWmv8mWxEvexOQn0rEwLK14aWvXFEEVT3PgowrPAdLw1Te+fjbbJSBxUB2KiiKIGTXWuEat2jWnc0gEio9QqZbpbGaP68jVs2gg4R0KyyqAQQgghhBCiQpJEixCVVgcsrVSXD+UQFXIYLStTjJShhXLIvHKW2IgoAr09cTAfzfwk4Mo1tQIOqKH21YPkZP5F8tFYIneswnXSBIwmRQNppKQDXCMzC5oYNi9SsdHUoPn9L1LOcgG4EOKL42R3tcMrPA04R1IpExRxO0JJpT6WVioVL7rd6WeIelPc9GyyaIRhK+UVNqZVq/tfpaRcAm5x2E/9+hwnu7M5AeASyarJIOXDCSGEEEIIIZ4bkmgRohJTWz6Uc5jwyNpYWnVQhgGQHDwDY/1edO05mnHT/NgcmYa2cU9MGyojSyDzBL7mZrTvbIPVMHfc/KNJyKzPILPW92NybnFL9ZxHsFgXQ+JvxR++RSp0HuZEXiUNaazrW9Co1wQDfRu8EgCVprg5t0pzhc1xiS56bXlH0eoeIYQQQgghxPNJEi1CVGYqy4dyIqOI0uqJZVdlEJC+DzeXOHLMXAk7GUPiqXCivlnFSve+NFHGlkDcYnc2JzfCYUsI8b/FEHdkN+FbPZnSq979IM366GjBhYRz6suSgJTkvCVIAOjWRw9IiCt+R6DSyokIYlcW6NlMxz/AW3EMpgv3m+JqNqyHFpdISFJe4VWSVapodHTrA+c4lqCME0IIIYQQQrxoJNEiRKVWsHzoAEvCDqNlZVH8sqHEEyQA3W0saKqyrCUn/gDhpd5b+CqJ8dnQ1JRBXV9VWSWTRXjYYZW4Nlha1YbIbexU25XnLDsDVZrvGphi2RBSd2wj8v4+00AWkU6WGHRyI1xt/GHylk9Ba8bO6ItZL2PFMYEpdrUhK5TNETnQ3hRLLYhaHYra6qT8Hi8FNM0sMAWiVu9Rj+Mia61NMHzYNtNCCCGEEEKI54okWoSo5PKWD+1hc2T+VsbFMehKF+DAtKF47oglMiKKQKdRGA8MJaNk7VhUNMCwfT1IXs3w0asIj4glcscKHHrY4Baj/mBGM1wxrXGO+X2H4rwpisiwVYztNpp1asmdFoz16olOVjSO3fKvLywI16HDcAzPppXjeCxVO8s+TPpBNkcCZkOw0VVO5jGyt0YPiFpzkHQ64Dy/OzWS/LEx9yQwLJbwxTMw7rudVNWTNI1xdmsOSaux6jYDv7C8vjRTzEezJKkepm7WD9xmuliatdECDq9ZRXjE2SIVP0IIIYQQQohnRxItQpSxuDjV/WOeA13zqjLQ6km/B23Ho2vByt2OmL5xjV0e7jhO9mNdSmtc94Wwtn9tSDpBYine7befux5/u9bkHN3O9MnuTF8ch7aVN5EHp9NFdRmQtjErv/FmkME1ony8cJwWSoaZN4HTVZrhAtomnoTtno6FwTVCPNxxnOZPVHJ9BgXsYueIxmqxD5MYuI0EajNouPGD+9Ea2DLWEEg4QFQ6aPfyITLAGoP0w8yf5s70HdcwDViOs0ozXICmIzYQEzCALtpnWDfNHUePPcRhhMvuLSwx0VIPfhTd7kwZ3hzitjN9si8ppXjthRBCCCGEEOVLIzc3N1c5WFI//niC4cOnArBl83KMuhbfRLO0IieZ4BjZHp/vVzzwU2VyYpnSzp0oy0UkLiuuqYRCjCcGY6KxWBfDklI1xnwcVwm0HsR8HIkMteWBvUKf6jXdl75jAiYeZ8BwOjFBfSnyEudfV3FqaNXHwHgILnP70r6gSqCcnsf+0P8xY+bnAOzduxo9PT21eS0tLapUqXi5wg8++ICqVavi7+9P69YqzV1LwdzMjguXU+nbpxcL/T5TTld6yauHYuXXHP/fPDFTTlYIF1lrPowlrbxJXGasnKywLiRfwtxiKAA+Xp9iZqF+7bVq1aJ69epqY0I8D9426EnOvTuMHmmHk/M45fRT823E9zg65/1O37t3PQYGKjublZksEoM34rvmIAnJ2XlNxWvUpkn77jjMcMSufSkTuxVMyqZRmPk0Ys1vnjzwt+uT3JdknsB3tDs7E/JeO4uACJb0emDqvWRyrhLp78+64HgSMrIB0NJpTXdHRzzt21DSosuK5PSpX+n/8VgAFs93453uXdTmX375ZapVq6Y2JoQQz7vUlDR6mw8GwMPDCSsrU7X5mjVrUqNGXoV+xXuXChjbdAfi2RX5l3KqUHpYEFHUZpB9CZIsQsVfRAWfQUunHiRsY/NDGkNotepOPxtztcO4YTYJ4X7YD1wlPSUeIjo6GkNDQ2bOnMmNGzeU06JE/iJkqBlGQ/eh3gbmIlFhl6BVm9IttykP6QdwaGuJw46r6uPnDxOeDK3aq1feCCFEucqMxbWbFf1dQknRMcLBK6+Rt9+M7uikROM10ArLOScocduqSih5hx+bE2pgNM4D/wBvxrZ/siRLzvkg7DoNwnHNGWoYj8QvwBv/pY6YNk3jgMdEuloHKXp3CSGEeBFUyESLZi9bBmlBQvBh0pWTkJcs2BEPDa0ZVNI8i4knib89xicb5elZXFNiEGsTwMhxPKaksWvHCWVEoYb9HfFd4KZ2rAwNJ3hcfUjeTkCErFd4mDt37rB48WJatWrF119/rZwWj/Qq3fu3JivOD7uhK9gZkdd7xTm/r4nFDPMHV4s9LbpG2LTP5pjHRBy89xEZEUv4Jk8s+64mSacnzv0bKM8QQohycha/vu7szWjOmN0hRG31ZLp9XiNvyxFubP4mhDWW9biw04sl8cpzRYGUxEtAexxmmGLWyxiDImW/pZAZi+tAfxK0e+L/0142L7DFspcxZla2+G7dS8z87mgl+TN8zmnlmUIIIZ5zFTLRAh0YZF8fEvYRfkU5B1yJZlcCtBreN/8T7RxSIlbgYG6Jgb4JBvqWWA5dQaRqlibGEwN9E5xjVMYyT7PTaQJGbU0w0DfBsNMEnHecVvukJ+dKLJ62lhjqm2Cgb4aRrSc747NUIp6A6jXFL8ZI34QpYUWTF7FOJhh0WkxB548nuabEsGhSaY+pWU/6mUHWziAii37LhzKwydvSNyXlmnJKFOPy5ct89NFHfPTRR5w/r7Z9jngE3f6LiAywpmHyQbwmu+M4bTWHtbrj8Th9TcrFq9is34W/XX0uBPvhWNBvxmw6Ow56Yvw81oMLIZ5L6cH+rEuBLvMXMb3Y5UFaGC+YjoVWbVISL6qMZxG/yQ3LTnn3QgadhuLgHav2QVfKplEY6HsSma56/2GJ5aQg4hXlMY++RzmKs74JNqtjCRyad99mVLDzWnosvkOHFt6XGehbYmy7WP1+7rFcJdDaBAOnWNIjFmPXyazwuU7ZVHDfl3dd48IBohmnb4KBdVBeRWXOVSK9P3noa1ScxDX+HMiqzaClnpgV8/dAt/90nI1qQ+IZlaqWkt7TjmJtRBAOnfJjVuf3Nsu5SuSch9/bCiGEKH8VNNECBlY90eMcm3fm/+FQkbgziCRaM8gq79Pi5E0TMZu8hwta5ngEeOPnZgTxe3B8bxSBD3pfm3kUZ/OJeIWn0cp+Ov4B07EzyCvjHL4pbxlATsxizHq6E5JlhPNSb/yXjqd71mG8Bg7DOaZkiY0Sa9+XQQ0hKuywYgeRo4SEU7jt7pNd0wl27UgDIwu662piZtcTOMy64Acv0SpWxlUylGPikb7++mvatGmDh4cHOTmlzG5VWpo07DWDnUfCSfwthsTfIokL8qxYPQY0G2A2dxWxx2PyrvFUODuXqfQwEkKIcvcXh4PjgZ6M7f+qcvI+TWOWHN/KWvuCJuFX2Wlrg73PGXT6T8c/wBuP/vW4EOiOSZElLfF49fUiruFIfAM8cLGsR0qkP/YusYX3LaW5R0nyc2edpjV+AdMZNNwIg8woprznzubketi4e+Mf4IGLTSNICMWx72LKpAgnzo/+0+LRc3TFf6kjFrppRPlMxC0iB2jO2ABvHAwBWuMQ4I2/uxE6XCTQdhCOgZfQ7j8977qMIaHY10jVWcLD0h5Rff0qdlvDiQ2ypWn+SMnvac+xZPI2NO098PeyxsGkBeQcxbPHIByDs+k+wwP/AA+cjbOJ8piIldNRSbYIIcRTVGETLQU7e6SGRSl6geT/4SrYfjV9H24+59Cy9CYs6BPsehljOcKT8COumHKO+X73bwBUJa7x40BGfcbs28tm976Y9eqL69Yt+JnVIGVnNImcZaVHKBlmrsQe9GS4VV6p55KDIfiZXeOAR/6nL2WmBZZW9SEyiijVC445wAHqM8i+DTzpNcXsY1cWmNr3zGuAa2KBBQ9boqWUQ+b5A0yZFkoWzelnJssiSisnJ4e5c+fSpk0boqOLbzgshBBClM454uKAVm0K37CXRE6EP14J9XDYvSv/XsgYO/cVxO4bjF6SP0vUlghfQ2f4esKX2WLZy5Thy7ay0hKIjMqvuC3lPUrDAfivn4Blr75Mt29BemQUcTWa47J7Ba72xpj1MmX4glWsGVcfMs6QUFyFc2ll1MNh31aWjDDNvzZvLICosHjgVQx6GdO9IUB9uvcyxqxrYzJ3+DI/qTYWAVvY6d4377qWbSV2fnco8hqpSiMlBTAsRT+xUt7T6g33Zu0MU8zsJ2BnAIn+fuzK6I7PkfznWHCtS7uTEe7Hrgd9+CiEEKLMVdxEC69iat8eUqIJV/3LfHQfu1LA1MYITSA9NooE6jNovLF613ZtCxzsakPkAfXEBQBXiYtJg1a22Kn99dPC8otI4g4OweB8HFEp0EQL4iJiiSw84smsUR9S4ogriz/6KvKqeA4TrrKWJzY4Ghr2xNIAeKJryiFyZzTQnX5mBY3dumJnV/uBTXGTfAbll60WHL3oauFLVEY9us/3YPgbyjPKz9ixY+nTp4/a0bNnT3r06FHhjoSEBOXlF3H+/HlMTU2xs7MjLS1NOS2EEEKUSg5A00ZFelflLftR/Vt+f0lMbNhhqNEInfQ4lXuKWCKv3EK3MAFRoBGWZgWVMHmatm8OXCL5ymPcoxh2pb3Kl7r9fYg7taHIvYWBUWsgm4xHFe2WRFNTTJupDjTCsBWQfEnRdL3AXxwOOwMNrRnbS72SUrt/Xj/BqBBlJXK+K2lcACBv94mSKO09raFxG5WgixyOTIOmteGo6usfS1xmDfRIIzZO0bhdCCFEuanAiRbQtbLNb9h6v0lYXFg0WVrWOORvtXcrMxtojkExH+E0bFofSCO9SLnGJZKSir8hKZRylgvAhRBfHCe7qx1e4WnAOZIeXC/6eAz64tBKdflQ3rIhPSvTvE9DnuSa0g+yLhIws8BYpYG+kVVPtB7QFLforkMDcFm6nLCfdrG2v/rNVnk7fvw4hw8fVju+++47vv322wp3XL9+XXn5D7Rr1y46d+6sHBZCCCFKr5iEQY2mpip/x7vTqjBfcJWUZOBWHEsU9xSOk/eQgPLxalDjYRvwPMk9ioqczL9IPhpL5I5VuE6agNGk6LzqkCL3co+hRg0e9hSKukVmJmDQophKofo0aQhcuVb8cuo3GtEEIG+D7RJ5vHvaAmkkJgPJB3FT/jw9okkFkhLlgx0hhHhaKnSiBU1jHOxqkxV2IL8s9Sg7d2ajZ98XI2VsKRX76UMxLNbl910o5vAt892CGmBp3xoio4jNub9syNKqhVrU41xTeuSBvJumSHfaq36qNSyULIpvilt016FPGG7VgabapbtNKQudOnWie/fuasf777/PBx98UOGOunXrKi//gQYNGsRPP/2kHBZCCCFKoTnGRkDS6SI9Q3RNhqj8HXekn/ITplaORBZzP5H4WwyJobYP/kDqAR7nHgWAzBP4mpvRvrMNVsPccfOPJiGzPoPMWisjnxP51TIJpx+6rDtx8VCMzN2K3/zhcVguKvK6Fxxxczsoo4UQQpSTip1oKai4yIom/CjkROwrkniooV0bOJeXxVdISU4DGtGwyBKXB5eKpmwahWEnT8Jr1kcPSIgr2oy3POmaWWDIYfbGZOUtG1Jd3qT7uNd0ls1rzgDtGRPgjb/i8LCp/3hNcZ+itWvX8vXXX6sd0dHRfPPNNxXuMDQ0VF5+Ec2aNSMqKoqdO3dSv3595bQQQghRCq/S3ao1EM2usJKusamH7htA0gkSSvrp08M89j1KnrjF7mxOboTDlhDif4sh7shuwrd6MqVXPWXoU1QDbW0g8WyRBBakcSEFaFr/AcmoBhiZ1IeUUHYdVc4VOEt42CWy0uuh88bj3tMWqEfDhkDCiYcmdoQQQjwdFT7RQte+DGqYTXhYLOEhh8FwCA4qfVV0jU0xJI1dq2PVu6lnHmDzzmww7krRt735f/ySgtip9tfoIuHB57jVsA2GXUyxbAipO7YRqfbAWUQ6WWLQyY3w8mjfrtudQUYQFeZHSDgY2ve8/wfc4DGvKTGK8BTQshvJ9F7GmCkOuxlDMAQS1gTJH+dypqmpyZw5czh9+jQ9e/ZUTgshhBCPRdfeFZdWEDVtKn5q2ykXyCEleDXrkgq+1sTUpjtwmLWbVLd7Bs5vw0bf7P6WwSXxuPcoAFwlMT4bmpoyqOurKst7sggPO6wW+XTlJ7BSQlkbof6aZgYHsSsLups8uOLGYNx4TMlm1zRPxWtC3rbai31ZlwKtHIdg9Nj3tAXyN1Uo7lojPDHSt8RZMS6EEKL8VPxECy2wG96crDA/lkSC6QjzvB1zCuj2xcetOVnh7ljZrmBnRCzhmzyx7OZLFM1xcbNQj89nMG46FjpprOs7FOdNUURG7MPTfDRLkurRb4Y1DWnBWK+e6GRF49htKJ47YokMC8J16DAcw7Np5Tgey0dt35pyAN9ZPrgWObYR+8A1tq/SvX97CI/mAK3pZ6a6TePjXVPcjlBSqc8g+weUjOqaM8aMR3zqIp5Unz59OH36NF5eXmhqPv3lV0IIIV5kjRm+dTmDmp5j3UArjKzd8N0URWRELDsXe+LQrRdmLtFk6BjhMtechoBmr/G4tIIkv2EYj15FeEQsOxe7Ydl3NUk63XG1V1+6/HCPd4+SpwGG7etB8mqG519H5I4VOPSwwS2m5M1ky0NeAiubA5OHYee9j8iIKAKdhmLschhaOeL6sO20tU3x2WJNk4xoHDv3w2FWUP5zW8UUcxvs15xDx3IRgSPyd3F8zHvaAnn3ttkcmGyD5Zz8a531CVaTo8lqNZIpioa+Qgghys9zkGiBhlZ9Mcy6Robajjn3NR3xJZEBA2iSdRCvye5M94kDk8EEfr+B4Wrd5VVod2XJwS/xsKzN4cVeOE72IxwjXHZvwdck73tom3gStns6FgbXCPFwx3GaP1HJ9RkUsIudI0rQDDbrHFEhB9lb5Igi+SFlurpWfTEFMOqLqeIvaqmvKSc271MQRSWQOk3MhlujRTbhYUWb4oon8+abb7J//372799Ps2YP+g9SCCGEeELaHfA8GEHYOke6a54hxMcrrxntmjguNOzOmPnrOXpkMcPbF7zhbszw0BD8h7dHK3470ye747UpHkwc2XHQE+MHJkaKV+p7FBXt567H3641OUfzrmP64ji0rbyJPDidLk+wJOnJNWZ40C78hzciM9gPx8lezI8F43HLiQm1LaZJrjrtrjMI/+lLPCzrkxK5mumT3XH02EMcrXEI2EXksq5qOww91j1tgcJ72+ZkFFxr5CUa2nkTGfToaxVCCFF2NHJzc3OVgyX1448nGD58KgBbNi/HqOsDKiaEeAz7Q//HjJmfA7B372r09PTU5rW0tKhSpeLlCj/44AO+++47qlWrhpOTE15eXtSqVUsZ9lDmZnZcuJxK3z69WOj3mXK6nF0k0Ho0x8aHsNKq/D/9Stk0CjMfcIkuuq1n+cghJcIfv4whLLHP/xTxSWWeJnBaLE3XT8BYOfc40g/g0CMWuyM+D/kEuOxdSL6EucVQAHy8PsXMQv3Z1KpVi+rVq6uNCfE8eNugJzn37jB6pB1OzuOU00/NtxHf4+ic9zt97971GBiUpmJEiIrj9Klf6f/xWAAWz3fjne5d1OZffvllqlWrpjYmhBDPu9SUNHqbDwbAw8MJKytTtfmaNWtSo0ZeJWbFe5cqxAugZ8+eJCQksGjRolInWZ61lE1ezGc8rk8hyfJsxOM3OZQLD6kqK62UYD/mx5bhtpm6FriOOMd0lyj1dfpCCCGEEEKICk8SLUKUsYULFxIVFUXr1g9ukFdh5cTi65OGxQzrB+yiIJ4Wg3HjMY30Y4n0TRJCCCGEEOK5IokWIcqYkZGRcui5kejvT5RWTxzy+xQVyIzfh7OtJYb6Jhjom2Fk68lOtV0tjuKsb4LN6lgCh1pioG+Ckfm2/F2s/iLS+xMsO5lgoG+CQaehOHjHouwHfSvjKH5DB+Z/D0ssJwURryjnyLkSi+dDrwNIj8XTth9G+nnfz6jbBDwjrpIDcCUIG/2ZHACSfAZhoD+KwCtAjCcG+qNYGxGEQ6f875+/20bec7//eAZt1a8t1skEM59zQDTj9E0wcCrIjOSQErECB/O818NA3xLLoSuIVH3iD/m+aJsyyDKbXYv3FXmthBBCCCGEEBWXJFqEEPnOEh6WhpaVBe1VRjNjPLEa6MeBLCOcl3rj72VNq5RovAYOwzlGPcmR5OfOOk1r/AKmM2i4EQZcJNDaBsfAM2DsiF+ABy7GkBDoTv9ZR/OSHwCcY8lAd6J0bPEN8MbDrh4pkf7Yu8QWxuTELMaspzshBdexdDzdsw6rX0fOUZzN3dmV1ZxBXt74B0zHpmEauyYPYnpEDuga4RowAENAz3I6/gGOGBc2nD7Hksnb0LT3wN/LGgeTFpC4CpuBfkRltWfy0rzHG9O1Hhci/bGfdIB0oNV4bzws6wOtcQjwxn98cwCSN03EbPIeLmiZ4xHgjZ+bEcTvwfG9UQSeL/ieD/i++Yz794SEbWyWfdeFEEIIIYR4bkiiRQiRJzGK8BTobtxGZfAES6ZFk9FqPGEHPRluZYyZ/Sds/uZLHBpe44BHQdVKvoYD8F8/ActefZlu34KciNXMTwLTpSGEL7PFspcpw5dtZee4+mRGHiBKpWJFb9yX+THG2M1dj58ZEBlFLABnWekRSoaZK7EF12Fly5KDIfiZqVzH0QMcyGqEc8BiptsbY9arL65B3jg0rEFcZDw5mo0x6tUVPUC7vRFmvTrQVKV4R2+4N2tnmGJmPwE7A4gLjiZLpycr9+V/z159mb5+Pf5mQNxRkgBdA2OM29cG6tO9lzFmBq9C+j7cfM6hZelNWNAn2PUyxnKEJ+FHXDHlHPP97ieQivu+hQy60oU0Dh+9qjIohBBCCCGEqMgk0SKEACAn+RKpNMdQ9Y1+fBThWWA6foD6tpCabRgzrjWkRBOummkx7KpWDRMXeRjoySBFY12DGbtJOO6psqNOI+xsVHff0MTAqDlwiZQrwPk4olKgiRbERcQSWXjEk1mjPqTEEXcF0K2PHpfY7LOK2PNZ+cmMNrh+E0ncgq4U3RxenaFakgmM3HcTd8QTY7UTC67tFlkPaKibHhtFAvUZNN5YbdtOtC1wsKsNkQeIUjlX+X0L6TaiqRYkxV9SzgghhBBCCCEqKEm0CCEAyEhPA2qjrZpUyMwmi/o0US37yKfbsD6QRsoDG4hcJTkRaNVGPUlTrBrUKPot7ks5ywXgQogvjpPd1Q6v8DTgHEnJgMEQfIc3IjN2O+MsrGjfNq8vys6j+T1aHlNO5lUSY2IJ37QC56FDsfE5B6SR/oDnfiszG2iOQTFPvGHTvNftQeeqq0eThkDyJVKUU0IIIYQQQogKSRItQggV9dAp7FlS8VisiyHxt+IPXxMALYzct5JwcguBXoMxNahBRtwevIYNwszpaOm3Sj5/gLHdTGjfeRD9x3jhGXiYVG0jLM3qKyOFEEIIIYQQAiTRIoRQd40M1UoL7dpokcaF5KL1IOkpaUAjDB64D3QDmhoASadJVk7F+GDYaShrS9rkVbc+ekBCXP6OPI+i2Rgj+wmsDNpL3MkQ/CxrkxG+jagSVZEU+IudLr4czumOz4EIEn+LJO6b3ez84hMGFVOpoqqGdm3gHIlFnjikJOe9bg3fUM4IIYQQQgghXgSSaBFCAKCjWz8v0aJa9tHeFEstiFq9Rz1ZknOadWvOgI4RXZqpTqgzMusORLMrTHV3oiwigw9zK6s5rVT7wTyMgSmWDSF1xzYi1cpSsoh0ssSgkxvhmZC86ROM2k5gp2pCRfNV9HRrqwyU1DniEgBjC2yaqaxryjnN3rA01cAidI1NMSSNXatj1atoMg+weWc2GHfFUHX8ga5xIQVo2ogH5rOEEEIIIYQQFYokWoQQAGi2akMTLpGQpFq90gHnpT3RSVqNlbkngWGxRO5YgUOPiWxOqYfF/JFqzW+VNHuNx6UVRE0bhp33PiIjovAbPQzH8GxauY3HWHnCA7VgrFdPdLKicew2FM8dsUSGBeE6NP+xHMdjqQ1NzYxpeOsMXn0/wXVTFJERUQTOmoBjYBo6NkOw1CWvD40WJAWuZmfECYop1snXHGMjINwLyzn7iIyIJXyTJzbdJrIzvYZaZF4FSxxrF0cRmfgX6PbFx605WeHuWNmuYGf+uZbdfImiOS5uFpRohVb6JZKzoItJ3pbRQgghhBBCiIpPEi1CiDzNjDBtCHFHz6gNa5t4ErZ7OhZacSyZ5o6jRyhJDa3xObCFJSbquwkV1ZjhoSH4D29EZrAfjpO92Bxfn0EBIYSMaKAMfqjC6zC4RoiHO47T/IlKrs+ggF3sHNE4L+gNW3YecMWi4SWifLxwnOzF/MhsDN2+JKxw16E2OLh3Ry89Gq/JU1l7VP373PcqNl98iYtZfTJ2+uE42R3PNWkYuq8ndr05WpzjWGJelkbXbCQOreDYGi8cZ0WTAjQd8SWRAQNoknUQr8nuTPeJA5PBBH6/geEPqQJSlRMXyzGaY2r0qnJKCCGEEEIIUUFp5Obm5ioHS+rHH08wfPhUALZsXo5R1w7KECEe2/7Q/zFj5ucA7N27Gj09PbV5LS0tqlR5MXOF5mZ2XLicSt8+vVjo95lyutykbBqFmX9rAo/PwEg5KZ6yHCIn9cIxfToxQX1LVgHzhC4kX8LcYigAPl6fYmahXnNUq1YtqlevrjYmxPPgbYOe5Ny7w+iRdjg5j1NOPzXfRnyPo3Pe7/S9e9djYKC6rb0Qz4/Tp36l/8djAVg83413undRm3/55ZepVq2a2pgQQjzvUlPS6G0+GAAPDyesrEzV5mvWrEmNGnmV7y/mu1QhxGNpaD8S06xQNkc8cD2NeFrSD7IusjaDZjydJIsQQgghhBCibEiiRQhxn6Yxrm7NifIPJUU5J56qxMBtJBg5MrmrckYIIYQQQghRkUmiRQihpuEID1xYja/aTkHiqUo/gO+m+vgsLWHTXCGEEEIIIUSFIYkWIYRCY4aHRrLS6lGNbkW50bVg86kV2EiWRQghhBBCiOeOJFqEEEIIIYQQQgghyogkWoQQQgghhBBCCCHKiCRahBBCCCGEEEIIIcqIRm5ubq5ysKR+/PEEw4dPBcC4uxGv6b6qDBHisV2+nErcTwkA7N27Gj09PbV5LS0tqlR5MXOF5mZ2XLicSt8+vVjo95lyWohycSH5EuYWQwHw8foUMwtjtflatWpRvXp1tTEhngdvG/Qk594dRo+0w8l5nHL6qfk24nscnfN+p5v2fI+6dbSVIUI8F/7++x+ivz0CwOL5brzTvYva/Msvv0y1atXUxoQQ4nmXmpJGb/PBAHh4OGFlZao2X7NmTWrUqAFlmWgRojxJokWI8ieJFvGiqoiJFiFeFJJoEUJUFk8t0RIff4oZTp7KYe7de+yHFKJYq7+Yz2tvvqY2JokWIcqWJFrEi6qiJFoOHz6Gt5ef+mBuLk9wK1busrKz+eeffwqvUVOzBq/pqv89Fs/OvdxcUlNT1f4b0qxRAy1tbWq+9JJabHn51H0qnTq1VRuTRIsQ4kX01BItxblz5w7//vuvcliIMieJFiHKliRaxIuqoiRainP79m1u3LihHH7mLl26xOTJEzl69GjhWNeuXQkI+JJGjRqpxYpn648//sDffwVbtmzm5s2bheNt27Zj6tSpfPSR9VO/X5JES8X3zz//sGPLXuWwqGQ0a9Rg5Dh75bB4AEm0iEpBEi1ClC1JtIgXlSRaSi43N5cNG9Yzb97cwuuqVasWc+Z4MnLkSDQ0NJSniAri77//ZtWqL1m/fh2ZmZmF482aNcfR0ZFBgwZRterTSX5IoqXiu3w5DUvLvDeMovKq/VJNfjgWphwWD1CaRMuL+S5VCCGEEEKUyqVLl7C27oOrq0thkqVr167ExBxm1KhRkmSp4F555RVcXd2Ij/+F2bM/Q1dXF4Dz58/h5DSVzp07sW7dWnJycpSnCiGEKGNS0SKeW1LRIkTZkooW8aKSipaHy83NZePGDcyd66WoYvFg5EhJsDyvcnJy2Lp1CwEBK7ly5UrhuI6ODuPGjWfUqNFoa5fPzldS0VLxqVa0+HjP4uMBVsoQ8QJb4LuSDZt2S0VLKT3TihYNDQ2qVKkihxzlfgghhBDPu2d933TlyhWsrfvg4jJLrYrl8OEjjBkzlqpVqxY5R47n46hZsyZjx47j+PGfWbHCn+bNWwCQkZGBj483HTu2x8fHm2vXrhU590kPIYSo7Mq8okUI8eSkokU8C1LRIl5UFbmi5VnJzc1l1apVuLu7FlYiv/zyy3h7+zJhwgSpYnkB3bt3j5CQYBYuXEh8/InC8Zo1azJy5CimT5/BG2+8oXaOeHFJRUvlplrR8k3sV2pzGhoaaGpqqo2JPM+0okUIIYQQQlRcv//+Oz17foCT0yeFSZZu3brx88/xTJw4UZIsL6gqVarw8ccDOHo0jn379vPee+8BcPPmTb74IoBWrfQZN24s586dU54qhHhB5ebmkpOTU+QQT04SLUIIIYQQlUBubi5ffvklHTu258iRI5BfxbJs2Qqio7/lrbfeUp4iXlDm5uZER39LVNQ39O7dG/L7BQUGbqJduzYMHmzPqVMnlacJIYQoIUm0CCGEEEK84KSKRRSne/fuhIZ+zfHjP9O//8dUqVKFe/fu8dVXe+jUqSPW1h9x9OhR5WlCCCEeQRItQgghytzt27e5dOkSp0+fVk4JIZ4iqWIRJdG2bTt27NjJyZOncXAYXtiP69Chg5iYdMfUtAeHDh1SniaEEOIBpBmuEBVQQTPcli2a0bu3iXJaiHLx99//sGVbMDykGe6dO3e4evVq4ZGamqr2dcHx119/kZuby6xZs5g/f77a4wjxtFXWZri///47I0cOL0ywkF/FsnFjoCRYxENduXIFP79FbNy4kZs3bxaOd+jQkVmzZtG3bz/ZXeg5J81wK7eCZrgva77EoagdanMaGhrltvX78640zXAl0SJEBVSQaBHiWVFNtPz2228MHTqUP/74g3/++UcZ+kA1a9Ys3C5WiGepsiVacnNzWb16NW5uLmo7Cn3+uY8sExKlkp6ezvLly1i9ehWZmZmF4y1btmLmzJnY2w+mWrVqaueI54MkWio3SbQ8ntIkWiQVLYQQ4qH09fXp1KlTqZIsAOPGvfhvaIWoaAp6sUyd6likF8ukSZMkySJKRVdXl88/9+bcuWS8vOaio6MDwK+/JjFmzGhat27Fl19+yX///ac8VQghKjWpaBHiOZGVlcW9e/eUw6ICunDhAt27d+fff/9FW1ubI0eO8MYbbyjDnivXrl3D2NiYlJQU5VSxpJpFVCSVpaJl1apVUsUiytXNmzdZv34dS5cu4cqVK4Xjr7/+Op98MpXx4yegpaWldo6omKSipXKTipbHIxUtQgjxDDVp0oQNGzYAkJmZycCBA8nJyVGGPVfq1avH8uXLlcMP5ODgoBwSQpSTy5cv8+GHZlLFIspdzZo1mTLFkaSk31i1ajXNm7cA4I8//sDd3Y3mzZvi6enBtWvXlKcKIUSlIokWIYQoB71792bGjBkAnDlzhilTpihDnjvW1tb07dtXOVxE1apVCQgIUA4LIcrBqlWraN/+bb777jvIr2JZunS57CgkylX16tUZOXIUJ0+eYuvWbbz9tiEA169fx9fXh2bNmjBjxnSuXr2qPFUIISoFSbQIIUQJ/Pbbb0RERCiHH8rNzY0PPvgAgKCgINavX68Mee6sXLmS2rVrK4fV3L17F319fdatW8edO3eU00KIMqBaxZKdnQ1SxSKegSpVqmBrO5Bjx35iz56vMDIyAuDGjRv4+6/grbcaMXHiBE6dOqk8VQghXmiSaBFCiBI4e/Ystra2TJo0qcRNYatUqcLmzZsL+7O4uLiQkJCgDHuuvPHGG8ybN085XERycjJjx46lSZMmrFy5UjkthHgCUsUiKqKPPrImNvZ7IiKi6NWrV+H4hg3r6dSpI++/b8z27due+6W0QghREtIMVwghSmDZsmVMmzYNAD09PdatW4eFhYUyrFgnT56kS5cu5OTkoKenx8mTJ6lXr54y7Llx9+5dTE1NC9/kqfroo48wNzdnwYIFXLp0qXC8fv36zJgxg0mTJlGzZk21c4Qoby9KM9zLly8zevRItf/vdevWjY0bAyXBIiqcEyd+xtfXl3379qqN6+jo4OAwnHHjxtOkSRO1OfH0SDPcyk2a4T4eaYYrhBBl7Pfffy/8d2pqKpaWlowcOZLr16+rxRWnXbt2hc1xU1NTsbGx4e7du8qw50bVqlVZs2YNmpqaauMaGhqEhoYyadIkzp8/z7p162jevDkAaWlpzJgxg0aNGuHj40NWVpbauUKIh1u9enWRKpYlS5ZJFYuosDp06Mju3UFcuHARd/fZNGjQAICMjAyWLPHDwKAl1tYfER4eJrsqCiFeOJJoEUKIElBNtBTYtGkTbdq04cCBA8qpIgYPHsz48eMBiImJYdasWcqQ54q+vj4uLi5qY9bW1oX/rlatGqNHj+bXX39l69atGBgYQP4Ntru7O40aNcLDw6NEiSohKrOCXiyffDKlSC+WyZMnSy8WUeHp6ekxZ44H584ls2PHzsLeZbm5uRw6dBAbm360aqXPggXz+fPPP5WnCyHEc0kSLUIIUQLFJVooZXWLv78/HTt2BMDPz4/g4GBlyHPF1dUVfX39wq/37lUvDye/T82QIUM4ffo0QUFBGBre35li7ty5vPnmm8yaNYv09HTlqUJUesoqllq1akkVi3huVatWjf79P+bQoQhOnjzF5MlTqFOnDgAXL15kzpzPaNasCcOGDeXw4cPK04UQ4rkiiRYhhCiBByVaCpSkuqV69ers37+/sD/LsGHDSEpKUoY9NzQ1NVmzZg1Vq1bl/fffV06r0dDQYMCAAcTHxxMaGlq4M0V2djYLFy6kcePGODk5yVagQjykiuXEiQSpYhEvBH39lixZspSLFy/z5Zer6NAh70OIW7dusXv3LkxNe9CiRTMmT57Ivn17yczMVD5EpWdj04/z588rh4UQFYQkWoQQ4hH++++/Eu00VJLqFj09PUJCQqhSpQo3btygT58+hW+knkfvv/8+U6ZM4dtvv1VOPdBHH33E0aNHOXToEMbGxgDcvHmT5cuX06RJEyZOnMiVK1eUpwlRKUgVi6hMatasyahRo/nxx6McPnyEYcMceOmllwC4dOkS69atY+BAWxo0eB0zs54sWrSQhIR45cNUSuHhYXToYIinpwc3btxQTlcAWSQHr8DB3BJDfRMM9E0w6NQPO6d9xFfIvNlRnPVNMHA6qpwohb/YaZv3XO12/KWczBPjmfdaFHMYdhpY5PVJ2TQKA/1RBMpt0XNHEi1CCPEIKSkpyqGHKqhuOXXqlHIKABMTExYsWADA+fPnsbOzU4Y8V+bPn68cKpEPP/yQmJgYvvvuO8zMzADIyclh1apVNGnShFGjRnHhwgXlaUK8kKSKRVR2Xbp0Yd269aSkXGX37iBGjhyFnp4eAHfu3CE2NpbZs90xMupC48ZvMmbMaIKCdnPt2jXlQ1UaOTk5+Pr68PbbbQkO/ko5/QxlEes0DCuXPSSkN8LYxpx+NuaYNr1FYrgf9t0mEPgiFuOkH2ZvQm10dCBhTRCJynkVWq260y//dSk4jBtmkxDuh/3AVQ89VzwfJNEihBCPcPnyZeXQQ1laWpKSkkLbtm2VU4VmzJhB//79AQgLC8PX11cZ8two+PTxcZmYmBAREcGxY8ewssrbXvLOnTts3LiRFi1aMHjwYH799VflaUK8MKSKRYj7ateuTd++/Vi1ajUXLlwkLu4YXl5zeffdd6lSJe+tS1paGlu2bGbo0CE0bNgAE5PufP75PI4dO1YpdzC6fPky9vZ2mJt/WDGWEyVuwzP8GjqWi4g9voqVC9zwXeDGyqBw4g6Mp9WtM8z3iyVHed5zLjFwGwm0Z/KM7pASyq6HFMc07O+Ib/7rUnCsDA0neFx9SN5OQMSL9upUPpJoEUKIR3hUfxbytzy2t7cnNzeXsLAw5XSxtmzZQqtWrQCYPXs2MTExypBKpXPnznz99df88ssvfPzxx2hoaHD37l127NiBgYEBH3/8MSdPnlSeJsRzS6pYhHg0Q8P2uLi48u23MaSkXCUwcDN2dva8+uqrANy7d4+jR48yb95cunfvxquvvoKRUReGDh3C3Lle7Ny5g59/Pl5Bl9eUrW+++aZiLCdKTyMV6NK/K9qKKc1mAxhrBhw9SoLKeGZ8EFPMLfOX0VhiOXQFkco++emx+A4dilHbguU2lhjbLlaLy1tq40lIzGJM25pg0NYS57AsADLj9+FsW7CUyQwjW092xufN3XeL5GBPbDoVLOeZgGfEA5YBqTlLeFgaGBljamWBKdnsCix9MsnApi9NgJSUylup9aKQRIsQQjzCoxIt1tbW3Llzh+3btyunHqpWrVp8/fXX1K5dm3v37mFjY0NqaqoyrNJp164de/bsITExkcGDB1O1alVyc3MJDg7m7bffpk+fPvz000/K04R4rqxZs6aYKpalUsUixEPUq1cPOzt7AgM3c+VKKt99F4uLiyvt23cojLlx4wYJCfEEBe3G2/tzhg934N133+GVV+rQpEljevfuxSefTGHlSn8OHTrEhQsXyM3NVfs+z7MKsZzIoAOGwLGdB0gpkmnQxPKLGBKPzyCvLT6k7JiA8UB/EnTM8Qjwxt/LHJ3kPTi+N+r+EqPMKKa8587m5HrYuHvjH+CBi00jSAjFse9i1Dv3ROM2KR4jd2/8ZozExkiLzBhPrAb6cSClOXZe3vh7WdMqJRqvgVPV+5+Eu2Oz+BpGM7zxXzoYI80z7Jo8Eb9HreU5uo9dKdClvxG6msYMsgQitxGiTBY9SsZVMpRj4rmkkfsi/WYRQohyMGLECAIDA9XG6tWrx40bN/jvv/8wNjZ+omqUsLAw+vTpA0DHjh05cuQImpqayrBK68KFC8ybN4+tW7dy+/btwnEzMzNmz579yB2PhHjboCc59+4weqQdTs7jlNNP1eXLlxk9emRhgoX8KpaNGwMlwSLEE8jKyuL06dOcOXOaM2fO8OuvSZw+fbrEfdbq1q1LnTp10Nauwyuv1EVLS5s6depQp4422tp1qFu3LtraeWOvvqpD1apVlQ/xVH34YV5vs0fp0aMHS5cuw8Cgtdr45ctpWFoOBsDHexYfD8hbultWkoNnMNwljgxqoGVohI2VKd27tsfI4FXU7nByYpnSzp3E4V8S7t5GZe4sfj1Gs87Am/gvjMkMdsNqThqTD25g+Bv3T09cPJD+a2rjEp03nrJpFGY+5+g+P4y1/bXUH4vBBH8zAYOCkzOjmNLNj2TH5YSPv4az/kwO0B2/n3ywLCjFSVyFad/taE7fQvj4xgVnFhHrZMK48O74nfTBUjO/6e2YaAy9Qthpn1d9BffHW7ntImREA5VHyCHzfDRuw3yJymiueD4Ufl1WFviuZMOm3bys+RKHonaozWloaKCtraxFEgCpKWn0Ns/7/42HhxNWVqZq8zVr1qRGjRogiRYhhHi0Dz74oPBNUZMmTUhOTgZgzpw5zJs3D4Bjx47RuXNntfNKw8XFpbBB7uDBg9m2bZsypNK7cuUK3t7ebNy4kZyc+x+RGRsbM3v2bD788EO1eCEKVJREy5o1a3B1nVW4TKhWrVp8/rk3kybJMiEhyktWVhZnzpzhzJnTJCYmkph4hjNnzlSq3e2qVavGlCmOLFiwsHCsvBMtADnpZwkP3Miu4HgSMgp2WKxNKztXVrob01ATiPDEYPJhuk/3YFBT9fOPrXFnc0JP1vzmSd4ehcWI8cRgzBnG7NvNdIMHJCauBGHT0x+KJDdUHc1LtFh6k7hM9bsVjC8icVlXlXEV+cmiKLO8pFBesugEnp2msktbkdzJT7Q8WD26z1/O2v55SZ1in08ZkETL4ylNokWWDgkhxCP8/vvvtGvXjtzc3MIkC8C0adMKf5n6+PionFF6Pj4+mJiYALB9+3bWrl2rDKn03njjDb788ksuXLiAk5MTNWvWBCA2NpbevXvTtWtX9u/frzxNiGeuoBeLo+PkYnqxTJEkixDlSEtLi65duzJy5CgWLlzE/v1hnD9/gezsG1y4cJGffjrOgQOH2Lp1G8uWrWD27M+YOHEitrYD6dGjB+3avY2enl7h3/vnUePGjZ9J9aembgtsZviw80g4iSfDiNznjYtlPZJ3umNmG0QykJJyCbjFYT93HCerH5sTAC6RrJITy8n8i+SjsUTuWIXrpAkYTYoG0kh52BKd5LMkAU2aPijJoqr0P+f04G1EAaY2RioVOR2wtKr9wKa4RXcdGoDL0uWE/bSrMMkinm9S0SKEEE9g0qRJfPnll2hoaJCcnPxEpf/Xrl2jXbt2pKamUr16dX788Uc6duyoDBP50tPT8fPz44svviAr634zO0NDQ9zd3RkwYIC8gRXwjCtapIpFiBfHP//8Q0ZGBn/99Rc3b95UTj9VJVk6VKtWLVxcXHFymlZkSfLTqGh5kJRNEzDzOUO/dTFMSS5hxUbmCXwHzmRz8i0AtHTqo9O0NaY6aawLP4PFuhiWmDygAiS/iqQgpngPqlx50HiBv9hpa4OXamdfJdVKlwcuHSpesc+nDEhFy+ORihYhhHhKPv30U6pUqUJubu4TV7XUq1eP/fv3U716dW7fvs1HH33EtWvSdf5BdHV1mT9/PpcuXWLOnDnUrVsXgISEBAYOHEibNm3YunVrpdzqUzx7UsUixIunTp06NGvWDCMjI95///1nejzKxx8P4JdfTjFrlkuRJEv5+oudtiYY9FjFg/rHNjRoTg0gB9DRrQ+c41hCka65auIWu7M5uREOW0KI/y2GuCO7Cd/qyZRe9ZShRTVtQyvgQvJVxcRVAq3NMHKKIlMxU2KJQaxNAIwG4x/grTim06/hYzbFFc89SbQIIcQTeOutt/j4448BCAwMJD39yf6SduzYkYCAAABSU1OxsbGRRMEj1K1bFy8vLy5duoS3tzc6OjoAJCYmMmzYMPT19Vm/fj137txRnipEuZAdhYQQz0qzZs04ePB/bN++gzfffFM5/RS8imHX+pCyHbfFp4tJYPxFSGA0t2iNkQFomllgCkSt3sP9xdkAF1lrbYKh+TYSuUpifDY0NWVQV9VmulmEhx1WO6tYb7Sne0NICtynnvw5H83epFs0bN+6yDbUJZUYFk0qtRnkOAGzXsaKoy/O41oDZ1gbeFZ5qnjBSaJFCCGe0GeffQbArVu3WLZsmXK61MaOHcvgwXlliTExMbi5uSlDRDG0tLRwc3Pj0qVLLF68mPr16wNw/vx5xowZQ7Nmzfjiiy/UGukKUZakikUI8azUqlWLuXPnceJEAj169FBOP1UGMxbh0gqS1kyka1tL7Cb54DrLJ6+nSlsb3CKzaeXmip0uoGmMs1tzSFqNVbcZ+IXl9V+ZYj6aJUn1MHWzxoAGGLavB8mrGT56FeERsUTuWIFDDxvcYkrSU6UFY716opOynf7mngSGxRK5YzGWfVeTpGOOs/2jl/AU7wS7dqRBQ2sGFbeqCNDtPwRTIHXHPuKUk+KFJokWIYR4Qu3ateODDz4AwN/fv0zWbW/YsKGwP8uCBQsICwtThogHqFmzJtOnT+f3339n5cqVhZ/oXbp0icmTJ9OkSROWLl1aJj8nIQqsXbuWDh0M1apY/PyWSBWLEKLcPbtlQg/SmOGhYezwMqfLGzVIjjzI3pCD7I28hKZBTzx2hxEy4n7D16YjNhATMIAu2mdYN80dR489xGGEy+4tLDHJ26K5/dz1+Nu1JufodqZPdmf64ji0rbyJPDidLkBC3MMrRrRNPAnbPR0LrTiWTHPH0SMaTBzZcdAN48d8yXIigtiVBYbjbO/vKqSkaYyDXW3Iiia8mKa44sUlzXCFEKIMHDhwAEtLSwCWLFnCtGnTlCGllpqaSrt27bh27Rq1a9cmPj6eZs2aKcPEI9y5c4dNmzbh6+urtmuUrq4u06ZNY8qUKWhp5d3IiRdTeTbDvXz5MqNHjyxMsJBfxbJxY6AkWIQQ5UZTszoGBq1ZunTZY1WwPMtmuOLZk2a4j0ea4QohxFNmYWGBvr4+AIsXLy6TfiB6enqEhIRQpUoVsrOz6dOnDzdu3FCGiUeoVq0aY8aM4bfffmPz5s20atUK8nctcnNzo3Hjxnh6enL9+nXlqUI8lFSxCCGelQULFvLTT8cfK8kihCh/kmgRQogyMnv2bMivRNmxQ/3TgcdlYmLC559/DkBSUhLDhg1ThogSqlq1KsOGDeP06dPs2rWLt99+G4C///4bLy8vGjVqhKurq+z0JB6poBfLlCmTCrcWL+jFMmWKo/RiEUKUOyenaVSrVk05LISoICTRIoQQZcTe3h49PT2AwuRIWXB1dcXKKq+kNzg4mMWLFytDRClUqVKFgQMHkpCQwL59++jSpQsAWVlZzJ8/nzfffBNnZ2f++OMP5alCSBWLEEIIIR5JerQIIUQZWrp0Kc7OzgCEh4djYWGhDHks2dnZtG/fnvPnz1OlShW++eYbTExMlGHPvWvXrpGRkaEcLnd//fUXFy5cUFs+VKVKFV5//XUaNWokPVzKSJMmTahevbpyuNyVRY+WM2dOM22aE99++23h2Hvvvce6dRto2rSpWqwQQlR00qOlcpMeLY+nND1aJNEihBBl6ObNm7z++utkZWXxwQcf8M033yhDHltSUhKdOnXixo0b1KtXj5MnTxZW0Lworly5IpUkL7DWrVtTs2ZN5XC5e5JES0ZGBp6ec9iwYQN3796F/CqWefM+ly2bhRDPLUm0VG6SaHk8pUm0yNIhIYQoQzVr1mTKlCkAfPvtt5w8eVIZ8thatWrFli1bIL/y46OPPuL27dvKMCFEGVmyxA8Dg5asXbu2MMnSo0cPjh8/Ib1YhBBCCPFAkmgRQogyNm3atMJs9rx585TTT6R///6FS5N+/vlnHB0dlSFCiCcUEhKMgUFLXF1dyMzMBKBFC32Cg0M4ePB/slRICCGEEA8liRYhhChjurq6DB8+HICvvvqK33//XRnyRBYuXFjYn2X16tVs375dGSKEeAy//JJAjx7vY2c3iOTkZABeeeUV/PyWEB+fgJVVH+UpQgghhBBFSKJFCCHKgZubGxoaGty7d4+FCxcqp59I1apVCQkJKezPMmrUqDJdoiREZXLnzh2++moPlpbmGBl14ciRIwBUq1aNSZMmc+ZMElOmOMo2qkIIIYQoMUm0CCFEOXjrrbfo168fAOvXr+fvv/9WhjyRevXqsX//fqpXr05OTg59+vThn3/+UYY9pxJZaT+NoSsSlROP9u/vHPT9mgTleJm5ybnw1ews6Te4dY2fdqzHY4IrQ+2nMdR+GuMmLGNl5O/8qxb4BM+5gksPX8RQ+83l+DN5PBcvXsTNzZUmTRozeLA9UVFRFOwPYGFhSULCLyxduox69eopTxVCCCGEeChJtAghRDlxc3MD4NatWyxdulQ5/cQ6duzI8uXLAbh06RIDBgwofKNYWaV/F8TWX64ph8tOehwbtiRRkg2ob6V8h8eYeSwLvUgNQ3MmO4/CybEfnfSu8eP65Yx3+Y5U5UmiXN29e5c9e4KwsOhNy5Yt8PNbzJ9//lk437p1Gw4cOMTevfto3ryF2rlCCCGEECUliRYhhCgnnTt3xtjYGICVK1dy8+ZNZcgTmzhxIoMH520zFxkZyWeffaYMEc/CvydZM2cv52t1wGndXNwnvs+7XdrRudv7jJ8zl5UT2lLr4l6815Vt/x5RvFu3/yM9/QI+890ZMmQw0dHRhUlJTU1NBg4cxNdfh/Pzzyfo2bOn8nQhhBBCiFKRRIsQQpSjmTNnAvD333+zdu1a5XSZ2LBhA+3atQPA29ubsLAwZchzr2D5yU/XT7LhM1dG2k9jqL0rM/2+41z+GpyEFdOYtiUVOMEixTKcf89+x9LpBct3XJk5N4Sfrt9/fBI2M9R+EQfP/s5BP1/G2U9jqP1Mxn0WdD8uYTNDP9nLJeDH+dMeuhzmYmgIP954iZ6fOND5ZeUs1H3flkEGL8HFi4qqljukfrcZt9F5y4xGjl7GhmN5u94U+Pfs96z8bE7+NU5jqIP66wDXOOgyjaErTnL9WBAeo2fmxY32ZWm4csnSTc5Fqnw/x/V5r4GLchnTTc6Fr2dmftzQ0b54bz6J6ksIgOrPx2EuS7/7g6e9Afm9e/c4efIkq1evZsSIEejr6/Pr+R/4++8rZGdnFcZ16NCRZctWcOnSFbZs2UqvXr1ku2YhhBBClAlJtAghRDnq06cP+vr6ACxYsIB79+4pQ56YpqYmX3/9NXXq1AHAzs6O8+fPK8NeAOfY6LKZRF1zxjkPY+i72mT8tBfPVSe5BTS2HsXId18BGtPbeRRO1g0BSI9cxpQ5ezlXx4iRzqNwGm1E3dQYlk1cxMEU1ce/xn6/APb/24pBzqMYadGY6ueOsOyzr7kI0NgUp9Ed0AGaWYzCydmUxqqnF0rhhyN/g857mLZWzhXQxnSOLwHz3ievpXG+HzbgviMTA/tRODmaYlD9ItFLlrGzoPDl969xn7OH4zea099xFE7OA+hjoM3Vn/bi6Rennvg4E4S7/zl0P7bHybEf79S9xvEty1lz7H7qIzV8JZ7rT/BPYxNGOg9jUIs/2TVnA/vTVR/oGlGfzcFzy0Xqvj8AJ+dRjHxfi9QDG5iiuvzpehzeEzcQfVEb49GjcHJox40dAayMKftKLlWZmZkcOnQIDw8PevfuTZ06dXj77beZMGECgYGBnD17tjC2Zs1aTJo0iePHf+bHH48yceJE6tatq/Z4QgghhBBPShItQghRjjQ0NHBxcQEgNTWVXbt2KUPKRKNGjdizZw8aGhpkZ2fTp08fbty4oQx7zmVRx2IGiz55n3e7dMT8E1ec3gV+OkEiUPetdrzdvCZQj7e7tKPzW9pw6yRb11+kjsVUls6xwbRLOzqb2eC+agZ9dFLZujMvSZPnP263dmBhfpypwxQ8h+lBRiKJ6UDdhnQ2bEwtQNewHZ27NKT4t+jXyMgAWjR+QCLmYdoyzm8Kw8za0blbHz51MUWHvzme8AcAiTE/c6NOB5x8HTDv1o7OXd7DznUGTp2BxKS8hFCBf7Qw93VlimVHOnd7nyl+o3gHOP7Dubz569+zeksqdd4dl/+c815T72Fa/KPyn86tYyFsPKdF77mf4e7wHp3zX5sAX1N0Lu5lV37iJnFPCInoMdTXlVFm+a+zny166aVvBH3t2jWSkpKIiYkhKCiIgIAAPDw8mDhxIh9//DEmJibo6+tTt25d6tSpg7m5OXPnzuV///sf2dnZyodD6+V6NGhggOecRSxdupy2bfMqwIQQQgghyoMkWoQQopwNGzYMXV1dAHx9fZXTZcbMzAwvLy8AkpKSGDZsmDLkOfca73Z+XW1Er7ke8AdX1SowVCSc4DjV0KuTxS/HTvJT4XGN23XvJ2kKvP1uO1RX+ug2fB1I5VxputamX8uv8niM7YDfNeJd1Qt4qxnNgasX8xr8GjjMYc0qBwxrqMRQncYGesBtbtzPGoFeBzrlFfXke53mjYHUP0kHriec4DyvYGxtoPac9SzNeUfl619+OAXVX6fu9SSV1+8kP6Xfpk5h4iaFhIT/oLMpPVW/58vt+MjslcIv27Zti4aGxiOPV199FQMDA95//30GDhzIlClTmDt3LqtWrSI4OJjY2FjOnj1b7E5bb731Fra2tixYsICoqCiysrJ4601DtLR0lKFCCCGEEOVCEi1CCFHOqlWrVtir5eTJk0RERChDyszs2bMxMzMDIDg4mGXLlilDnmPVqK6WYHi09PQ/gDv8snMDy5aoH4fOUTRJU8rHL5bua/nLge4oZ0qgZMmZW/9e42LCSX4ID2HlXF/ct6QC11DLO1SvTnWVL5VuXM8C3qL5W8qZhnkJGcirzkkFbiexS/H6LVsSw3kKEjeZZGSAjt7rRV7COnrltz1ygwYN+Oijj/j8888JDw/n2rVrXLhwgd27d/Ppp5/Ss2dPateurTxNCCGEEKJcSaJFCCGeggkTJqClpQXAwoULldNlRkNDgz179tCsWTMAZsyYwY8//qgMq2T0GLpiKVt3FHfMxDyv2KgM5VeOnL2ovpRH4eIOX8ZNX88PD6rGKU5KHAsnTGPUmHm4z9/MxgMnSX+5Fe90vl81UlK3b5SiTW3jfiwt8trlH/Pf52EvYa3qNQv/PXHiRDw8PB55zJ8/n4CAAAIDAwkODuZ///sfP/zwAydPnuTChQtkZGSQm5tLamoqoaGhuLu7Y2FhwSuvlP51EEIIIYQoa5JoEUKIp0BLS4uJEydC/jbMJ0+eVIaUmTp16vD1119Tq1Yt7t69S9++ffnzzz+VYZVCnbr1gFQSz5YiqfDE6mFg+ApkfE/UGeVcgRR+OPInN65rU/dhWQo1mUSt2sEvt9sybvFCtu5YxBr/OXhNt8FUraNuyeRVmvzOuSI7TP/BucIMkRZ1dIGL5zinuiypCG10dCAj9Q+Vnjd5rl6833F48uTJeHp6PvKYNWsWkyZNwsHBARsbG3r16sU777xD27Zteeutt3j11VfVvocQQgghREWikZubm6scFEIIUfbS09PR09Pjzp072NnZsWPHDmVImQoODubjjz8G4J133uHw4cNUrVpVGVahXLlyhT/++JaV9mv48d1xbP3EAPK3d562BYauUK9AUY7nff06M3c4YAhw6yRLh2/geGMrFs43U9nh5w/2u8wn+LYVnn5mNE7YzND5J3jHZSlTDO8/Psrx9O9w+2Qveso4pX9/ZumYLRyv0wEnP+UWzzc5t2MlnqGpNBr2GT6W9YDEIs85j+o4+f8exdZPVJq53vqdLdOXcyhDL/91uMZBl3lspR9L1apNFOPXv8dj4h4y3h3Hwk/u92n598h6xvufgvxruXVsPaOWnKKRnQs+fVV65KRE4jbjELftnFjUtyHnNs/B84AWgxbP5KOCPi3/JrJy+hp+/KcDM3c4YN+6NTVr3q9weVreNuhJzr07jB5ph5PzOOW0EEJUOpcvp2FpORiAsaPtef+Dd5Uh4gW2fVsI4Qe/4WXNlzgUpX4/qqGhgba2ttqYyJOakkZv87z/33h4OGFlZao2X7NmTWrUyFtELYkWIYR4ikaNGsXGjRupUqUK58+f5623ijTIKFNTp05lxYoVAEyZMgV/f39lSIXypImW69+tZMqqFAysben9bnM6v6VNavgiPt2SCnVa0cehG81vXCT2wHccT63JOy6uTDGsWTShUkA5fj0O74k7uGhgykiLDhg8cOch+PdMEJ7zjnAVLQxMTOnZuR7V/yn43nfydvspTHCUJNHSkJi5HqxJrEYD034MMtTmdvoJ9n91gqu3q3H79mulS7TkL19yD/2TOgYm9LdoDglfszXqT25DYaIF/uCgy3y2XoQ6b5sy1KwxN87FcfDAKa7W6sBMPwcMX1ZJqtx4jXfsevNO3VSiN0fxyz8AkmgRQoiKRDXRIiovSbSUTmkSLbJ0SAghniIXFxc0NDS4d+8eS5YsUU6XuSVLlvDOO3l7yKxcuZLt27crQ14odTub07sxJIZuYdmqE6QDepYzWelsgsHLv/O1/waWrf+ORFoxdG5+kqU06rajv4UeJEYRsGQ7Pz6kv8rLrW1ZtG4qI9+tR/pPXxOwpOB7N6a382csVakiKRltTKZPZWjnevwTtYdlSzawMfQazR1msNLFiFqkkvh76ZZINbZ3wnNYW2pdjGHjkg1sTXiNQXPt1XYdgtcxn++Fk0Uzap2LImDJBjYeOAeG/fAsSLIAvGzAFL+pDDWEX7ZsYZn/96S36Mc4i8dY1ySEEEII8RyTihYhhHjKrK2t2b9/PzVr1iQlJaXcG3j++eeftGvXjj///BNNTU2OHTtGu3YqS08qkLyKlj+Uw+KpOslK+w1ctHNhkepSoTLQWipahBCiQsjJySEhIVFtLDc3l5s3/9/evcflfP9/HH8UapkY02bZaBhlC8Oyg/KjbJRT5hBzPhuRnDXCnIaccj7NcY5fTQgT+y62L8YcMiyHxVYzWQ45ldTvj9K6PhimdHreb7fP7eZ6v1+f67q6stHT6/1+3zYZk9wtX758VKpUwWRMHS0P9yQdLQpaRESesT179uDs7AzAqFGjGDFihLEkw+3du5eaNWty9+5dSpUqxdGjRylSpIixLMspaHmGTq2j14RwqvUZTad0y6Vu/LiMflMOUcm4jCoDKGgREcm+kpKSiIuLMw5LHqOg5eGeJGjR0iERkWesZs2aVK9eHYBp06aRkGA8pyXjvfvuu2lLlc6fP0+zZs1Qzp7HvfEO1QrEsStgPDNDfuLAj+HsXDaTQVMOcbN0E5pmcMgiIiIiklcoaBERyQJ+fn4AXL58mYULFxqnM0WfPn1o2rQppB4xPWrUKGOJ5Cl2dLq3p8rq5Sl7vnwXh239TkwdXSvdCU0iIiIi8iQUtIiIZIHGjRunnTg0adIkkpKSjCWZYvny5Wn7s4wePZrQ0FBjieQlz9tRr/9Q5i+byopVU1mxaCh+7RyxSel6FREREZF/QXu0iIhkkQULFtCtW8p+EWvWrKFFixbGkkxx/vx5KlWqxNWrVylSpAhHjx6lVKlSxrIsoT1acjft0SIikr0lJiYahyQPyp8/v3FItEeLiEjO0L59e2xsbAAYM2aMcTrTlCpVivXr12NmZsbVq1dp0KAB8fHxxjIRERHJY/Lnz69Ll/G3hfwL6mgREclC48ePZ9iwYQDs2rWL2rVrG0syjb+/P6NHjwagdevWrFy50ljyzCUlJWmT3lzM3NwcMzMz43CmU0eLiIiIPC11tIiI5BC9e/dOW0oxceJE43SmGjlyJG5ubgB89dVXzJw501jyzJmbm5MvXz5dufTKipBFRERE5FlT0CIikoWsra3p2bMnANu2bSM8PNxYkmnMzMxYv3592v4sPj4+7N2711gmIiIiIiJPQEGLiEgW69+/f9p62Gfd1VKkSBE2b96MpaUld+/epXHjxly8eNFYJiIiIiIij0lBi4hIFrO1taV165T1nqtXryY6OtpYkqkcHR1ZvHgxABcvXqRx48bcvXvXWB6jrncAAHEPSURBVCYiIiIiIo9BQYuISDbg5+cHqccqTpo0yTid6Vq3bs2nn34KwN69exkwYICxREREREREHoOCFhGRbKB8+fLUr18fgHnz5nH58mVjSaabNm0aVatWTfv1hg0bjCUiIiIiIvIIClpERLKJQYMGAXDr1i1mz55tnM50BQoUYNOmTbz00ksAtG3blpMnTxrLRERERETkHyhoERHJJv7v//6P6tWrAzB9+nQSEhKMJZnO1taWjRs3ki9fPm7evEmDBg24fv26sUxERERERB5CQYuISDYyePBgAGJiYliyZIlx+pl49913004/OnPmDF5eXsYSERERERF5CAUtIiLZSNOmTbGzswNg/PjxJCcnG0ueCV9fX5o2bQrAli1bGDt2rLFEREREREQeQEGLiEg2Ym5untbVEhkZSVBQkLHkmVm+fDn29vYADB8+nNDQUGOJiIiIiIgYKGgREclmOnXqRNGiRSG1qyWrFCxYkM2bN1OoUCGSk5Np1qwZ58+fN5aJiIiIiEg6ClpERLIZCwsL+vXrB8CBAwcICwszljwzZcuWZfXq1QBcvXqVBg0aEB8fbywTEREREZFUClpERLKh3r17Y2VlBZC2MW1W8fDwYOjQoQCEh4fTqVMnY4mIiIiIiKRS0CIikg0VLVqUrl27AhASEkJERISx5JkaM2YMLi4uAHz11VfMmzfPWCIiIiIiIgpaRESyr8GDB2Nubk5ycnKW7tVC6ia9QUFB2NraAuDt7c1PP/1kLBMRERERyfMUtIiIZFO2trZ4eXkBsGLFCqKjo40lz1SxYsXYtGkTlpaW3Llzh4YNGxIbG2ssExERERHJ0xS0iIhkY0OGDAEgMTGRqVOnGqefuapVq7J48WIAoqOj8fT0JCkpyVgmIiIiIpJnKWgREcnGHB0d+fDDDwGYN28ecXFxxpJnrnXr1nTr1g2AsLAwBg8ebCwREREREcmzFLSIiGRzAwcOBCAuLo7Zs2cbp7PEzJkzqVq1KgCTJ09mw4YNxhIRERERkTxJQYuISDbn5uaGo6MjAAEBASQkJBhLnrkCBQqwadMmihUrBkDbtm05efKksUxEREREJM9R0CIikgMMGzYMgJiYGJYvX26czhK2trYEBQVhbm7OzZs3adCgAdevXzeWiYiIiIjkKQpaRERygBYtWmBnZwfAxIkTSU5ONpZkCRcXl7Sjp8+cOZN2SpKIiIiISF6loEVEJAcwNzenf//+AERERLBp0yZjSZYZNGgQHh4eAGzZsoUvvvjCWCIiIiIikmcoaBERySE6d+5M0aJFIbWrJTtZvXo1ZcuWhdRlTmFhYcYSEREREZE8QUGLiEgOYWVlRZ8+fQD4/vvvOXDggLEkyxQqVIjNmzdTqFAhkpKS8PT0JDo62lgmIiIiIpLrKWgREclB+vbti4WFBQBjxowxTmcpe3t7Vq9eDUBsbCwNGzbkzp07xjIRERERkVxNQYuISA5StGhRunTpAkBwcDARERHGkizl4eHBwIEDAfjpp5/o1auXsUREREREJFdT0CIiksMMHDgQc3NzkpOTs91eLQATJkzAxcUFgAULFvDll18aS0REREREci0FLSIiOYydnR3NmjUDYPny5cTExBhLspS5uTlBQUHY2toC0L17d3766SdjmYiIiIhIrqSgRUQkB/rss88ASEhIICAgwDid5YoVK8amTZsoUKAAd+7coWHDhsTGxhrLRERERERyHQUtIiI5kKOjI3Xq1AFg9uzZxMXFGUuyXNWqVQkMDAQgOjoaT09PkpKSjGUiIiIiIrmKghYRkRxq0KBBAMTFxTF//nzjdLbQvXt3WrduDUBYWFhaJ46IiIiISG5llpycnGwcFBGRnKFSpUqEh4dja2vLuXPnyJ8/v7Eky8XHx/POO+8QHh4OwObNm/Hw8DCWiWSaSg51iE9KpGqVt3jvvWrGaREREZFHunbtOstX/gcAf38fPDxcTeatrKywsLAABS0iIjnbihUraNu2LQBLliyhffv2xpJs4fz581SqVImrV69SqFAhDh8+TNmyZY1lIpniXtAiIiIikhEeFbRo6ZCISA7m5eWVdrrPuHHjyK7ZealSpVi/fj3m5uZcv36dBg0acPPmTWOZiIiIiEiOp44WEZEcbtq0afTr1w9ywLKccePG4efnB0DTpk35z39S2i9FnrWrV68ah0RERET+NS0dEhHJRW7dukXJkiW5fPkyLi4ufPfdd8aSbKVBgwZs2bIFgMmTJ9O/f39jiUimU9AiIiIiGUlLh0REchErKys+/fRTSD3Z58CBA8aSbGX16tVp+7MMHjyYsLAwY4mIiIiISI6ljhYRkVwgJiaGV199lYSEBD7++GPWr19vLMlWTp48SbVq1bh58ybFihVLOzlJ5FlRR4uIiIhkJHW0iIjkMjY2NnTo0AGAoKAgIiMjjSXZir29PcuXLwcgNjaWhg0bcufOHWOZiIiIiEiOo44WEZFcIjIykjJlypCcnEz37t2ZO3eusSTb8fX1ZerUqQD07NmT2bNnG0tERERERHIUBS0iIrnIxx9/zIYNG7CwsOD333/HxsbGWJKt3L17l5o1a7J3714AVq5cSevWrY1lIiIiIiI5hpYOiYjkIkOHDgUgISGB6dOnG6eznXz58rFx40ZeeuklADp16kR4eLixTEREREQkx1BHi4hILlOrVi3CwsIoWrQoUVFRWFlZGUuynb179+Li4sKdO3coVaoUR48epUiRIsYyEREREZFsTx0tIiK5zKBBgwC4fPky8+bNM05nS++++27aXi3nz5+nWbNm6N8BRERERCQnUkeLiEguk5ycjL29PREREdja2nLu3Dny589vLMuWPvnkE7766isAhg8fzujRo40lIiIiIiLZmjpaRERyGTMzM4YNGwZAdHQ0a9asMZZkW4sXL8bR0RGAMWPGEBoaaiwREREREcnW1NEiIpILJSYmUrp0aaKjo3F0dOTo0aPGkmzr/PnzVKpUiatXr1KkSBEOHjxI2bJljWUiIiIiItmSOlpERHKh/Pnz069fPwDCw8PZvn27sSTbKlWqFOvXr8fMzIyrV6/SoEEDbt68aSwTEREREcmWFLSIiORS3bt3x9raGoCJEycap7M1Nzc3/P39ATh58iRt27Y1loiIiIiIZEsKWkREcilra2s+/fRTAHbt2kV4eLixJFsbMWIEbm5uAGzYsIEZM2YYS0REREREsh3t0SIikovFxMTw6quvkpCQQIsWLXLUxrgAV69epVKlSpw/f558+fKxZ88e3n33XWOZiIiIiEi2oY4WEZFczMbGJm3Zzfr164mMjDSWZGtFihRh8+bNWFpacvfuXRo3bszFixeNZSIiIiIi2YaCFhGRXG7QoEGYmZmRlJTEpEmTjNPZnqOjI4sXLwbg4sWLNG7cmLt37xrLRERERESyBQUtIiK5XPny5WnYsCEAX375JZcvXzaWZHutW7emd+/eAOzduzftRCURERERkexGQYuISB4waNAgAG7dusX06dON0znCtGnT0vZnCQwMZMOGDcYSEREREZEsp81wRUTyiHfeeYcDBw5QtGhRoqKisLKyMpZkexcvXsTR0ZGLFy9SsGBB9u7di6Ojo7FMRERERCTLKGgREckjNm7cSJMmTSC1I+TeUpycZu/evdSsWZO7d+9SqlQpjh49SpEiRYxlImnmzVpGYqL29REREZGMUefDmjg4vGEcTqOgRUQkj0hOTsbe3p6IiAjs7Ow4c+YM5uY5cwXp9OnT8fHxAcDNzY1vvvkGMzMzY5kIAJUc6hCflGgcFhEREflXJkwYgqenu3E4Tc78G7aIiDwxMzOztL1aIiMjWbt2rbEkx+jbty9NmzYFIDQ0lM8//9xYIiIiIiKSJdTRIiKShyQkJPDqq68SExODo6MjR48eNZbkGDdv3qRatWqcPHkSMzMzvvnmG9zc3IxlImkdLZ07euHj2804LSIiIvJI0VEX+Khea1BHi4iIpGdhYYGvry8A4eHhhIaGGktyjIIFC7J582YKFSpEcnIyzZo14/z588YyEREREZFnSkGLiEge06tXL6ytrQGYNGmScTpHKVu2LKtXr8bMzIyrV6/SoEED4uPjjWUiIiIiIhnmzp073L592+S6e/fvjfcVtIiI5DHW1tZ065ayfOKbb74hPDzcWJKjeHh44OfnB6ldOp06dTKWiIiIiIhkmMTEu8THx5tcClpERPI4X19f8ufPD8CECROM0znO6NGj0/Zn+eqrr5g9e7axRERERETkmVDQIiKSB9na2vLJJ58AsHr1aqKjo40lOYqZmRnr16+nVKlSAPj4+PDTTz8Zy0REJLNFzsDRsgCWD7hecnSlf/AF0/LAt7C0fIvASIBIAh0LYNlm+73ZBz92nEHk30/xjHxH78IFsLQsRO/vjHNZ6Mo+Ahv6cu8TEpHsQUGLiEgeNWzYMMzMzEhKSuKLL74wTuc4RYoUYfPmzVhaWnLnzh0aNmzIxYsXjWUiIvIMWFZqRNu27f6+mrvwwrkwZjZ/jbrLTMOWHOG7NSyLL0KRIvEsCFzDbeN8Folc3pkB3/xpHBaRLKagRUQkjypfvjzu7inH0i1YsIDLly8bS3IcR0dHFi9eDEB0dDSNGzc2WS8rIiLPRul2ASxcuOjva8VOIs6vp7klhAWuTetIsfM+Rnz8MbztDE/wQHZ4h98hPrwPj1WeYW6zNnAB8S93Y3LX0rBpBjkxKxKRZ0dBi4hIHjZo0CAAbt26xcyZM43TOVLr1q3p0aMHAHv37k37GkVEJIu9UJkapYHbt7l3Ppzp0qFHMS4d2k4bywI4Bu5jX+DHlC+cukzppep0MSxR4so+5repTuHUZUylms1g376UZU5pK5Me5vZGlm8Cy0aNadeuBaXZz+TAk8Yq4Ar75n/CO/feR6mPCdy3z7D8KbUu/fstXI66/TeS/h2nfC6fEHxhI13eKZ66/KoQ5ZvNYN+VlJrtbQpQYcAvwFoaWRagf/CD3pOIZAUFLSIieZiLiwvVq1cHYOrUqSQkJBhLcqQZM2ZQtWpVAKZMmcKGDRuMJSIi8kzd5pdgPwIjoFK3FlQwTj+Fc5974DLpAg0nr2ddoDdOzx1hefOa+P1yr+IkgXVr4r3uApV7z2Ld8gBcfumPS8PRnDN9qge6sGwG32BJu7Y1oEI3vMvDucAZGLdq+SXQDRfvtfxZ2ZvAdSuY7PILA1w8+NzkRSKZ72yDy4B9vNx1FuvWrSew68v8MrMZpd+ZQdpbBmA7XSo1Y1+FESxft4LJze04t6k/Ll1Sli5VHriewOYvA070Xreebk4lTO4WkayjoEVEJI8bMmQIAJcvX05bdpPTFShQgE2bNlGsWDEA2rZty8mT+pc+EZFnJWLAG4bNcK2p1HwtRQb8yO7HWyf02OJvf8S6o98T0K0xjbpNYXdYAOU5R/A3KX0vF+Z3ZsDRIjQPPsbugG40atGHFeHhTC59Na2z5uEiWRe4H17uQ9caAHY07FYB4pexLn3ScmE+XQYcoUjzzRzdPYVujVriveIYRyfbcTXdi9xe2x/v/aXpHXY65b00aky3gO85v38gpY/2x29t+t1frvLywHDCV/ShRerzBTcHNgXzHVCicmM+rPECYMeHjRpTocQL6e4VkaykoEVEJI/z9PTEzi7lL71ffPEFSUlJxpIcydbWlqCgIMzNzbl58yYNGjTg+vXrxjIREckED9oMt7QlHJ38DpV6f0fq6peM0agFjdJnDHYVqAxE7PsFuMA36/bDy90Y+FH6Inu8h7dI9/ghfplPYASUbtuOyqlDds374ITpprgXvlnDfl6m68CPSP8qFbyH0zzd42+Cg4EKlPhzO8HBG/++zt3mZWBTcPr0pgLtGtmnewwValQAjhDxWEutRCSrKGgREcnjzM3N07paIiMjc9UyGxcXl7QTlc6cOYOXl5exREREMsEDN8O9FsO65pacW/Axn+8z3vE0njMOpHOFPy8ALjXSgpI0lWpQ3jhm8F3gDM5Rmubt0gUeJRrR1gmTTXGv/vknUIsa971IZWqkvUgk544AfMNnzZvR3OQKZD/AL7+YHF39nGW6ByKSYyhoEREROnbsiI2NDaR2teQmAwYMoGnTpgBs2bKFcePGGUtEROSZeIFG3u2w5Crf7H9WLRm3uXLVOPa4vmPdsnjgHJMrpV8G9Rre+4F0m+LevvIEPTrlA/gl/g7xD7p+fNYnKolIZlDQIiIiWFhY0LdvXwAOHDjAf//7X2NJjrZ8+XLs7VP+NXL48OGEhYUZS0REJFcqQYUKQNg+jhinftlHhHEsndtrZ7AgHko3T9m01vQaiAt/b4r7coUKwHfsu/9F2Jf2IiV42Q6I2M7+9FuxiEiuo6BFREQA+PTTT7GysgJg4sSJxukcrWDBgmzevJlChQqRlJSEp6cn58+fN5aJiEimukJw4DLisaSW07Pq2yjBh82d4M/5TNqevuvkCmtnrk332Og2wcuDAScGTE7ZtNb0GsdnXS0hfgGBa29T4sOWOPEnCyZtN9l/5sraGaxLe/Qcjdo2Ar7hc+Px0L9MxNGyAOUnHTYdF5EcSUGLiIgAULRoUbp16wbA1q1biYj4p3/ny3nKli3L6tWrAYiNjaVBgwbExz/6vAkREXly55b1p0uXzukuD955yYbm6+LBZRaf1TDekXlKdJvFgPJXWdfoLZz7zyc4eD5dHG1o+42xMp0Lywj8BmjYh3YPOTW5lncfSgObApdxoUQ3Zg6owNV1Dajk7Mv84I3M7/IWLxte5LkWY5lcCSI+c6RUw2GsDd7IfD8PHCv5EVGkBYFdq5jUP8pzRV4GNjLZbw2/XHiC5UsikqkUtIiISJpBgwaRP39+AMaMGWOczvE8PDzSNv4NDw+nU6dOxhIREckA8UeDWb58WbrrG355rjLNA/fw5472PCS7yCRVGLt7D5MbPseRmb1o3rwX31QIIGzBw08d+iVwIvuxpKt3y4dvtVuhDwOcgP1LCb4AlcfuIWxyI547Eoh382Z4f1OByWELTU4dAnu8f/yNdb1deO67SbRt3gzvyfugYQBhESsxORjpMZRoNILelSBschvmB9+3bklEsohZcnJysnFQRETyrjZt2rBy5Ury58/PuXPnsLW1NZbkaElJSdSuXTttn5Z58+aldfJI7lTJoQ7xSYl07uiFj6++1yKSKvgTLJsfYczRYwysYJzMKBtpY9mMI2PCCR9oelSziOQs0VEX+KheawD8/X3w8HA1mbeyssLCwgLU0SIiIkaDBw8GIDExkYCAAON0jmdubk5QUFBagNS7d29++uknY5mIiOQS+3oXp3CpT9luMnqF4LUbgcpUyoiQZd+nvFT4VXqbvghXgtcSDFSupJBFJC9R0CIiIiYcHR356KOPAJgzZw5xcXHGkhyvWLFibNq0iQIFCnDnzh0aNmxIbGyssUxERHKBGm1b8NyfC2jk+AmBazcSHDyf/s5v0XxdPJUmDyflT7ynVKM9LZ77kwWN3qJN4BqCgzcyv/8HVGq+lvhKAQzPkBcRkZxCQYuIiNxn0KBBANy6dYuZM2cap3OFqlWrMnv2bACio6Px9PQkKSnJWCYiIjldjdlEhAXQkO0MaNuM5s17seDPCvRed4rd3hnVaVKDmRF7mNwQvhnQhubNm+G94E8q9F7PL7v7kBFNMyKScyhoERGR+9SpUwdHR0cApk6dSkJCgrEkV+jSpQsdO3YEICwsjKFDhxpLREQkF3ihRh/Wh18iPv4O8fF3uBaxk4BGdg/f6PbfeKEG3uuPcTH1NeKvnWZHQGPsMvRFRCQnUNAiIiIP5OfnB0BMTAxLly41Tuca8+bNo2rVqgBMnDiRLVu2GEtERERERB6bghYREXmg5s2bY2dnB8C4cePIrYfUFShQgE2bNlGsWDEAvLy8OHPmjLFMREREROSxKGgREZEHMjc3Z8CAAQBERkby9ddfG0tyDVtbW4KCgjA3N+f69es0aNCA69evG8tERERERB5JQYuIiDxUp06dKFq0KKR2teRmLi4ujB07FoCTJ0/i5eVlLBEREREReSQFLSIi8lBWVlb07dsXgAMHDrBnzx5jSa4yZMgQPDw8ANiyZQuTJk0yloiIiIiI/CMFLSIi8o/69OmDlZUVpG4Wm9utXr2asmXLQmrwEhYWZiwREREREXkoBS0iIvKPihYtSufOnQHYvHkzERERxpJcpVChQmzevJmCBQuSlJSEp6cn0dHRxjIRERERkQdS0CIiIo/Uv39/zM3NSU5OZsKECcbpXMfe3p7ly5cDEBsbS8OGDblz546xTERERETkPgpaRETkkezs7GjevDkAy5cvJyYmxliS6zRt2pT+/fsD8NNPP9G7d29jiYiIiIjIfRS0iIjIY/Hz8wMgMTExz2wSO3HiRFxcXACYP38+X331lbFERERERMSEghYREXksjo6OuLq6AjB37lzi4uKMJbmOubk5QUFB2NraQupx1+Hh4cYyEREREZE0ClpEROSxDRo0CIC4uDjmzp1rnM6VihUrxqZNmyhQoADx8fE0aNCA2NhYY5mIiIiICChoERGRJ/Hhhx/i6OgIwKRJk0hMTDSW5EpVq1ZlxowZAJw/fx5PT0+SkpKMZSIiIiIiClpEROTJDBkyBICYmJi0k3nygh49etC6dWsAwsLCGD58uLFERERERERBi4iIPBkvL6+0PUsmTJhAcnKysSTXWrx4cVpHz7hx49iyZYuxRERERETyOAUtIiLyRMzNzdP2aomIiGDz5s3GklzL0tKSzZs3U6RIEUgNnc6cOWMsExEREZE8TEGLiIg8sW7dulG0aFFIPQI5LylVqhTr16/HzMyM69ev06BBA27evGksExEREZE8SkGLiIg8MSsrK3r16gXAnj17OHDggLEkV3Nzc2P06NEAnDx5krZt2xpLRERERCSPMkvOS4vrRUQkw8TExPDqq6+SkJBAkyZNCAoKMpbkasnJyTRs2DBtn5YpU6bQr18/Y5lkA5Uc6hCflEjnjl74+HYzTouIZFshIaGsX639wCTn8e7XlbffrmgcztGioy7wUb2UgxH8/X3w8HA1mbeyssLCwgIUtIiIyNPo2bMnc+fOxczMjLNnz2JnZ2csydWuX79OlSpVOHPmDPny5WPPnj28++67xjLJYgpaRCSnWjzvK6bOXGgcFsn2Zk4bTS3XmsbhHE1Bi4iIPBORkZGULVuWpKQkunbtyvz5840lud7JkyepVq0aN2/e5KWXXiI8PJyXXnrJWCZZSEGLiORU6YMWp+qVMTMWiGQjN2/cIvxEBChoUdAiIiJPp3nz5qxfvx4LCwt+//13bGxsjCW53oYNG/j4448BePfddwkLC6NAgQLGMskiClpEJKdKH7QcO7ZTf7ZItnb8eASenl1AQYs2wxURkaczePBgABISEpg6dapxOk9o2rQpffv2BWDv3r3aq0VEREQkD1PQIiIiT6V69erUqlULgJkzZ3Lr1i1jSZ4QEBCQtj/LrFmz+Oqrr4wlIiIiInlC/O14bty4YXLdvXvXWJZrKWgREZGnNmjQIADi4uKYM2eOcTpPyJcvH19//TUlSpQAoEuXLhw5csRYJiIiIpLrJSUnkZiYaHIlJSUZy3ItBS0iIvLU3N3dKV++PKR2diQmJhpL8oSXX36ZoKAg8uXLx61bt6hbty6nTp0ylomIiIhILqagRUREMoSfnx8A0dHReXrZzLvvvsvChSkbF8bExFC7dm0iIyONZSIiIiKSSyloERGRDNG6dWtsbW0BGDt2rHE6T+nQoUPaUddRUVHUqVOHP/74w1gmIiIiIrmQghYREckQ+fPnp3///gBERESwdetWY0me0rVrVyZNmgTAr7/+Sq1atYiNjTWWiYiIiEguo6BFREQyTM+ePbG2tgZg4sSJxuk8Z8CAAYwYMQKAU6dOUbVqVcLCwoxlIiIiIpKLKGgREZEMY2VlRa9evQD473//y4EDB4wlec6oUaPo3bs3AOfOneP//u//GDBgAAkJCcZSEREREckFFLSIiEiG8vX1xcLCAoAvvvjCOJ0nBQYGsmjRIqytrUlOTiYgIIAqVapw6NAhY6mIiIiI5HAKWkREJEPZ2NjQrl07ADZs2KATd1J16tSJ8PBwXFxcADhx4gQ1atRg3Lhx3L1711guIiIiIjmUghYREclwAwcOxMzMjKSkJHW1pFO6dGn++9//Mn36dKysrLhz5w5+fn6ULl2afv368b///c94i4iIiIjkMApaREQkw5UvX57GjRsDsHjxYmJiYowleZaZmRl9+vThyJEjvPPOO5B6BPS0adN4//33ee211/D19WXv3r3GW0VEREQkBzBLTk5ONg6KiIg8rQMHDqQFCcOHD2f06NHGEgF27drFV199xZo1a7h+/brJ3HPPPYetrS22traULFmS119/HUtLS5Oa3OL555/nhRdeSLuKFCmS9uuXXnrJWP5EKjnUIT4pkc4dvfDx7WacFhHJthbP+4qpMxcCcOzYTgoUKGAsEck2jh+PwNOzCwCTxg/lPWcnk/mCBQvm6N/D0VEX+KheawD8/X3w8HA1mbeyskrbp1BBi4iIZBpnZ2f27NlD0aJFiYqKwsrKylgiqeLj49m0aRMrVqxg69atOpXI4LnnnksLXooXL85rr71GtWrVePvtt6lWrRpFihQx3pJGQYuI5FQKWiQnUdDyd9CipUMiIpJpBg4cCMDly5dZsGCBcVrSsbS0pFmzZnz99dfExcVx7Ngx/vOf/zBu3Dg6dOjAe++9Z7wlT7l9+zYXLlzg5MmT7Nmzh1WrVjFgwABcXV154YUXeP311/n4448ZO3Ys27Zt4+LFi8anEBEREXkm1NEiIiKZJjk5GXt7eyIiIrC1teW3337D3FwZv9wvLi6OK1eucOXKFa5evcrly5fTHqf/9b3Hx44d49KlS8anMfHKK69QtWpV9u89RgHL52nXxotRnw81lomIZFvqaJGcRB0tWjokIiLPyOLFi+ncuTMAK1eupHXrlD+gRJ5WVFQUhw4d4tChQ/z0008cOnSIc+fOGctMlC1bjrZt29KmTVtee+0147SISIa6fv06hQoVMg4/NgUtkpMoaNHSIREReUbatWuHjY0NABMmTDBOi/xrJUuWpEGDBgwfPpygoCAiIyOJjY0lNDSUSZMm0bp1a+zt7U3uOXPmNCNH+vPGG2X56KO6LF++jBs3bpjUiIhklKpVqxAcvNE4LCK5nIIWERHJVPnz52fAgAEAhIeH88033xhLRDJM0aJFcXV1ZcCAAaxcuZITJ05Q8Y2avPxyOcqVrUC+fPkgdVnbf//7X7p06cxrr5Wkc+dOfPvtt6jRV0Qy0rlz52jevBnNmzfjjz/+ME5nqd0+LjiUf8hVrQlePhs5fM141z1/sbp5Sq3Xqr+MkwZxnNgwg3b13Kl87/nfcse9zThWH44zFmessJH3f23lXXAo745z85GG19+Hb3kXHHz2mTz2XJL6fQsbiUP5Tiz9PXU69bl9w+7dn9n+YGkjFxwarSPKOAVc2zcZ9/IuOLw/ktBrwO/r8Lzv63bBobwbTvX6MH7Ho75v8jQUtIiISKbr2bMn1tbWAEycONE4LZKp8uUrQJEir9C1Sx9+/z2aGTNmUqtWrbT9gm7cuMGKFcupV+9DHB3fYtmypSQmJhqfRkTkXwsO3kjlyo7MmzePpKQk43QWqki7WWMJNLn606VGIU6EBNCq3mQOG28BiNnD10cKUbw4HJm/jhPG+Xuu7Wbo+x40HRJMVHEn2o1KeY2AATUpHrWLUS08cB9xiIfmORnE1qkeTTzTXW6liD+xi1Et2jLygV9gznJtx0g82gbza5lGLN02ErfCf89Z29c0/drdK1I85jDLennSboPClsyioEVERDKdtbU1PXr0AGDnzp2Eh4cbS0SeiWLFitG9e3e++SaUc+d+Y+rU6XzwwQeYmZkBcOpUBF27dsHBoQJz5szh9u3bxqcQEflXrl69Sp8+valZ830OHjxonM4iJahZ1xk3k6sx/WevIKh/ObgUzMIt8cabOLF0JUeoQq8BNSEqmDX3mkBMnCKgsR9fXypHl7VB7Fwxkv6tUl7DvcMwln0bxHz3Yvy6ehRTMjnsqNxtGOO/SHfNnsv+jd2xJ5Y1q+69+RpMiQjjxLQahrsfwmUkJyLCmOJinHi2zm4YgEevXVyr7M2WjQNwSheyAJRs6m36tU+bQci3Y6lvDT8u2UWMablkEAUtIiLyTAwcOJD8+fMDMG7cOOO0yDP30ksv8emnn7Jr13+JjDzP5MkB1KhRAzMzM86fP4+PTx/eeKMskydPIi4uk9vbRSTPOHjwIDVrvo+vb79svUdUGTdXXgeiYmINM6cI2XIBnJxx9aiPK9dZs3Q3xjgmZkMgC6PgnQmT6F8lpavVlDXOX/SnvnUhok7880bmmaJsOV4HiE9IHTAuHXoE49Khe0uLDv/M0k/b4HRvmU7zyYQa0oyYHTNoV9stdZlWJ0bu+ItQn4cvC3qweM4u6YHnkP3g5k/ouuaUsTTWPEThclQuCSQkcO+rl4yloEVERJ4JGxsb2rRpA8DatWuJjIw0lohkmRIlSuDt3YewsD0cPRqOl1cr8uXLx8WLF/HzG0a5cmUYNWoksbHGHzhERJ5cUlISs2bN5O23K2fbzXLjT/7Mr4B14ZRTVNLs28iaKHinqRM2ls60dAdCVxJkEib8xZ4Nh4E6dG36YvoJU5bOTDm4ggWtShtnMlf8X+yft5I9FKNJU9OTcZ7OBRZ+2peF15zwnTUW//YVsTwSjHeLuWnLq66FjaRpr/UcsazJkKlj8W9aiJ29OjNqv+Gp/lEchyf3xGPccQp7jmXLbFdSjh14HPGc3TGPZSfB3qsOJY3TkiEUtIiIyDMzdOhQzMzMSEpKIiAgwDgtki2UL1+BpUuX8fPPJ+jYsRMFChTgypUrjBs3lnLlyjBo0MBst6mliDy969evExUVxYkTx9m7dy/bt29n3bq1LFy4gClTAvj889FPfD1K9twsN56YfevoPXYPUBMvN9OgZPeqYOKoiZdHyrhz0zrAcb4OTb/fx2n27wfs36RMutGssrWLYUNYR0/aB5yn5tRFjHd53DaQx3GdeCd/tqzog1ddZ7z8ZrB6WDmI2s/+3wEOMaXfLi7ZexO0bSTtPVJqtiysApeMz/UwfxA6uC2t5p8GoHiZUhhWC5k4Oa6lYTPcunj02kXhbotY3eEVY7lkEAUtIiLyzJQvXx4PDw8AFi1axOXLl40lItnG66+/zty58zhx4he6d+8OqRvnTp8+DTu7UnTr1lWdWSI5RHR0NDt37mTWrJn07v0p9ep9yDvvVKdChTcoUeIlLC0L8OKLRSlTxo4qVSpTq5YzjRo1oE2bT+jV61OGDh3CmDGfP/H1uO5tlrtx49fGqUy2i273nUpTF5e2gey3rIn/Vn/c0/8UH7+bNSGAW31c7+UTLo1paX3/prjxAGVK3dcxEbWk0/0n4TzRkpknd/9muBWxtohla7/OdN2QscuWano4mwQfJcuUAk5z5CxweCchceDavZFJAFXYpSPtHjeROrmeCUGx2Hcbi68TnAwYSMBDdyN+0Ga4VXjdGk7O74znM9iIOK9S0CIiIs/UoEGDALh16xYzZswwTotkO6+99hozZszk/Pnf8fXtT6FChQBYunQJjo5vMmTIYK5evWq8TUSywLlz59i+fTvTp0+jR4/u1KrlzMsv2/D666Vxd6+Hr28/FixYwLfffsvRo0eIjIzMFqG/paUlvXt7U7fuh8apTJb+1KH+tHMqBhSj5qhF7P92HF5lTbs9YjasZCfg6unE3zNv4+5R6MGb4p49f1+AYlHGNd0P/jWxf9D2LRnsgZvhHlyOr30se4YEGpY9PaV/apCJuU4cpahsbywqjb29YeihilFzwnKCBjjTdepQ3uECCzuPY7dxk5xUD9wM9+AWAt0L8evqUYScMd4hGUFBi4iIPFPOzs5Ur14dgOnTp3Pr1i1jiUi29PLLLzN+/AROnTrDsGF+FClShISEBKZOnYKDQwXmzZtnvEVEMtn58+dZvHgRbdp8QokSL1G+fDkaNWrAoEED+fLLxezdu5crV66Y3PP8889TrVo16tWrT8uWXnTv3p2BAwcxZsxYAgNnsWzZcjZu3MR//xvGoUOHOXs2kr/+ukx8/J0nvh5H7dq1OXToCCNG+FOwYEHjdCZLf+pQY4auWM58d9jj3xmvJcZOj7/YueE4ADt71TXpSGm/+jqYbIpbDmcn4OTPnDU8i43LJ+l+8PemibHlJZ0Hdr884PJc8i+WXVmWpkmHKsB+dv9DR0hGik/IgK1n7T9hZNPUPW1s6hMwoQpc2sawwfueoDvFGrcOdbAmliMndcRzZlDQIiIiz9ywYcMAuHz5MosXLzZOi2RrxYoVw99/JMePn6Rr167ky5ePv/76iz59elOpkiNbt4YYbxGRDHLjxg22bNlMv359cXR8izfeKEvPnj1Yt27tfZ0pL774Ih988AGdO3dh8uQANm3awunTZ4mNvcIPP+xl48Zgli1bzowZMxkzZiwDBw6iW7dutGzpRb169XjvvfeoWPFNSpYsmdbJlpFKlCjBkiVL2bbtG8qWLWucziLWOE+bzhB7ODmuL75h6U5cO7GOBUcAp9apHTDpr/4pgUnaprgvUtOjIrCLNVv+/altJVtNJ+z7oEdeS1vljL1GLEsWw5rzHDlpbD/5g7PGROox2TT1Z5wTXAoZz8j03y/JUgpaRETkmWvSpAl2dnYATJ48maSkJGOJSLZXvHhxZs6czYEDB6lTpw4Av/xykiZNGlO//kccP/6z8RYReUJJSUns37+fcePG4upam5dftqFpU09mz55NRMQvANja2lKnTh0+/bQXM2bM5JtvQvnttyiioy+wa9d/mT17Dt7effjwww957bXXjC/xzOXPn59+/XwJD/+ZVq1aG6ezgdK0n+qNPbFsHRKYtiTlxJZdRFOIlt49Ujtg0l+N8e1WETjOgqWnALBpNZQh9rCzX18CDj8oAIgnasM8Fp40jqdjaY2NzYuPvAobV+I8lnN8veQwUAVnB+NcJqniirs17JwXbNrpc2Ijy/7pc/hHL+I5dSjvEMvWfgGEPlZbSxyhS3YRRyHsy/zDqVDyryloERGRZ87MzIyhQ4cCEBkZyfr1640lIjlGxYpvsnXrdjZsCOKNN8oDsGvXLqpVq0rPnj24ePGi8RYR+Qfnz59nwYIFtGzZgldeeRln5w8YNWoke/bs4c6dO1hYWFC3bl2mTZtBZOR5fv31HFu3bmfq1Gl0796dWrVq8dJLLxmfNlt47733OHDgIBMmfEHhwv90VkwWK9ucgP7lUpakjNhHPIdYs+oClGxEyxrG4hQ2TT/BFYhetZGUk4pL037FdFqWOc3CFh44NRrG+CU7Cd2xm9WTR9Lu/bq4DdnFpeJODBld775NczPSkfnjGDo43eXTB/dqbZlyEop7dcfz8c9Gfkpv4zuhJhYnA/GsN5KlW3YTMnkAzo2/ItpY+iTuLSGK24X3p1tJv+VM1IZA06998DC8qnniHXIdnLzxfFYhUx6joEVERLJEhw4dsLFJ+ZvNmDFjjNMiOY6HRwMOHz7C5MkBFC1alKSkJBYvXoSDQwUmTBjP7du3jbeISKrbt2+zbNlSPvjgPd54oyy9e3/K118Hpe2v8sILL+Dl1YoVK1byxx9/snlzCD179uSVV3LGkpF7y4S+/fY7HBwqGqezpTLd/fG1h0tB4xkzfx1r4qByt+Y89OdyS2faeRWCuF2E3NsUt/DbjNy2gy0LvalpeZygcaPw7uXHqPn7+bVkTbpMWMS+HybTvkrm7ogbvX8bXwelu0KOc8mmCu1mrSF09JvG8kxVuO44Qmc1wiFmDxP6+dF/VSyus6bj+9ib4T7YvSVE7B9Pt3R71sSd3GP6tQft4axlOeqPmsO+FfX/8Who+ffMkpOTk42DIiIiz8K4cePw8/MDYOfOnWnLL0QyUiWHOsQnJdK5oxc+vt2M05kiNjaWzz8fxfz580lMTITU04s+/3wMXl6tMDMzM94ikiedPXuWuXPnsHz5MmJjY03m7Ozs8PBoQIMGDXFxcSF//vwm8zmBlZUl3bp14/PPx/6rDpbF875i6syFABw7tpMCBQoYSyRXOMeCem2ZYj+WE9OcjZM5xvHjEXh6dgFg0vihvOfsZDJfsGDBHP17ODrqAh/VS1nu5+/vg4eHq8m8lZUVFhYWoI4WERHJSt7e3lhZWQEwceJE47RIjlWsWDGmTp3OTz8d4qOP6gHw22+/0aFDe95//11++OEH4y0iecbdu3fZtCmYBg3cqVjRnunTp6WFLM899xytW3/Czp3f8ssvp5gyZSp16tTJkSELwJ49PzB9euC/ClkkF4rZSru33Gm3ynBK0pk9hJwF+yrlTMclx1LQIiIiWcba2poePXoAsH37dsLDw40lIjlahQr2BAdvYuvW7VSokNIX/tNPP1G7di1atfLi7L89ZkIkB7p48SLjx4+jQoU3aNbsY3bs2MG95noHh4pMnhzA+fO/8+WXS6hZs6bx9hypWrVqxiHJy2yc8KxynR/9e9Ju7EZCd+wmZMlI3BvP42TxOvg2zRlL4eTRFLSIiEiWGjBgQNq/VH7xxRfGaZFcoU6dOhw6dJhp02bw4ospJzxs2PAfKld2ZMiQwVy9etV4i0iucfjwIdq2bcNrr5Vk5Eh/fvvtt7S59u07sHPntxw+fARv7z4UKVLE5F6R3OVFPBetIdCrBL9uCMC7lx/9J++nsFt/Vm0bibMan3INBS0iIpKlbG1tadWqFQBr1qwhOvqp9t0Xybby5ctHz549OXHiF7y9+1CgQAESEhKYOnUKFSvaM2fOHO7evWu8TSTH2r17Nw0auFOjhhNr165JG69Y8U0CAqZw8eIl5s9fkGu6V0Qei+UruI2ey+6DYZyICOPEsRBWT2tMFYUsuYqCFhERyXIDBw4EIDExkUmTJhmnRXKVIkWKMHlyAIcPH8HDowEAly5dwsenD2+/XYWtW0OMt4jkKNu2baNWLWfc3OqwY8eOtHEvr1bs2vVfDh06TO/e3upeEZFcS0GLiIhkOUdHR+rVS9kwdN68eVy+fNlYIpLrlCv3Bhs2BLFjx04qVkw5XvSXX07SpElj6tf/iOPHfzbeIpJtJSUlsWHDf6hRw4nGjRuyd+9eSD1lpHdvbyIjz7N06TI++OAD460iIrmOghYREckWBg0aBMCtW7eYPXu2cVok13JxceHgwZ+YOXM2NjY2AOzatYtq1arSs2cPLl68aLxFJNtITExk2bKlVK5ciVatvDh8+BCkdm4NHjyEM2d+JSBgCq+8ok0+RSTvUNAiIiLZQu3atXF0dARg+vTpJCQkGEtEci1zc3O6du3KiRO/4OvbHwsLC5KSkli8eBEODhWYMGE8t2/fNt4mkmVu377NnDlzqFjRnq5duxAR8QsANjY2jB79OWfO/Mro0Z9TrFgx460iIrmeghYREck2hg8fDkBMTAxffvmlcVok17O2tmb8+AkcORJOkyaeAFy/fh1//xG89VZFVq36Ku043Mf13XffGYdE/rUbN24QEDCZ8uXL4ePTh3PnzgHw6quvEhAwhVOnzjB48BCsra2Nt4qI5BkKWkREJNv4+OOPsbOzA2DChAkkJSUZS0TyhDJlyrBmzVq+/fY7KlWqDMBvv/1Ghw7tef/9d/nhhx+MtzxQlSqVGTHiM+OwyBO7cuUKo0ePomzZ1xk2bCh//vknAGXLlmPu3HmcPBlB797eWFlZGW8VEclzFLSIiEi2YW5unrZXS2RkJEFBQcYSkTzl/fffZ//+H5k3bz4lSpQA4KeffqJ27Vq0auXF2bNnjbeYOHHiOHv37jU5WlfkSfz5558MHjyIMmXsGDt2TNpm5W+95cjy5Ss4duxnOnbsRIECBYy3iojkWQpaREQkW+ncuTNFixaF1K4WkbzOzMyMDh06cvz4SQYNGsxzzz0HwIYN/6FyZUeGDBnM1atXjbfx6qu2ab8ePvwz7fEiT+T8+fN4e/fijTfKMm3aVG7cuAFAjRo12LAhiIMHf6JFi5aYm+vHCRERI/2fUUREshULCwt8fHwAOHDgAGFhYcYSkTzp+eef5/PPx3D06DGaNWsOQEJCAlOnTqFiRXvmzJnD3bt3AfDzG0ZMTEzavZGRkQQGzkh7LPIwERG/0KlTRxwcKjB//nzi4+MBqFOnDtu2fUNY2B48PBoYbxMRkXQUtIiISLbj7f33Ov+JEycap0XytNKlS7Ny5Vfs3v09VatWBeDSpUv4+PTh7bersHVryANDlYkTv9BR0fJQhw8fokWL5lSq5MjKlStITEzEzMyMBg0a8sMPe9m6dTu1a9c23iYiIg+goEVERLKdokWL0qVLFwBCQkKIiIgwlojkeU5OTvzvf/tYvPhLXnnlFQB++eUkTZo0TutCSO/atWuMHj3SOCx53O7du2nQwJ0aNZzYuPFrkpOTyZcvHy1benHo0GH+858NVKtWzXibiIj8AwUtIiKSLQ0ZMgRzc3OSk5MZN26ccVpEUn3ySRuOHz+Jn99njzzxZfHixURGRhqHJQ/atm0btWvXws2tDjt27IDUpZudOnXm559PsGzZchwcKhpvExGRx6CgRUREsiVbW1tatmwJwMqVK4mOjjaWiEiqggULMmKEP/b29sYpE3fv3uWzz/yMw5JHJCUl8Z//rKdGDScaN26Ydkx4wYIF6d3bm4iI08yZM5fXX3/deKuIiDwBBS0iIpJtDR06FIDExESmTJlinBYRg0OHDhmH7rNu3Vr27t1rHJZcLDExkWXLllK5ciVat27F4cMpv0+KFCnC4MFDOHPmVwICpqQtQRMRkaejoEVERLItR0dH3NzcAJg/fz5xcXHGEhFJVb58OePQQw0ePNA4JLnQ7du3mTNnDhUr2tO1axciIn4BwMbGhtGjP+fMmV8ZPfpzihUrZrxVRESegllycnKycVBERCS72LFjBx9++CEA48ePZ8iQIcYSkX9UyaEO8UmJdO7ohY9vN+N0rjBp0sQnXhK0fPkKWrRIWZ4nucuNGzeYO3cO06dP488//0wbf/XVV/H17U/nzl147rnnTO6R7GnxvK+YOnMhAL16tidfPv07uWRfF2P+YvWaYAAmjR/Ke85OJvMFCxakQIECJmM5SXTUBT6q1xoAf38fPDxcTeatrKywsLAABS0iIpITVKpUifDwcGxsbPj999/T/hATeRx5IWixsXmRa9euGYf/kZ2dHUeOhOsH7lzkypUrzJgxndmzZ3H58uW08bJlyzFw4EDatGmbo3/IyYvSBy0iOUleD1oUiYqISLZ3b6+WmJgYli9fbpwWydN69epJYmIixYoVo2TJkpQtW5aKFd+kWrVqfPDBB7i6uuLh0YCPP27GJ5+0oUuXLvTq1ZuPP26mkCWX+PPPPxk8eBBlytgxduyYtJDF0bESy5ev4Nixn+nYsVOO/gFHRCQnUUeLiIhke0lJSbz22mtER0dTvnx5Tp48iZmZmbFM5IGyS0fLb79d4KefHr1Zrcjjio+PZ+3aNYSFhZmM29nZ0aBBQypXrmwynhmqVavKq6++bByWTBQfH8/t27eNwyLZXl7qaFHQIiIiOUJgYCB9+vQB4Ouvv6Zx48bGEpEHyi5By67tu+k7wN84LJKjzZw2mlquNY3DkokUtEhOlZeCFi0dEhGRHKFLly4ULVoUgDFjxhinRURERESyBXW0iIhIjuHv78/o0aMB2LNnDx988IGxROQ+2bGjZeGCSZQpU8pYIpIjnDoVSfceg0EdLVlCHS2SU+WljhYFLSIikmNcvnyZEiVKkJCQQKNGjdi4caOxROQ+2TFoCd74JRXsyxpLRHKE48cj8PTsAgpasoSCFsmpFLSIiIhkU59++ilz5szBzMyMkydPUr58eWOJiAkFLSIZK33QMn2yPzVrv2cynz9/fszNtUOBiOQuTxK06P+AIiKSowwaNAhzc3OSk5OZOHGicVpERJ6hhDsJ3Lp1y+S6e/eusUxEJE9R0CIiIjmKnZ0dH3/8MQDLly8nJibGWCIiIiIikmUUtIiISI4zfPhwABISEggICDBOi4iIiIhkGQUtIiKS4zg6OlK7dm0AZs+eTVxcnLFERERERCRLKGgREZEcadCgQQDExcUxb94847SIiIiISJZQ0CIiIjlSvXr10k4cmjp1KomJicYSEREREZFnTkGLiIjkWJ999hkA0dHRrFixwjgtIiIiIvLMKWgREZEcq1WrVtja2gIwfvx4kpOTjSUiIiIiIs+UghYREcmx8ufPz4ABAwCIiIggJCTEWCIiIiIi8kwpaBERkRytR48eWFtbAzBx4kTjtIiIiIjIM6WgRUREcjQrKyu8vb0BCAsL48CBA8YSEREREZFnRkGLiIjkeD4+PlhYWEDqXi0iIiIiIllFQYuIiOR4NjY2tG/fHoCgoCAiIyONJSIiIiIiz4SCFhERyRWGDRuGmZkZycnJ6moRERERkSyjoEVERHIFOzs7mjRpAsCSJUuIiYkxloiIiIiIZDoFLSIikmsMGzYMgISEBAICAozTIiIiIiKZTkGLiIjkGtWrV8fZ2RmA2bNnExcXZywREREREclUClpERCRXGTRoEABxcXHMmzfPOC2SK+32ccGh/AOuak3w8tnI4WvpisNG4lDeBd+w9I87sfT3Bz+OWtLJdP6Z+YvVzVO+Dq9Vfxkns1A8UTsm47vqD+PEg8X/QejkYXi97572fXF6vwe+q34m/bdFRERyDwUtIiKSq3h4eFC+fHkApk6dSmJiorFEJJcqwTue9WiS7nItk8CJkABa1ZvMYWN5dhezh6+PFKJ4cTgyfx0njPNZ5jABvYL5Nd44fr/4M+vwqtYS7/nHsXDuSMCssQRO9ca1zAW2+vekRqN1nDXeJCIiOZ6CFhERyVXMzMwYOnQoANHR0axYscJYIpJLVaTrF8MYn+6auS6EoP7l4FIwa+51sLiM5EREGFNcDLc/RMkOizkRsZj2rxpnMteJpSs5QhV6DagJUcGs2WesyOau7WZoi0COFK5D4IGvWfZFc9zrOuPm0ZzxK74mbEJNrE8G0n7Ez8Y7RUQkh1PQIiIiuU6bNm2wtbUFYPz48SQnJxtLRPKMMg6lAIi/14FhXDr0CMalQymPRxIas5uRzd2pXN4Fh/LuuH+6znSJEhCzYwbtarulLmPqxMgdfxHq44JDo3VEmZYanCJkywVwcsbVoz6uXGfN0t08sIkkZjfj27RIex+eI3YTs8OwHAqI/z39+3XDqflIVh9Ov4/TPnzLu+C55GcOLxmGe7WUZT6Vq/Vg5I7UpUu/r8Oz/EC2AifHtbzvNdI7MT+QrXGFaDl1JG6FjbNg07Q/vk6F4MTxdF0t8UTtmEG7eveWGbnj3mYGoekPUUtd2rVgxzraVUutmXcq9fY/CB3RA6e3/n7vWqIkIvLsKWgREZFcJ3/+/PTr1w+AiIgIQkJCjCUieUJ8zCEWzN8Pxevh+ZgdLI/nMKMaj2J/yY6Mn+XPEPdiRIUG0mrI32HItbCRNO21niOWNRkydSz+TQuxs1dnRu03PNWD7NvImih4p6kTNpbOtHQHQlcSZDy1/do+fBv7seywBa7D/AkcVQ/rUD+a+psulIoPm4xbHT+C4pzwnTqWwKndqRm3h1Et2uIbZrppdtR8P9rPv47zgLEEjmpGZcvjrOnVk4ATgI0TQ2c1ozJg696fwFneONuY3J4qNSgq2YiWNYxz97yI14oQdq9rTpnUkbNLeuLWaz2/WtfDf9ZYAoY5weH1eH/QiaVn0t97mim9VmLZyp/AUY1o5/IGxO9jZO2WeG+4Ts0B/gTO8sfX+To7/Xvi4bNPYYuIyDOkoEVERHKl7t27Y21tDcDEiRON0yK50C66GTbDrfJBX6acdSJg4zCcLY31TyOW4u0XETKtOe51XWk/bQUz3YHQnaTkKIeY0m8Xl+y9Cdo2kvYeznj5zWDLwipwyfhc99u9Kpg4auLl8SIAzk3rAMf5OtR0U9z9k0ex9VI5hmxcwZQOrri16sOybZN4h9h0VaeY6R/MJbeh7E59L24ezZmyLYgAt1i2+q802f8lLr4KAdtmMLSVc8rzrfXGngvs2fcHWJbGqW4NbIHCVZxwq/s2ZR74uV4gKgqo/CYOxqmHidnIsHGnsXYfy5Z1ffCq64x7h5GE/DAUV04zIcC0o8e2/VgWDHDFrVUPvBzgRGAAay7VZNwPqZ9F6vdl99SaXAoJYEH22eRGRCTXU9AiIiK5krW1NT179gQgLCyMAwcOGEtEcpkHbIZbuRAWl3bRv/EAgkw6Ip5WKdzdSpuMlKlSDjjP2d+BwzsJiQPX7o3SujUACrt0pF36gQeJ382aEMCtPq73QgyXxrS0Nm6K+zMhW66D2yd4lU0bhMI16N0+ZbkUAGf2szMKXreG/Tt2E5p2HeaaRQmI2s/+9Mt/nF1Nl/q8WorXgZOHz6cbfITfL/ArABbGmYeK2b2TI5SgZXdnTFYaFa5PO69CELqVnemSlsrOb6YrOsee0AtQphDsS/817mb/NQts7wVFIiLyTChoERGRXGvAgAHkz58fUvdqEcndHrwZ7v6t3bG/tJ9h47ZiXHnz71lg8cBOjlQx14mjFJXtjUWlsbc3DBnEbFjJTsDV04m/734bd49Chk1xY7kWB69XLpeuLkUZh3J/P4g6xa/Ar0Hj8e7lZ3KNCrkAnOakydE/jx+OPFRqOAMJxpmHSrh2HSiHwwOCqJJlSgAXiHnoN/ACJ84CZ7cxzPA1evvvIho4eeIJgiIREXkqClpERCTXsrGxoV27dgAEBQURGRlpLBHJ9SzL1qOdE7B7HyeNk5kkPuHxAwZTf7Fzw3EAdvaqa7IMqv3q65B+U9z4hCeIMaD+wjBORDz4Gp+h+9cAlKKyPXDk5388lvrE5DY41RtGyEM21H1i7pPu+9rSri8eulmMiIhkMAUtIiKSqw0ePBgzMzOSk5OZMGGCcVpEMoFlyWJYc54jJ43nBP3BWZPuEYMT61hwBHBqTeCssYarP01KptsU17IExa3h1yOn7zuNKOpsuu4NmxLYAkf2p57M80y8gpNLiUccS32KkC3niYspRvFXwaJwIeB0SmeKQdTZC0ApSj70iO1ilCwJHDn0j8GOiIg8GwpaREQkVytfvjwNGzYE4MsvvyTm4b33IrnTmW0s2w841eARq3YyThVX3K1h57zgdEcXAyc2suwf2mpObNlFNIVo6d0Dt7rOhqsxvt0qAsdZsPQU8GbKcqLQlaw22X/mFKuXnv77oYMr7iUhetVKQk2O3okj1Mcdh2rDCMmEI3kcunVPOZa630jD6wLEcXjyeBZGgb33JzgBNs6uVOYCa+btNj0h6NpWlq2+Ds41qJx+3MQbuHukBDsLdpieonRtx0icyrvTe4vpuIiIZB4FLSIikusNGjQIgISEBKZPn26cFskljrNg8DiGprt827TBqf48TlKMlgPq88CTiDPF2/hOqInFyUA8641k6ZbdhEwegHPjr4g2lqY5xJpV/3wksk3TT3AFoldtZD/gNGAorhanmdC4Db5LdhK6ZS5d3+/Mwqj0d71B11F1KB63C+/32zBy1W5Ct6xjaJu2eIdcx967O+4mu88+SiEKW8PJpfNYveMQZ43tNPcUdmXc8ka8fmkX3tWb0G7wOkJ27CZ01Vx61/Ok1fzTFHefxNIOr6TU2zRm3LByxIX44dF8Bqt37CZkyUjc3x/PTsoxZNg/f/8cuvWnfvHrbO3lifuIjYTu2MnSwX3w6LWLOPuO+HqknMImIiKZT0GLiIjkeh988AHVq1cHYPbs2dy6dctYIpILXODHoG18ne7aejiW4k7NCNy1hpFVjPWZq3DdcYTOaoRDzB4m9POj/6pYXGdNx/chbTXxO9axJg4qd2v+8CORLZ1TTuCJ20XIPqCwMzO/HUtLh1h2jhuFd79gLrmNZWn/dJvhAoVdRrJlbX/qO8QS5O+Hd79Adp4tQctZa1jdwfT0pEd7k3Z+NbGN2cWoXn1Z8NClQVC4xgBCDszB370EUaHz6N/LD2//9eynIu1mrSF0Wg2TE4bKdJhD6KxmvB63jVG9/Og/bj+4tGbp94tpn/5kpQcpXIMp2+bg716OSxsC8O41igmh5ynpNZbQdc1NTn8SEZHMZZacnJxsHBQREcltNm7cSJMmTQCYOnUqPj4+xhLJpSo51CE+KZHOHb3w8e1mnH5mdm3fTd8B/gAEb/ySCvaP+sk5NzrHgnptmWI/lhPTnI2TGebsvDZ4BJQjMGIkbsZJeWrHj0fg6dkFgEnjh/Kes5PJfMGCBSlQoIDJmIhIThcddYGP6rUGwN/fBw8PV5N5KysrLCxSTq5TR4uIiOQJjRo1onz58gBMmjSJxMREY4mIZJSYrbR7y512q/4wHT+zh5CzYF/FtOPk3/mLoDZuOLXZiMlKIc6xc8t5sH/z4Z0xIiIimUhBi4iI5AlmZmZpe7VER0ezZs0aY4mIZBQbJzyrXOdH/560G7uR0Hv7jTSex8nidfBtmrovyVN5kZpNKxK3PwCvNil7moRuWYdvvc5MOVmM+gPqUdJ4i4iIyDOgoEVERPKMtm3bYmOTsp3kF198YZwWkQzzIp6L1hDoVYJfNwTg3cuP/pP3U9itP6u2jcT5iTaffTibppMIndWIkmdT9jTx7jePPdY18V+7nCku2vxVRESyhoIWERHJMywsLPD19QUgPDyc7du3G0tEJKNYvoLb6LnsPhjGiYgwThwLYfW0xlTJoJAlhSUl6w5g9Q8hKa8REcr+dSPxqqKQRUREso6CFhERyVN69eqFtXXKD2ETJ040TouIiIiIPBUFLSIikqdYW1vTrVvKyTO7du0iPDzcWCIiIiIi8q8paBERkTzH19eX/PnzAzB27FjjtIiIiIjIv6agRURE8hxbW1s++eQTANatW0dkZKSxRERERETkX1HQIiIiedKwYcMwMzMjKSmJyZMnG6dFRERERP4VBS0iIpInlS9fHnd3dwAWL17M5cuXjSUiIiIiIk9MQYuIiORZgwYNAuDWrVtMnz7dOC0iIiIi8sQUtIiISJ7l4uJC9erVAZgxYwa3bt0yloiIiIiIPBEFLSIikqcNGTIEgMuXL7N48WLjtIiIiIjIE1HQIiIieZqnpyd2dnYATJ48maSkJGOJiIiIiMhjU9AiIiJ5mrm5eVpXS2RkJOvWrTOWiIiIiIg8NgUtIiKS53Xs2BEbGxsAxo4da5wWEREREXlsClpERCTPs7CwoG/fvgCEh4eza9cuY4mIiIiIyGNR0CIiIgJ8+umnWFlZATBx4kTjtIiIiIjIY1HQIiIiAhQtWpTu3bsDsH37dsLDw40lIiIiIiKPZJacnJxsHBQREcmLoqOjKV26NImJiXzyySesWLHCWCI5UCWHOsQnJdK5oxc+vt2M08/Mru276TvAH4BFCydTpkwpY4lIjnDq1K906z4YgEnjh/Kes5PJfMGCBSlQoIDJmIhIThcddYGP6rUGwN/fBw8PV5N5KysrLCwsQEGLiIiIqbZt27JixQry58/PuXPnsLW1NZZIDpMdgxaR3EJBi4jkFU8StGjpkIiISDqDBg0CIDExUXu1iIiIiMgTU0eLiIiIQb169di+fTtWVlZERUVRtGhRY4nkINmlo+W33y7w00+HTMbu3k3izp0Ek7HsIiIigq++Wslff8WmjdWuXZumTZua1EnWiY9PIDj4a8LCdpuMlypVirp161KlShWT8cxQqVJlbG1fNBlTR4uI5EZP0tGioEVERMRg165duLqm/OE5ZswY/Pz8jCWSg2SXoOVB7ty5w82bN43DWermzZuMGuXPkiVLuPfXxJIlSzJz5mw++OADY7lkAzExMcyePYslS77kxo0baeMVKtjTt29fmjZtirl5PpN7MpOCluyj1vtNiI27ZhwWeaR33q7M4mVTjcN52pMELVo6JCIiYlCnTh0cHR0BmD59OgkJ2bPjQCSjff/993zwwXt8+eWXJCcnY2ZmRqdOnfj++/8pZMnGbGxs8PcfyeHDRxk8eAjFihUD4JdfTvLppz2pUcOJJUuW6P9lIiLPiDpaREREHmDt2rW0bNkSgLlz56Yd/Sw5jzpaHk1dLLnLzZs3WbZsKbNnz+LChQtp4yVKlKBHj5506NCRggULmtyTkdTRkn3c62ip7GiPi8u7xmmR+wQFbeP36AvqaHmAJ+loUdAiIiLyAElJSZQtW5bIyEjs7Ow4c+YM5uZqBM2JFLT8s++//57evT8lKioKADMzMzp27MiIESMz9YdxyXwJCQmsXr2KmTMDiYyMTBsvWrQoXbp0pVu37hQpUsTknoygoCX7uBe0tGntyXD/fsZpkft0aNuH/+0/rKDlARS0iIiIZIDZs2fTq1cvANavX8/HH39sLJEcIDsHLUlJSSQmJhqHn4kbN24wfLgfCxcuTOtiefXVV5k/fyHOzs7GcsnBkpKSWLduLVOmTOH48Z/TxgsVKkTHjp3w8enHSy+9ZHLP08ifP7+C6WxCQYs8KQUtD6egRUREJAMkJCRQokQJLl++TPXq1fnxxx+NJZIDZOegJat89913dO7ckd9++w1Su1i6devG+PFf8PzzzxvLJRfZtCmYiRO/YP/+/WljlpaWtGvXjkGDhlCqVCmTesnZFLTIk7oXtFR1fIsZcz43mcufP3+e/jPiSYIWRc0iIiIPYWFhgY+PDwAHDhwgLCzMWCKSo9y4cYM+fXrz0Ud100KW1157je3bdzBjxsw8/RfovKJhw0bs3v09W7dup3bt2gDEx8ezYMEC7O3L06FDe06cOG68TUREnoCCFhERkX/g7e2NlZUVABMnTjROi+QY3333HZUrOzJv3ry0E4W6d+/OkSPh1KpVy1guuVydOnXYtu0bfvhhLw0aNMTMzIy7d++yatVXvP12FZo1+5iDBw8abxMRkcegoEVEROQfFC1alM6dOwMQEhJCRESEsUQkW7tx4wZ9+3qri0UeqFq1avznPxs4dOgwXl6tyJcvH8nJyWzaFMz7779L/fof8e233xpvExGRf6CgRURE5BH69++Pubk5ycnJjBs3zjgtkm3d62KZO3euuljkHzk4VGTp0mX8/PMJunTpgqWlJQC7du2iXr0PcXGpyebNm4y3iYjIAyhoEREReQQ7OztatGgBwMqVK4mOjjaWiGQr6mKRf+v1119n1qw5/PLLKfr29Un7vbJv3z4+/rgp1apVZc2a1SQlJRlvFRGRVApaREREHsOwYcMASExMZOpUHXco2Ze6WCQjvPLKK0ycOImzZyPx8/uMokWLAnDsWDjt2rXlrbcqsmjRQu7cuWO8VUQkz1PQIiIi8hgcHR1xc3MDYN68ecTFxRlLRLKUulgkM7zwwguMGOHPmTO/Mn78BEqUKAHAmTNn+PTTnpQvX44ZM6Zz69Yt460iInmWghYREZHHNGjQIADi4uKYPXu2cVoky/zwww9UrVrFpIulW7du6mKRDPP888/j69ufiIjTzJgxEzs7OwCio6MZOHAAZcu+zrhxY7l69arxVhGRPEdBi4iIyGOqW7cujo6OAAQEBJCQkGAsEXmmbt26Rd++3tSp839ERkZCui6WwMBZ6mKRDGdpaUn37t05fvwkixd/iYNDRQD++usvRo0aSdmyrzNs2FD+/PNP460iInmGghYREZEnMHToUABiYmJYvny5cVrkmfnhhx+oUqWSulgkS+TLl49PPmnDoUOHWbt2HdWqVYPUjr+AgMmUL1+Ovn29OX/+vPFWEZFcT0GLiIjIE2jZsiW2trYATJw4keTkZGOJSKa6desWPj591MUi2YKZmRmNGzfhhx/2smXL1rSQ7/bt28ydOxd7+/I0b96M0NBQ/f9SRPIMBS0iIiJPwNzcnMGDBwMQERHBpk2bjCUimeZeF8ucOXPUxSLZjpubG998E0pY2B7c3T0AuHv3LsHBG/HwqM+bb1Zk+vRpXLlyxXiriEiuoqBFRETkCXXt2jXtqNOJEycap0UynLpYJCepUaMGQUFf89NPh+jWrRsFCxYE4MyZ0wwaNJCXX7ahS5fO7N+/33iriEiuoKBFRETkCVlZWdG7d28Avv/+ew4cOGAsEckw6mKRnOrNN98iMHAW58//zrRpM6hY8c20ueXLl+Hs/AHvvluDL79crOOhRSRXUdAiIiLyL/Tr1w8LCwsAxowZY5wWeWrqYpHcwtramp49e3Lo0GFCQ3fRokVLChQoAMChQz/Ro0d37OxK0b+/L6dPnzLeLiKS4yhoERER+ReKFi1K586dAQgODiYiIsJYIvKvPaiLpWvXrupikRzP2dmZ5ctXcPZsJKNHf06pUqUAuHLlCjNnBvLmmxV5553qjBgxnL1795KUlGR8ijzj4MGDxiERySEUtIiIiPxLgwYNwtzcnOTkZCZNmmScFnli/9TFMnPmbHWxSK7x0ksvMXjwEH755RQbNgTx0UcfYWZmBsDRo0f44osJ1KrlzKuv2tKxYwfWrl3D1atXjU+Tq/Xo0R1PzyacOXPGOJX1wkbiUN7lgVflai3w8tnI4WvGm3KTeKJ2TMZ31R/GiYc4xMhqLjiUd2fkPuNcit0+93+WKZcbTrV74LvqZ9J/pFFLOuFQvhNLf083KNmGghYREZF/yc7Ojo8//hiAZcuWERMTYywReWzGLhZSN15WF4vkZubm5nh4NCA4eDO//HKK/v0HULx48bT5v/76i6++Wknbtm145ZWXcXWtTUDAZI4f/9nkeXKrkJAtvP12ZUaNGkl8fLxxOstZ29ekiWc9k8u55HWOhATQqsVcThhvyDUOE9ArmF8f91uybychccUoXvw6a5bu5uG3FcLezfTzbOLpRMlrx9nq3xOvyVpal1MoaBEREXkKw4cPByAhIYEpU6YYp0Ue6datW/Tr1/e+LpZvvglVF4vkKaVLl2bcuPGcO/cboaG7GDRoMG+/XTWt0+Xu3bvs2bOHYcOG8vbbVShfvhx9+3qzbdvWbBlCZJT4+HjGjRvL229XJiRki3E6S5Vs6s34L4aZXDODQ9jQrQSc/YpZO3Lv9+XxxRO6NJi4kvXwbVoCQlcS9NB/lylBk2Gmn+f4L8YRdHARXUrCr/O/JFQfaY6goEVEROQpODo6Urt2bQBmzZpFXFycsUTkoe51scyePVtdLCKp8ufPj7OzM59/Poa9e/cRFfUHX365hFatWmNjY5NWd+7cOebOnUvjxo148cWivP12Fdq0+YRx48by9ddBnDoVkav2eDlz5gyenk3w9GzCb7/9ZpzOVhw8G/M6EBUVmzoSx+FVI/F63z3dEqM29F5ybzlMPKGfuuBQfiS7TZ4JiN9J7/IueC75I3XJUieWHv6ZpZ+2oHL5lOU4niN2EwNcC5uBVzW3lOevPYylh03/TI7/fTcjm7un3ueGU/ORrDap2YdveRc8l/zM4SXDcK927732YOSOv1JKfl+HZ/mBbAVOjmv56OU78Xv4OhSsnZ3x9KiDLcdZsPRJO1PewNOrFHCBqIeGNJKdKGgRERF5SgMHDgQgLi6O+fPnG6dF7qMuFpHH9+KLL9K69ScsWbKU336L4n//28vo0Z9Ts2ZN8ufPD8CdO3c4fvxn1q1by6hRI2nZsgVvvfUmL7xQGCend+jQoT0TJ37Bli2bOXv2bFqwmROFhGyhUqW3mDRpYvbt5Ln0B5fSPTwxuTOt/PdwzakjAbPGEjiqNU4259k5rie9N/wFWOLmVQfYRVBYuhuB+NCd7KQiLT1eSR25wMJP+7LwWk2GzvJniHsxTq72o1vnAXh8uh/7Af4EjmqGQ/weJrQYn9YBEh82Gbc6fgTFOeE7dSyBU7tTM24Po1q0xTfMNJCJmu9H+/nXcR4wlsBRzahseZw1vXoScAKwcWLorGZUBmzd+xM4yxvnv/O/+8RsWMdOCuHe9E1waEw7e4hetZH9xsJHuJQWWklOoKBFRETkKdWvX5/y5csDMGXKFBITE40lImnUxSLy75mZmVG1ajUGDx7Czp3fEht7hf/9by/z5y/A27sPtWvXNtnjJT4+niNHDrNq1VcMH/4ZTZt64uBQAWvr5yld+jWqVavKRx/VpXXrVvTt683o0aOYPXs2a9euYdeuXRw9eoSoqCju3Llj8j6y2s2bN/nsMz/efrsy3377rXE6C8Vz7cxWevcLJo5yNHF7BTjE11uuU9x9LEHTmuNe1xm3Vj1YsHEsrsCPYadTbnVpTEtr2Loh/W6x8ezcsgcq18c1Lcy4TryTP1tW9MGrrivtp/nTpSSc3B1Lu40rGNnKGbdWfVjqVxPYw859AKeY6R/MJbeh7N42kvYezrh5NGfKtiAC3GLZ6r/SZD+ZuPgqBGybwdDU51q21ht7LrBn3x9gWRqnujWwBQpXccKt7tuUsUx3s4k/CFl1HEo2omUVgFdwa1oO4nYR8pBNce8TH8fZDcPov/o62NfH7VVjgWRHZsk5Oc4VERHJJpYvX067du0AWLp0adqvJetVcqhDfFIinTt64ePbzTj9zNy6dYthw4aYbHb72muvsWjRlwpYRDJYdHQ0P//8M0eOHObYsWOEh4dz7Fi4seyJFCpUCBsbG1566SUsLR/6k3WGOXjwIDdu3DAOP1Dz5i2YPDmAEiVKmIzXer8JsXHXaNPak+H+/UzmnkrYSBy67DKOplOMmhOms6BpaeNEOn+wtFFLJrzqz+HZrlgC+0e40361E/MjRuIMELOVdh+MJ2FUEKtbvZj2uvVnhTGlruF5ErqzZdsnlLk3fGYl7vXnYb8wjCklU36N51B83QrdqwDg0pZARoUUYsiuxbR/dR++5Qey1X0sJ6Y5p6u6Nz6JE9NqpD3+ddgagjrc67R5gBNzcW38FXRbxM4Bb6SMxWzE64MAjriN5fBsZ+79Ttrt40K3kPQ3GxR3YtzyyXiWTXkYtaQTbuNIfd/G4n+vQ9s+/G//Yao6vsWMOZ+bzOXPnz9Pd1xGR13go3qtAfD398HDw9Vk3srKCgsLC1BHi4iISMZo1aoVtra2AIwdO9Y4LXncg7pYunTpoi4WkUxia2tL3bp1GTBgIEuWLOXgwZ+4ceMWBw/+xJIlS+nffwAfffRR2v+3H8f169f59ddf2bdvH2FhYZl+PW7IArBu3Vrat29rHM5095861IwhU6ez5cCaB4Qs8Vz7/RS7d+xk6diRtKvXmQkngd9j05YZOXnUwTrd8qGY3Vv5kSq0dHsx/RORlk6kZ2FhOmyZ7nHUKX4Ffg0aj3cvP5NrVMgF4DQnz6a/OeWH5ae1f1Uw0ZTA3SM1ZAGwqUmTyjxkU9wHnDrU3puA5cvZ9+3fIYtkf+poERERySBTp07F19cXgC1btuDu7m4skSyQlR0t6mIRyRkuXrzItWtXuXbtGnFx17ly5TJXr6Y8vnr1qsmvr127SkJCgvEpMtzjdrS8+OKLjBkzlg4dOmJubvrv6Jnd0WL/qI6OVGc3DKD9kP0pgYpFIWxtSuHgVg5Cg9lp7U1ocHNKAvAzI6v1JMRjOvtHlyKojSfDGErYivrY8Pfr1l8YxhSXe8+e2tFC+udJ3bS2TiCvLwxjCg+670GMnSsPG3+cjpZDjKzWlzX/sEe+bbpOl5SOlnKP3aGijpZnTx0tIiIiWaBHjx5YW1sDMHHiROO05DHqYhHJOV566SXKlXuDqlWrUatWLRo3bkK7du3p3dsbP7/PmDhxEnPnzmPVqtVs2bKVHTt2ZvpVtmw549s0YWZmRrt27QkP/5lOnTrfF7JkGzEbGTZkP/FuQ9kSHsaJYyHs/HYuM/1STiYy9SYtW5UgbstO9sfsJ2g/uLaqkxKyPA2bEtgCR/Y/6Wk//178jnWsiQNbz/4EzhpruFrzDv9uU1zJGbLpf40iIiI5j5WVFd7e3gB89913HDhwwFgieUDKiUI+DzxRaNasOXn6XwNFJGM4OFTk22+/Y8GChbz4omFZTXZz4hBHgJqe9U02jY0/vJWQqPSFKRw86mAbt4vVY3fzIzVp4vagdUJPyMEV95IQvWoloSnnSaeKI9THHYdqwwgxGX9a8ewM2gNUpOuAxrjVdTZcPejtVQjiglm2I5ueHCVPRUGLiIhIBvLx8UlrG/3iiy+M05LL/d3FMktdLCKS4QoXLsyUKVM5cOAg7733nnE6e3KowTvA1n5tGLlqN6E7drLUpxPOLYK59KCtUBxccS95na0he8CtPs4ZkLPAG3QdVYficbvwfj/1fWxZx9A2bfEOuY69d3fcCxvv+SeFKGwNJ5fOY/WOQ5w1ZiUx21gWCrh9gudD2nGcWjXCFtg5fxv3bdUiOZ6CFhERkQxkY2NDhw4dANiwYUNaR4PkbupiEZHM1rx5C8LDf6ZXr97kz5/fOJ192dRn5lpvXF+NZY2/H969AlgYVZGhG4NY0LQQnDzECZOg4g3cPVJOT3L1dHrgvrf/RmGXkWxZ25/6DrEE+fvh3S+QnWdL0HLWGlZ3MG7c+yhv0s6vJrYxuxjVqy8LDEc1n1i6kiMUomX7v08Vuo9Dc7pWBo5sZaeSllxHm+GKiIhksMjISMqUKUNycjI9evRgzpw5xhJ5hjJ7M9wffviBjh3bm4RqXbp0YeLEyQpYRORfe+ed6hw9egQHh4pMnTqN2rVrG0seKdM2w81kKRu9lvr7mGd5ZrQZ7sNpM1wREZEsZGdnR5MmTQBYvHgxMTH6p6rcSF0sIpKZCha0YsyYsRw4cPBfhSw51ylWLz2NtVdjhSySYyloERERyQTDhg0DICEhgRkzZhinJYd70F4snTtrLxYRyTibNm1h4MBBOWuZ0NOI2ceCwePoXa8nC6PK0avb28YKkRxDQYuIiEgmqF69Os7OKf8WN2vWLG7dumUskRzon7pYZs9WF4uIZJzChZ9od9Zc4Dr7t2xj5+/FqD91Eu1fNc6L5BwKWkREJNtITEwkISEh11xDhw7l5ZdfxsLCgmXLlt03n9eunG737t1UrVrlvi6WQ4eOqItFRORp2biy4FgYJ46tZYpHNj+yWuQRtBmuiIhkG7///jt//vmncVhyiYoVK2JlZWUcznRPuxnuuXPnGDp0CP/5z/q0sddee41Fi75UwCIi2VpO3QxXso42w304bYYrIiIi8pRu3LjBZ5/54ej4pknIor1YRERE5J8oaBERERFJJykpicWLF+HgUIFJkyYSHx8PQNWqVfn22++0F4uIiIj8IwUtIiIiIqnCwsKoVq0qPXv2SFvGVrJkSRYtWswPP+zl/fffN94iIiIiYkJBi4iIiOR5Z8+epXnzZtSt68rx4z8DULBgQT77bDjHjh2nTZu2mJmZGW8TERERuY+CFhEREcmTEhMTCQ7eSNOmnjg6vklw8EYAzMzMaN36E44fP8nw4SMoWLCg8VYRERGRh1LQIiIi2cwJZrbqR5sZJ4wTj3Yjkm3jN3PEOJ5hbnE6ZB6rH/cFEmI5sGoR/j2G0qZVP9q06ke3HtOYGRrJDZPCp/ias7mYkEm0abUsE78nTy4i4heGDBlMmTJ2NG/ejC1bNpOYmAiAk5MTP/zwP778cgmvvPKK8VYRERGRR1LQIiIiuUbMd+tYcTTWOJxxYvazePlJLhnHHyAh6jv8u3zOtOBzWFSuRy/fTvh4N6GabSx7F02n+5DviDbeJJkmKeku+3/8nlq1nHF0fIupU6ek7cHy3HPP8cknbdi167/s3v09VatWM94uIiIi8tgUtIiIiGS0G+HMH/E1Zwq+jc/C0fj1rMV77zhS/f1adB8xmpk93qLgua8ZuzDSeKdksLCwMH774wRnzuzlPxu+Yu/evWlzFSu+yZQpUzl//ncWL/6SDz74wOReERERkX9DQYuIiGR795afHLgSzuLhQ+nYqh9tWg1lYMB3nE5dg3NkRj/6LY8GDjHJsAznxqnvmNr/3vKdoQwcHcSBK38/P0eW0abVJLadimRbwHi6tepHm1YD6TZ83d91R5bRps/XnAf2Tuj3j8thzgUHsffmc9Tp047qDzgF+IVazWnp8BycO2foakkk+rtlDOucssyoY+dpLP7xmknFjVPfM3P4iNT32I827Uw/B4hl25B+tJkRzpUf1+HfeWBKXefxTA0xLlm6xenQdK/nvSjlMxhiXMZ0i9MhixiYWtem83jGLgsn/UcIQPrvT7vRTP3uT+4YazLRuXPn2LBhA8OGDeOjjz6iePHi1KpViytXL5CcnASAlZUVbdu247//DePQocP06tWbIkWKGJ9KRERE5F9T0CIiIjnEab4csowTNvXo5tuWNu8V5tKBrxk5N5wEoHSjTnR8ryhQmo98O+HTqCQAMaHT6D3ia04XcaKjbyd8OjvxQnQY03pOYltU+uePZVPALDbdsKelbyc61i9NgdM/MG34Zs4BlHbFp/PbFAfK1u+Ej68rpdPfniaK//1wGYp/gGtF49w9hXEdMZ5Zn9fCNv3w/xbjt+oaDq064ePtikOBc+yaMo3V9xpfIjfjN2I9B2+Wo6l3J3x8m9HAoTB/HPiakQH7TYOP4+vwCzyNzcet8PFuwrsvxHJw+XTm//h39BEdMpORiw5xtbQLHX3b0vKNi6wZsZhNMemfKJadw0cwcvk5XqjVDB/fTnSsZU301sX0Tr/86cp+xvZczK5zhXHu3Amfdo7cXDWLmWG30j9Zhjl//jxBQUH4+flRr149bGxssLOz4+OPP2b8+PF88803/PXXX2n1FhYFadyoBb/9FsXChYt47733TJ5PREREJKMoaBERkRwijiL1BzCpTy3ee6cq9foMxec94MAhTgAv2DlSqZwVUIxK7zhS3a4wJISzYtE5itTvy9QRnri+40h1N0/85g6gQfFoVqxOCWlS3OZOxXZMTK1zbdebkW1t4dIJTsQAL5SkeuXSFARsKjtS/Z2SvGDy/u6J5dIl4I3SDwli/slbdAvoTVs3R6q/34BBQ1wpzmUOHknZS+RE2E/cLPI2PuPbUe99R6q/8wFeQwfgUx04cTIlELrnqjX1xg+lt3tVqr9fi94BnXgXOPi/0ynzV75n3vJoirzXLfVrTvlMx7a15urNv58m4ccgvjxtzUejh+PX7gOqp342s8a7Uvzc16xJDW5OrA/iBLa0GT+UTm6pn3NAc2xjLqc916xZsxg5cuQjrwEDBtC9e3datWqFh4cHzs7OVK5cmddff50XX3wRMzMzSpcuTdOmTRk3bhzbt2/n0iXTnXOqVKlC7969WbFiBRXKvIudXTXef68W1tbWJnUiIiIiGU1Bi4iI5BAv8V71l01GbMvZAn/yh0kHRjpHDnGQ/NgWiePoj+EcSLtiufPC3yHNPZXecyT9Sh+bki8D0Zx+kl1rY2JTuzzyG2ce7T0n3kv/BuzKUg7441zKBr8O7UYwf247Klukq6EApR1sgTvc/Ds1Atu3qZbS1JPqZcqVBqIvEgNcOXKIMxTFuZGDydds616Pd9M9Pvq/Y1DgZV64cjLd5xfOgZg7FEkLbqI4cuQ2VHelTvrXfN6Rhm5F0x7OmTOHUaNGPfIKCAhg/vz5rF69mpCQEPbs2cPRo0eJjIwkNvb+zY6LFi1K/fr1+fzzz9m5cyc3btzg0KFDBAYG8sknn2BhYWW8RURERCTTKGgREZEcIj8FTAKGR4uJ+RNI5OjqxUybYnptP839Ic0TPv8D2byUuhwo5bjgJ/N44UzCjVjOHQnnfyFBzBw9Hr/l0UAsV6+mKypQgALpHhrdvBIH2FHOzjhTMiWQgZTunGjgzknWGD6/aVPCOMO94OYaly5BcduX7/sIi9gWM4w82gsvvEC5cuV47733aNiwIZ06dWLQoEFMnDiRL7/8kk2bNrF3715Onz7N1atXiY2NJSQkhM8++4w6depQsGBB41OKiIiIPDMKWkREJJezpc2MqaxY9aBrIPVsjPVPK7Vz5NQ506U8BudWjadb/0X872HdOA8StZ+JPfrRqcvn+E1Yxpdbw4l53p53q//dNfK47tx8gm1qSzdh6n2fXeo1oRb/9BEWLPB3N8mxY8dITk5+5HX58mVOnTrFDz/8QHBwMIsWLeKLL75g4MCBdOjQgQYNGlCjRg3Kli1L4cKFTV5PREREJKspaBERkVyryAvFgGhOnHqCUOGpFcOhclG49D07jxvn7onifz9c5OaVwrzwTymFiWvsnLuKo3feotvkiaxYNYn5gSMY1d8TV5MddR9PSqdJJKfvO2H6T06nJUTWFLEBzp3mdPplSfcpTPHicCn6z3R73qT445zJjsMiIiIiuZ5ZcnJysnFQREQkK/z+++/8+ed/mdlqPnvf68aKPg6Qerxzv+XQZoZpB4pxPOXxywxc1Y7KAAnhTG2/mIOlPZg4wS3dCT9/smnIBDbc8WBkgBuljyyjzYRDvDtkKr0r//38GMdjvmNYn6+xNdYZ3fiJqV2Wc7DI2/gEGI94vsXpVTMZGRxNqbbDGedeDDhx39ecIv04qb/uxIo+jn+XJESyvP90tl+yTf0cYtk25HNW0ISpJt0mhvEr3+Pfcz2X3uvGxD5/79Ny44dFdA88BqnvJeHHRXSacoxSXkMY1zjdHjlRoQwbsJ07Xj5MalyS08tGMHKrNS0nD6ThvX1abpxgZv/57L36NgNXtaNVxYpYWT37/VIqOdQhPimRzh298PHtZpwWEcm1ar3fhNi4a7z8cnHKlH7VOC1yn+PHT3P1+nWqOr7FjDmfm8zlz5+f5583+UtNnhIddYGP6rUGwN/fBw8PV5N5KysrLCxSFlEraBERkWzjaYOWK9/NpPfcKBwaNeej98pR3a4w0SGTGLQ8GorY06Dd+5S7eY7dW7/jYLQV7w4ZSu/KVvcHKvcYx6/sZ2zPVZxzcKVj/bdxeOjJQ3Dj+DpGfv4Df2CNg4srdaoXo8DVe6+dmHLaT1rA8ThBS0nCRvsz/0R+XnFtQsvKhbkTc4hN/znEH3fyc+fOS08WtKQuX/ILvkgRBxea1i8HRzazYudF7kBa0AJ/sm3IBFacgyKVXGnjVpqbp/ezbesx/ij4NgMD2lH5+XShys2XeNfrI959IZpdy3Zy9CqAghYRkaxwL2gReVIKWu6noEVERHKkpw1auHGa5Z8vYvu52yn7iqQGCld+DGLW6v2ciL4N5KegrT1Ne7Sm3hupP/QbA5V77hu/xYllM5m6NZqb3OsgSVdvdCOSnYu+ZtORKC7dTEx97dI4e7Wm5TvF0m0c+zhBiwPciGTb3FVsOHCRm0DBIqV5t1VzWtr8QL/Pf8DBdyL93om7L1BJcX/QArc4HfIV8/5zjD9uQoHib9GyjyOnR6wyvJdrHFi2jDXfneGPm0CB53ilcj2696hFufR/3zJ5f8/xSvV6NLTZz/ytKV1GClpERJ4tn95+XLt202Qs6e5d9BOgPEq5N16nj28nkzEFLQpaREQkB0oJWv40DsszFc7MVos55zWESemXCmWAigpaRESy3LVr19CPgPJvKGh5/KBFm+GKiIjkRafW0avzCBYfMR2+8eMhjgKl7TI2ZBERERHJKxS0iIiI5EVvvEO1AnHsChjPzJCfOPBjODuXzWTQlEPcLN2Epv+02a+IiIiIPJSCFhERkTzJjk4BfWlTGY6uXs60KYv58rs4bOt3YuroWulOaBIRERGRJ6E9WkREJNvQHi25m/ZoERHJejdv3tQeLfKv5MuXj+eee844nGc8yR4tClpERCTbUNCSuyloERERkZxKQYuIiORIV65cITY21jgsucRrr71GgQIFjMOZTkGLiIiIPC0FLSIiIiKpFLSIiIjI03qSoEWb4YqIiIiIiIiIZBAFLSIiIiIiIiIiGURBi4iIiIiIiIhIBlHQIiIiIiIiIiKSQRS0iIiIiIiIiIhkEAUtIiIiIiIiIiIZREGLiIiIiIiIiEgGUdAiIiIiIiIiIpJBFLSIiIiIiIiIiGQQBS0iIiIiIiIiIhlEQYuIiIiIiIiISAZR0CIiIiIiIiIikkEUtIiIiIiIiIiIZBAFLSIiIiIiIiIiGURBi4iIiIiIiIhIBlHQIiIiIiIiIiKSQRS0iIiIiIiIiIhkEAUtIiIiIiIiIiIZREGLiIiIiIiIiEgGUdAiIiIiIiIiIpJBFLSIiIiIiIiIiGQQBS0iIiIiIiIiIhlEQYuIiIiIiIiISAZR0CIiIiIiIiIikkEUtIiIiIiIiIiIZBAFLSIiIiIiIiIiGURBi4iIiIiIiIhIBlHQIiIiIiIiIiKSQRS0iIiIiIiIiIhkEAUtIiIiIiIiIiIZREGLiIiIiIiIiEgGUdAiIiIiIiIiIpJBFLSIiIiIiIiIiGQQs+Tk5GTjoIiIiEhuUcmhDvFJicZhERERkX/F398HDw9XkzErKyssLCxAHS0iIiIiIiIiIhlHHS0iIiKSq82btYzExLsmYwnx8SaPRURERB6Xc513eeON103G0ne0KGgRERGRPOfq1avGIREREZF/TUuHREREREREREQygYIWEREREREREZEMoqBFRERERERERCSDaI8WERERyXPi4+PRX4FEREQkoxQoUIB8+fKBghYRERERERERkYyjpUMiIiIiIiIiIhnk/wEfYxXlPcKt4wAAAABJRU5ErkJggg==;" vertex="1" parent="1">
                    <mxGeometry x="1641" y="173" width="547.27" height="422" as="geometry"/>
                </mxCell>
            </root>
        </mxGraphModel>
    </diagram>
</mxfile>